<ttFont>
    <TTGlyph name="A" xMin="-40" yMin="-75" xMax="2480" yMax="1421">
      <contour>
        <pt x="2327" y="1421" on="1"/>
        <pt x="2356" y="1421" on="0"/>
        <pt x="2411" y="1402" on="0"/>
        <pt x="2454" y="1367" on="0"/>
        <pt x="2480" y="1316" on="0"/>
        <pt x="2480" y="1284" on="1"/>
        <pt x="2480" y="1222" on="0"/>
        <pt x="2400" y="1064" on="0"/>
        <pt x="2336" y="958" on="1"/>
        <pt x="2267" y="845" on="0"/>
        <pt x="2145" y="620" on="0"/>
        <pt x="2040" y="411" on="0"/>
        <pt x="1953" y="226" on="0"/>
        <pt x="1921" y="153" on="1"/>
        <pt x="1961" y="148" on="0"/>
        <pt x="2041" y="142" on="0"/>
        <pt x="2073" y="143" on="1"/>
        <pt x="2075" y="91" on="1"/>
        <pt x="2068" y="91" on="0"/>
        <pt x="1977" y="92" on="0"/>
        <pt x="1899" y="103" on="1"/>
        <pt x="1868" y="31" on="0"/>
        <pt x="1835" y="-49" on="0"/>
        <pt x="1835" y="-51" on="1"/>
        <pt x="1716" y="-14" on="1"/>
        <pt x="1776" y="123" on="1"/>
        <pt x="1709" y="138" on="0"/>
        <pt x="1561" y="178" on="0"/>
        <pt x="1408" y="229" on="0"/>
        <pt x="1256" y="293" on="0"/>
        <pt x="1186" y="331" on="1"/>
        <pt x="1121" y="256" on="0"/>
        <pt x="969" y="111" on="0"/>
        <pt x="795" y="-4" on="0"/>
        <pt x="600" y="-75" on="0"/>
        <pt x="492" y="-75" on="1"/>
        <pt x="396" y="-75" on="0"/>
        <pt x="205" y="-18" on="0"/>
        <pt x="54" y="91" on="0"/>
        <pt x="-40" y="248" on="0"/>
        <pt x="-40" y="348" on="1"/>
        <pt x="-40" y="427" on="0"/>
        <pt x="19" y="547" on="0"/>
        <pt x="122" y="627" on="0"/>
        <pt x="261" y="668" on="0"/>
        <pt x="341" y="668" on="1"/>
        <pt x="402" y="668" on="0"/>
        <pt x="533" y="644" on="0"/>
        <pt x="657" y="588" on="0"/>
        <pt x="767" y="496" on="0"/>
        <pt x="806" y="428" on="1"/>
        <pt x="762" y="400" on="1"/>
        <pt x="761" y="402" on="0"/>
        <pt x="740" y="429" on="0"/>
        <pt x="699" y="468" on="0"/>
        <pt x="635" y="512" on="0"/>
        <pt x="546" y="549" on="0"/>
        <pt x="429" y="574" on="0"/>
        <pt x="355" y="574" on="1"/>
        <pt x="280" y="574" on="0"/>
        <pt x="168" y="523" on="0"/>
        <pt x="93" y="444" on="0"/>
        <pt x="56" y="346" on="0"/>
        <pt x="56" y="300" on="1"/>
        <pt x="56" y="246" on="0"/>
        <pt x="94" y="157" on="0"/>
        <pt x="159" y="85" on="0"/>
        <pt x="246" y="32" on="0"/>
        <pt x="343" y="-4" on="0"/>
        <pt x="444" y="-22" on="0"/>
        <pt x="492" y="-22" on="1"/>
        <pt x="591" y="-22" on="0"/>
        <pt x="773" y="43" on="0"/>
        <pt x="935" y="150" on="0"/>
        <pt x="1078" y="286" on="0"/>
        <pt x="1139" y="357" on="1"/>
        <pt x="1071" y="398" on="0"/>
        <pt x="956" y="493" on="0"/>
        <pt x="872" y="602" on="0"/>
        <pt x="825" y="727" on="0"/>
        <pt x="825" y="797" on="1"/>
        <pt x="825" y="855" on="0"/>
        <pt x="868" y="957" on="0"/>
        <pt x="943" y="1034" on="0"/>
        <pt x="1046" y="1079" on="0"/>
        <pt x="1105" y="1079" on="1"/>
        <pt x="1171" y="1079" on="0"/>
        <pt x="1289" y="1038" on="0"/>
        <pt x="1395" y="967" on="0"/>
        <pt x="1488" y="869" on="0"/>
        <pt x="1529" y="812" on="1"/>
        <pt x="1641" y="937" on="0"/>
        <pt x="1864" y="1158" on="0"/>
        <pt x="2070" y="1324" on="0"/>
        <pt x="2253" y="1421" on="0"/>
      </contour>
      <contour>
        <pt x="1560" y="766" on="1"/>
        <pt x="1607" y="694" on="0"/>
        <pt x="1685" y="540" on="0"/>
        <pt x="1748" y="392" on="0"/>
        <pt x="1797" y="259" on="0"/>
        <pt x="1815" y="208" on="1"/>
        <pt x="1932" y="463" on="0"/>
        <pt x="2198" y="953" on="0"/>
        <pt x="2364" y="1192" on="1"/>
        <pt x="2391" y="1232" on="0"/>
        <pt x="2414" y="1285" on="0"/>
        <pt x="2414" y="1304" on="1"/>
        <pt x="2414" y="1336" on="0"/>
        <pt x="2360" y="1369" on="0"/>
        <pt x="2325" y="1369" on="1"/>
        <pt x="2214" y="1369" on="0"/>
        <pt x="1831" y="1066" on="0"/>
      </contour>
      <contour>
        <pt x="916" y="749" on="1"/>
        <pt x="916" y="696" on="0"/>
        <pt x="956" y="601" on="0"/>
        <pt x="1026" y="514" on="0"/>
        <pt x="1122" y="437" on="0"/>
        <pt x="1178" y="403" on="1"/>
        <pt x="1253" y="494" on="0"/>
        <pt x="1409" y="678" on="0"/>
        <pt x="1489" y="768" on="1"/>
        <pt x="1454" y="814" on="0"/>
        <pt x="1379" y="893" on="0"/>
        <pt x="1297" y="951" on="0"/>
        <pt x="1209" y="983" on="0"/>
        <pt x="1162" y="983" on="1"/>
        <pt x="1109" y="983" on="0"/>
        <pt x="1019" y="947" on="0"/>
        <pt x="953" y="884" on="0"/>
        <pt x="916" y="799" on="0"/>
      </contour>
      <contour>
        <pt x="1771" y="179" on="1"/>
        <pt x="1757" y="224" on="0"/>
        <pt x="1710" y="352" on="0"/>
        <pt x="1647" y="499" on="0"/>
        <pt x="1568" y="653" on="0"/>
        <pt x="1521" y="723" on="1"/>
        <pt x="1452" y="645" on="0"/>
        <pt x="1304" y="473" on="0"/>
        <pt x="1224" y="376" on="1"/>
        <pt x="1294" y="337" on="0"/>
        <pt x="1447" y="274" on="0"/>
        <pt x="1592" y="225" on="0"/>
        <pt x="1723" y="189" on="0"/>
      </contour>
    </TTGlyph>
    <TTGlyph name="AE" xMin="-40" yMin="-195" xMax="3400" yMax="1431">
      <contour>
        <pt x="2872" y="933" on="1"/>
        <pt x="2875" y="932" on="0"/>
        <pt x="2880" y="932" on="1"/>
        <pt x="2904" y="932" on="1"/>
        <pt x="2982" y="932" on="0"/>
        <pt x="3140" y="974" on="0"/>
        <pt x="3268" y="1049" on="0"/>
        <pt x="3348" y="1154" on="0"/>
        <pt x="3348" y="1217" on="1"/>
        <pt x="3348" y="1251" on="0"/>
        <pt x="3318" y="1304" on="0"/>
        <pt x="3265" y="1340" on="0"/>
        <pt x="3190" y="1359" on="0"/>
        <pt x="3145" y="1359" on="1"/>
        <pt x="3066" y="1359" on="0"/>
        <pt x="2916" y="1319" on="0"/>
        <pt x="2784" y="1250" on="0"/>
        <pt x="2674" y="1157" on="0"/>
        <pt x="2594" y="1048" on="0"/>
        <pt x="2550" y="930" on="0"/>
        <pt x="2550" y="871" on="1"/>
        <pt x="2550" y="812" on="0"/>
        <pt x="2572" y="759" on="1"/>
        <pt x="2641" y="757" on="0"/>
        <pt x="2761" y="741" on="0"/>
        <pt x="2849" y="708" on="0"/>
        <pt x="2899" y="656" on="0"/>
        <pt x="2899" y="619" on="1"/>
        <pt x="2899" y="579" on="0"/>
        <pt x="2839" y="537" on="0"/>
        <pt x="2794" y="537" on="1"/>
        <pt x="2758" y="537" on="0"/>
        <pt x="2682" y="561" on="0"/>
        <pt x="2611" y="604" on="0"/>
        <pt x="2546" y="665" on="0"/>
        <pt x="2520" y="702" on="1"/>
        <pt x="2409" y="693" on="0"/>
        <pt x="2220" y="608" on="0"/>
        <pt x="2083" y="473" on="0"/>
        <pt x="2005" y="298" on="0"/>
        <pt x="2005" y="201" on="1"/>
        <pt x="2005" y="122" on="0"/>
        <pt x="2058" y="-5" on="0"/>
        <pt x="2163" y="-95" on="0"/>
        <pt x="2320" y="-143" on="0"/>
        <pt x="2423" y="-143" on="1"/>
        <pt x="2537" y="-143" on="0"/>
        <pt x="2742" y="-74" on="0"/>
        <pt x="2916" y="32" on="0"/>
        <pt x="3058" y="159" on="0"/>
        <pt x="3163" y="273" on="0"/>
        <pt x="3227" y="360" on="0"/>
        <pt x="3237" y="373" on="1"/>
        <pt x="3273" y="345" on="1"/>
        <pt x="3250" y="312" on="0"/>
        <pt x="3172" y="205" on="0"/>
        <pt x="3061" y="85" on="0"/>
        <pt x="2916" y="-36" on="0"/>
        <pt x="2737" y="-134" on="0"/>
        <pt x="2525" y="-195" on="0"/>
        <pt x="2402" y="-195" on="1"/>
        <pt x="2293" y="-195" on="0"/>
        <pt x="2122" y="-150" on="0"/>
        <pt x="1998" y="-70" on="0"/>
        <pt x="1917" y="37" on="0"/>
        <pt x="1898" y="100" on="1"/>
        <pt x="1868" y="30" on="0"/>
        <pt x="1835" y="-49" on="0"/>
        <pt x="1835" y="-51" on="1"/>
        <pt x="1716" y="-14" on="1"/>
        <pt x="1776" y="123" on="1"/>
        <pt x="1709" y="138" on="0"/>
        <pt x="1561" y="178" on="0"/>
        <pt x="1408" y="229" on="0"/>
        <pt x="1256" y="293" on="0"/>
        <pt x="1186" y="331" on="1"/>
        <pt x="1121" y="256" on="0"/>
        <pt x="969" y="111" on="0"/>
        <pt x="795" y="-4" on="0"/>
        <pt x="600" y="-75" on="0"/>
        <pt x="492" y="-75" on="1"/>
        <pt x="396" y="-75" on="0"/>
        <pt x="205" y="-18" on="0"/>
        <pt x="54" y="91" on="0"/>
        <pt x="-40" y="248" on="0"/>
        <pt x="-40" y="348" on="1"/>
        <pt x="-40" y="427" on="0"/>
        <pt x="19" y="547" on="0"/>
        <pt x="122" y="627" on="0"/>
        <pt x="261" y="668" on="0"/>
        <pt x="341" y="668" on="1"/>
        <pt x="402" y="668" on="0"/>
        <pt x="533" y="644" on="0"/>
        <pt x="657" y="588" on="0"/>
        <pt x="767" y="496" on="0"/>
        <pt x="806" y="428" on="1"/>
        <pt x="762" y="400" on="1"/>
        <pt x="761" y="402" on="0"/>
        <pt x="740" y="429" on="0"/>
        <pt x="699" y="468" on="0"/>
        <pt x="635" y="512" on="0"/>
        <pt x="546" y="549" on="0"/>
        <pt x="429" y="574" on="0"/>
        <pt x="355" y="574" on="1"/>
        <pt x="280" y="574" on="0"/>
        <pt x="168" y="523" on="0"/>
        <pt x="93" y="444" on="0"/>
        <pt x="56" y="346" on="0"/>
        <pt x="56" y="300" on="1"/>
        <pt x="56" y="246" on="0"/>
        <pt x="94" y="157" on="0"/>
        <pt x="159" y="85" on="0"/>
        <pt x="246" y="32" on="0"/>
        <pt x="343" y="-4" on="0"/>
        <pt x="444" y="-22" on="0"/>
        <pt x="492" y="-22" on="1"/>
        <pt x="591" y="-22" on="0"/>
        <pt x="773" y="43" on="0"/>
        <pt x="935" y="150" on="0"/>
        <pt x="1078" y="286" on="0"/>
        <pt x="1139" y="357" on="1"/>
        <pt x="1071" y="398" on="0"/>
        <pt x="956" y="493" on="0"/>
        <pt x="872" y="602" on="0"/>
        <pt x="825" y="727" on="0"/>
        <pt x="825" y="797" on="1"/>
        <pt x="825" y="855" on="0"/>
        <pt x="868" y="957" on="0"/>
        <pt x="943" y="1034" on="0"/>
        <pt x="1046" y="1079" on="0"/>
        <pt x="1105" y="1079" on="1"/>
        <pt x="1171" y="1079" on="0"/>
        <pt x="1289" y="1038" on="0"/>
        <pt x="1395" y="967" on="0"/>
        <pt x="1488" y="869" on="0"/>
        <pt x="1529" y="812" on="1"/>
        <pt x="1641" y="937" on="0"/>
        <pt x="1864" y="1158" on="0"/>
        <pt x="2070" y="1324" on="0"/>
        <pt x="2253" y="1421" on="0"/>
        <pt x="2327" y="1421" on="1"/>
        <pt x="2356" y="1421" on="0"/>
        <pt x="2411" y="1402" on="0"/>
        <pt x="2454" y="1367" on="0"/>
        <pt x="2480" y="1316" on="0"/>
        <pt x="2480" y="1284" on="1"/>
        <pt x="2480" y="1222" on="0"/>
        <pt x="2400" y="1064" on="0"/>
        <pt x="2336" y="958" on="1"/>
        <pt x="2294" y="889" on="0"/>
        <pt x="2217" y="754" on="0"/>
        <pt x="2182" y="688" on="1"/>
        <pt x="2244" y="718" on="0"/>
        <pt x="2395" y="754" on="0"/>
        <pt x="2486" y="759" on="1"/>
        <pt x="2468" y="795" on="0"/>
        <pt x="2448" y="874" on="0"/>
        <pt x="2448" y="916" on="1"/>
        <pt x="2448" y="993" on="0"/>
        <pt x="2500" y="1130" on="0"/>
        <pt x="2591" y="1245" on="0"/>
        <pt x="2714" y="1335" on="0"/>
        <pt x="2854" y="1398" on="0"/>
        <pt x="3005" y="1431" on="0"/>
        <pt x="3079" y="1431" on="1"/>
        <pt x="3155" y="1431" on="0"/>
        <pt x="3274" y="1400" on="0"/>
        <pt x="3356" y="1344" on="0"/>
        <pt x="3400" y="1265" on="0"/>
        <pt x="3400" y="1218" on="1"/>
        <pt x="3400" y="1166" on="0"/>
        <pt x="3357" y="1074" on="0"/>
        <pt x="3284" y="999" on="0"/>
        <pt x="3187" y="940" on="0"/>
        <pt x="3078" y="900" on="0"/>
        <pt x="2962" y="879" on="0"/>
        <pt x="2908" y="879" on="1"/>
        <pt x="2890" y="879" on="0"/>
        <pt x="2868" y="881" on="0"/>
        <pt x="2866" y="881" on="1"/>
      </contour>
      <contour>
        <pt x="1560" y="766" on="1"/>
        <pt x="1607" y="694" on="0"/>
        <pt x="1685" y="540" on="0"/>
        <pt x="1748" y="392" on="0"/>
        <pt x="1797" y="259" on="0"/>
        <pt x="1815" y="208" on="1"/>
        <pt x="1932" y="463" on="0"/>
        <pt x="2198" y="953" on="0"/>
        <pt x="2364" y="1192" on="1"/>
        <pt x="2391" y="1232" on="0"/>
        <pt x="2414" y="1285" on="0"/>
        <pt x="2414" y="1304" on="1"/>
        <pt x="2414" y="1336" on="0"/>
        <pt x="2360" y="1369" on="0"/>
        <pt x="2325" y="1369" on="1"/>
        <pt x="2214" y="1369" on="0"/>
        <pt x="1831" y="1066" on="0"/>
      </contour>
      <contour>
        <pt x="916" y="749" on="1"/>
        <pt x="916" y="696" on="0"/>
        <pt x="956" y="601" on="0"/>
        <pt x="1026" y="514" on="0"/>
        <pt x="1122" y="437" on="0"/>
        <pt x="1178" y="403" on="1"/>
        <pt x="1253" y="494" on="0"/>
        <pt x="1409" y="678" on="0"/>
        <pt x="1489" y="768" on="1"/>
        <pt x="1454" y="814" on="0"/>
        <pt x="1379" y="893" on="0"/>
        <pt x="1297" y="951" on="0"/>
        <pt x="1209" y="983" on="0"/>
        <pt x="1162" y="983" on="1"/>
        <pt x="1109" y="983" on="0"/>
        <pt x="1019" y="947" on="0"/>
        <pt x="953" y="884" on="0"/>
        <pt x="916" y="799" on="0"/>
      </contour>
      <contour>
        <pt x="1771" y="179" on="1"/>
        <pt x="1757" y="224" on="0"/>
        <pt x="1710" y="352" on="0"/>
        <pt x="1647" y="499" on="0"/>
        <pt x="1568" y="653" on="0"/>
        <pt x="1521" y="723" on="1"/>
        <pt x="1452" y="645" on="0"/>
        <pt x="1304" y="473" on="0"/>
        <pt x="1224" y="376" on="1"/>
        <pt x="1294" y="337" on="0"/>
        <pt x="1447" y="274" on="0"/>
        <pt x="1592" y="225" on="0"/>
        <pt x="1723" y="189" on="0"/>
      </contour>
      <contour>
        <pt x="2846" y="621" on="1"/>
        <pt x="2846" y="645" on="0"/>
        <pt x="2803" y="676" on="0"/>
        <pt x="2734" y="694" on="0"/>
        <pt x="2647" y="703" on="0"/>
        <pt x="2602" y="704" on="1"/>
        <pt x="2621" y="676" on="0"/>
        <pt x="2668" y="633" on="0"/>
        <pt x="2718" y="603" on="0"/>
        <pt x="2769" y="587" on="0"/>
        <pt x="2792" y="587" on="1"/>
        <pt x="2819" y="587" on="0"/>
        <pt x="2846" y="607" on="0"/>
      </contour>
    </TTGlyph>
    <TTGlyph name="AEacute" xMin="-40" yMin="-195" xMax="3400" yMax="1725">
      <component glyphName="AE" x="0" y="0" flags="0x204"/>
      <component glyphName="acute" x="2425" y="675" flags="0x4"/>
    </TTGlyph>
    <TTGlyph name="Aacute" xMin="-40" yMin="-75" xMax="2594" yMax="1715">
      <component glyphName="A" x="0" y="0" flags="0x204"/>
      <component glyphName="acute" x="2088" y="665" flags="0x4"/>
    </TTGlyph>
    <TTGlyph name="Abreve" xMin="-40" yMin="-75" xMax="2644" yMax="1724">
      <component glyphName="A" x="0" y="0" flags="0x204"/>
      <component glyphName="breve" x="2082" y="665" flags="0x4"/>
    </TTGlyph>
    <TTGlyph name="Acircumflex" xMin="-40" yMin="-75" xMax="2543" yMax="1715">
      <component glyphName="A" x="0" y="0" flags="0x204"/>
      <component glyphName="circumflex" x="2088" y="665" flags="0x4"/>
    </TTGlyph>
    <TTGlyph name="Adieresis" xMin="-40" yMin="-75" xMax="2588" yMax="1689">
      <component glyphName="A" x="0" y="0" flags="0x204"/>
      <component glyphName="dieresis" x="2089" y="665" flags="0x4"/>
    </TTGlyph>
    <TTGlyph name="Agrave" xMin="-40" yMin="-75" xMax="2480" yMax="1715">
      <component glyphName="A" x="0" y="0" flags="0x204"/>
      <component glyphName="grave" x="2088" y="665" flags="0x4"/>
    </TTGlyph>
    <TTGlyph name="Amacron" xMin="-40" yMin="-75" xMax="2613" yMax="1659">
      <component glyphName="A" x="0" y="0" flags="0x204"/>
      <component glyphName="macron" x="2089" y="665" flags="0x4"/>
    </TTGlyph>
    <TTGlyph name="Aogonek" xMin="-40" yMin="-327" xMax="2480" yMax="1421">
      <contour>
        <pt x="1808" y="-304" on="1"/>
        <pt x="1792" y="-311" on="0"/>
        <pt x="1747" y="-327" on="0"/>
        <pt x="1713" y="-327" on="1"/>
        <pt x="1651" y="-327" on="0"/>
        <pt x="1589" y="-268" on="0"/>
        <pt x="1589" y="-227" on="1"/>
        <pt x="1589" y="-190" on="0"/>
        <pt x="1630" y="-129" on="0"/>
        <pt x="1690" y="-80" on="0"/>
        <pt x="1757" y="-45" on="0"/>
        <pt x="1783" y="-35" on="1"/>
        <pt x="1716" y="-14" on="1"/>
        <pt x="1731" y="21" on="0"/>
        <pt x="1761" y="89" on="0"/>
        <pt x="1776" y="123" on="1"/>
        <pt x="1709" y="138" on="0"/>
        <pt x="1561" y="178" on="0"/>
        <pt x="1408" y="229" on="0"/>
        <pt x="1256" y="293" on="0"/>
        <pt x="1186" y="331" on="1"/>
        <pt x="1121" y="256" on="0"/>
        <pt x="969" y="111" on="0"/>
        <pt x="795" y="-4" on="0"/>
        <pt x="600" y="-75" on="0"/>
        <pt x="492" y="-75" on="1"/>
        <pt x="396" y="-75" on="0"/>
        <pt x="205" y="-18" on="0"/>
        <pt x="54" y="91" on="0"/>
        <pt x="-40" y="248" on="0"/>
        <pt x="-40" y="348" on="1"/>
        <pt x="-40" y="427" on="0"/>
        <pt x="19" y="547" on="0"/>
        <pt x="122" y="627" on="0"/>
        <pt x="261" y="668" on="0"/>
        <pt x="341" y="668" on="1"/>
        <pt x="402" y="668" on="0"/>
        <pt x="533" y="644" on="0"/>
        <pt x="657" y="588" on="0"/>
        <pt x="767" y="496" on="0"/>
        <pt x="806" y="428" on="1"/>
        <pt x="762" y="400" on="1"/>
        <pt x="761" y="402" on="0"/>
        <pt x="740" y="429" on="0"/>
        <pt x="699" y="468" on="0"/>
        <pt x="635" y="512" on="0"/>
        <pt x="546" y="549" on="0"/>
        <pt x="429" y="574" on="0"/>
        <pt x="355" y="574" on="1"/>
        <pt x="280" y="574" on="0"/>
        <pt x="168" y="523" on="0"/>
        <pt x="93" y="444" on="0"/>
        <pt x="56" y="346" on="0"/>
        <pt x="56" y="300" on="1"/>
        <pt x="56" y="246" on="0"/>
        <pt x="94" y="157" on="0"/>
        <pt x="159" y="85" on="0"/>
        <pt x="246" y="32" on="0"/>
        <pt x="343" y="-4" on="0"/>
        <pt x="444" y="-22" on="0"/>
        <pt x="492" y="-22" on="1"/>
        <pt x="591" y="-22" on="0"/>
        <pt x="773" y="43" on="0"/>
        <pt x="935" y="150" on="0"/>
        <pt x="1078" y="286" on="0"/>
        <pt x="1139" y="357" on="1"/>
        <pt x="1071" y="398" on="0"/>
        <pt x="956" y="493" on="0"/>
        <pt x="872" y="602" on="0"/>
        <pt x="825" y="727" on="0"/>
        <pt x="825" y="797" on="1"/>
        <pt x="825" y="855" on="0"/>
        <pt x="868" y="957" on="0"/>
        <pt x="943" y="1034" on="0"/>
        <pt x="1046" y="1079" on="0"/>
        <pt x="1105" y="1079" on="1"/>
        <pt x="1171" y="1079" on="0"/>
        <pt x="1289" y="1038" on="0"/>
        <pt x="1395" y="967" on="0"/>
        <pt x="1488" y="869" on="0"/>
        <pt x="1529" y="812" on="1"/>
        <pt x="1641" y="937" on="0"/>
        <pt x="1864" y="1158" on="0"/>
        <pt x="2070" y="1324" on="0"/>
        <pt x="2253" y="1421" on="0"/>
        <pt x="2327" y="1421" on="1"/>
        <pt x="2356" y="1421" on="0"/>
        <pt x="2411" y="1402" on="0"/>
        <pt x="2454" y="1367" on="0"/>
        <pt x="2480" y="1316" on="0"/>
        <pt x="2480" y="1284" on="1"/>
        <pt x="2480" y="1222" on="0"/>
        <pt x="2400" y="1064" on="0"/>
        <pt x="2336" y="958" on="1"/>
        <pt x="2267" y="845" on="0"/>
        <pt x="2145" y="620" on="0"/>
        <pt x="2040" y="411" on="0"/>
        <pt x="1953" y="226" on="0"/>
        <pt x="1921" y="153" on="1"/>
        <pt x="1961" y="148" on="0"/>
        <pt x="2041" y="142" on="0"/>
        <pt x="2073" y="143" on="1"/>
        <pt x="2075" y="91" on="1"/>
        <pt x="2068" y="91" on="0"/>
        <pt x="1977" y="92" on="0"/>
        <pt x="1899" y="103" on="1"/>
        <pt x="1868" y="31" on="0"/>
        <pt x="1835" y="-49" on="0"/>
        <pt x="1835" y="-51" on="1"/>
        <pt x="1821" y="-58" on="0"/>
        <pt x="1769" y="-83" on="0"/>
        <pt x="1717" y="-123" on="0"/>
        <pt x="1678" y="-177" on="0"/>
        <pt x="1678" y="-212" on="1"/>
        <pt x="1678" y="-244" on="0"/>
        <pt x="1724" y="-277" on="0"/>
        <pt x="1753" y="-277" on="1"/>
        <pt x="1774" y="-277" on="0"/>
        <pt x="1810" y="-265" on="0"/>
        <pt x="1818" y="-262" on="1"/>
      </contour>
      <contour>
        <pt x="1560" y="766" on="1"/>
        <pt x="1607" y="694" on="0"/>
        <pt x="1685" y="540" on="0"/>
        <pt x="1748" y="392" on="0"/>
        <pt x="1797" y="259" on="0"/>
        <pt x="1815" y="208" on="1"/>
        <pt x="1932" y="463" on="0"/>
        <pt x="2198" y="953" on="0"/>
        <pt x="2364" y="1192" on="1"/>
        <pt x="2391" y="1232" on="0"/>
        <pt x="2414" y="1285" on="0"/>
        <pt x="2414" y="1304" on="1"/>
        <pt x="2414" y="1336" on="0"/>
        <pt x="2360" y="1369" on="0"/>
        <pt x="2325" y="1369" on="1"/>
        <pt x="2214" y="1369" on="0"/>
        <pt x="1831" y="1066" on="0"/>
      </contour>
      <contour>
        <pt x="916" y="749" on="1"/>
        <pt x="916" y="696" on="0"/>
        <pt x="956" y="601" on="0"/>
        <pt x="1026" y="514" on="0"/>
        <pt x="1122" y="437" on="0"/>
        <pt x="1178" y="403" on="1"/>
        <pt x="1253" y="494" on="0"/>
        <pt x="1409" y="678" on="0"/>
        <pt x="1489" y="768" on="1"/>
        <pt x="1454" y="814" on="0"/>
        <pt x="1379" y="893" on="0"/>
        <pt x="1297" y="951" on="0"/>
        <pt x="1209" y="983" on="0"/>
        <pt x="1162" y="983" on="1"/>
        <pt x="1109" y="983" on="0"/>
        <pt x="1019" y="947" on="0"/>
        <pt x="953" y="884" on="0"/>
        <pt x="916" y="799" on="0"/>
      </contour>
      <contour>
        <pt x="1771" y="179" on="1"/>
        <pt x="1757" y="224" on="0"/>
        <pt x="1710" y="352" on="0"/>
        <pt x="1647" y="499" on="0"/>
        <pt x="1568" y="653" on="0"/>
        <pt x="1521" y="723" on="1"/>
        <pt x="1452" y="645" on="0"/>
        <pt x="1304" y="473" on="0"/>
        <pt x="1224" y="376" on="1"/>
        <pt x="1294" y="337" on="0"/>
        <pt x="1447" y="274" on="0"/>
        <pt x="1592" y="225" on="0"/>
        <pt x="1723" y="189" on="0"/>
      </contour>
    </TTGlyph>
    <TTGlyph name="Aring" xMin="-40" yMin="-75" xMax="2520" yMax="1743">
      <component glyphName="A" x="0" y="0" flags="0x204"/>
      <component glyphName="ring" x="2089" y="665" flags="0x4"/>
    </TTGlyph>
    <TTGlyph name="Atilde" xMin="-40" yMin="-75" xMax="2646" yMax="1719">
      <component glyphName="A" x="0" y="0" flags="0x204"/>
      <component glyphName="tilde" x="2088" y="665" flags="0x4"/>
    </TTGlyph>
    <TTGlyph name="B" xMin="50" yMin="-185" xMax="1938" yMax="1473">
      <contour>
        <pt x="1681" y="1438" on="1"/>
        <pt x="1665" y="1418" on="0"/>
        <pt x="1636" y="1381" on="0"/>
        <pt x="1622" y="1361" on="1"/>
        <pt x="1723" y="1324" on="0"/>
        <pt x="1847" y="1215" on="0"/>
        <pt x="1915" y="1096" on="0"/>
        <pt x="1938" y="981" on="0"/>
        <pt x="1938" y="939" on="1"/>
        <pt x="1938" y="880" on="0"/>
        <pt x="1899" y="773" on="0"/>
        <pt x="1834" y="685" on="0"/>
        <pt x="1748" y="620" on="0"/>
        <pt x="1701" y="603" on="1"/>
        <pt x="1798" y="523" on="0"/>
        <pt x="1893" y="327" on="0"/>
        <pt x="1893" y="227" on="1"/>
        <pt x="1893" y="143" on="0"/>
        <pt x="1824" y="-7" on="0"/>
        <pt x="1706" y="-119" on="0"/>
        <pt x="1545" y="-185" on="0"/>
        <pt x="1454" y="-185" on="1"/>
        <pt x="1375" y="-185" on="0"/>
        <pt x="1242" y="-134" on="0"/>
        <pt x="1137" y="-46" on="0"/>
        <pt x="1060" y="74" on="0"/>
        <pt x="1038" y="142" on="1"/>
        <pt x="1088" y="157" on="1"/>
        <pt x="1125" y="37" on="0"/>
        <pt x="1295" y="-94" on="0"/>
        <pt x="1415" y="-94" on="1"/>
        <pt x="1489" y="-94" on="0"/>
        <pt x="1624" y="-39" on="0"/>
        <pt x="1726" y="56" on="0"/>
        <pt x="1786" y="185" on="0"/>
        <pt x="1786" y="260" on="1"/>
        <pt x="1786" y="311" on="0"/>
        <pt x="1758" y="403" on="0"/>
        <pt x="1712" y="485" on="0"/>
        <pt x="1655" y="554" on="0"/>
        <pt x="1625" y="581" on="1"/>
        <pt x="1598" y="576" on="0"/>
        <pt x="1544" y="570" on="0"/>
        <pt x="1518" y="570" on="1"/>
        <pt x="1482" y="570" on="0"/>
        <pt x="1407" y="581" on="0"/>
        <pt x="1346" y="603" on="0"/>
        <pt x="1307" y="639" on="0"/>
        <pt x="1307" y="665" on="1"/>
        <pt x="1307" y="671" on="0"/>
        <pt x="1313" y="694" on="0"/>
        <pt x="1332" y="716" on="0"/>
        <pt x="1370" y="733" on="0"/>
        <pt x="1403" y="733" on="1"/>
        <pt x="1434" y="733" on="0"/>
        <pt x="1497" y="719" on="0"/>
        <pt x="1555" y="696" on="0"/>
        <pt x="1609" y="667" on="0"/>
        <pt x="1631" y="652" on="1"/>
        <pt x="1667" y="668" on="0"/>
        <pt x="1740" y="723" on="0"/>
        <pt x="1800" y="803" on="0"/>
        <pt x="1838" y="907" on="0"/>
        <pt x="1838" y="972" on="1"/>
        <pt x="1838" y="1086" on="0"/>
        <pt x="1712" y="1268" on="0"/>
        <pt x="1588" y="1316" on="1"/>
        <pt x="1528" y="1232" on="0"/>
        <pt x="1424" y="1066" on="0"/>
        <pt x="1334" y="900" on="0"/>
        <pt x="1255" y="734" on="0"/>
        <pt x="1219" y="649" on="1"/>
        <pt x="1136" y="455" on="0"/>
        <pt x="978" y="180" on="0"/>
        <pt x="799" y="6" on="0"/>
        <pt x="588" y="-75" on="0"/>
        <pt x="452" y="-75" on="1"/>
        <pt x="347" y="-75" on="0"/>
        <pt x="195" y="-6" on="0"/>
        <pt x="97" y="114" on="0"/>
        <pt x="50" y="273" on="0"/>
        <pt x="50" y="363" on="1"/>
        <pt x="50" y="463" on="0"/>
        <pt x="114" y="676" on="0"/>
        <pt x="177" y="782" on="1"/>
        <pt x="217" y="849" on="0"/>
        <pt x="335" y="994" on="0"/>
        <pt x="487" y="1135" on="0"/>
        <pt x="674" y="1262" on="0"/>
        <pt x="891" y="1357" on="0"/>
        <pt x="1138" y="1414" on="0"/>
        <pt x="1275" y="1414" on="1"/>
        <pt x="1359" y="1414" on="0"/>
        <pt x="1498" y="1397" on="0"/>
        <pt x="1557" y="1381" on="1"/>
        <pt x="1580" y="1404" on="0"/>
        <pt x="1627" y="1450" on="0"/>
        <pt x="1652" y="1473" on="1"/>
      </contour>
      <contour>
        <pt x="1283" y="1023" on="1"/>
        <pt x="1336" y="1111" on="0"/>
        <pt x="1451" y="1266" on="0"/>
        <pt x="1517" y="1338" on="1"/>
        <pt x="1479" y="1347" on="0"/>
        <pt x="1394" y="1357" on="0"/>
        <pt x="1347" y="1357" on="1"/>
        <pt x="1196" y="1357" on="0"/>
        <pt x="903" y="1274" on="0"/>
        <pt x="638" y="1126" on="0"/>
        <pt x="412" y="922" on="0"/>
        <pt x="247" y="683" on="0"/>
        <pt x="154" y="417" on="0"/>
        <pt x="154" y="280" on="1"/>
        <pt x="154" y="212" on="0"/>
        <pt x="191" y="101" on="0"/>
        <pt x="265" y="22" on="0"/>
        <pt x="374" y="-21" on="0"/>
        <pt x="445" y="-21" on="1"/>
        <pt x="564" y="-21" on="0"/>
        <pt x="742" y="68" on="0"/>
        <pt x="881" y="222" on="0"/>
        <pt x="993" y="427" on="0"/>
        <pt x="1100" y="659" on="0"/>
        <pt x="1212" y="905" on="0"/>
      </contour>
      <contour>
        <pt x="1563" y="632" on="1"/>
        <pt x="1548" y="643" on="0"/>
        <pt x="1507" y="662" on="0"/>
        <pt x="1463" y="675" on="0"/>
        <pt x="1419" y="683" on="0"/>
        <pt x="1403" y="683" on="1"/>
        <pt x="1375" y="683" on="0"/>
        <pt x="1360" y="670" on="0"/>
        <pt x="1360" y="665" on="1"/>
        <pt x="1360" y="656" on="0"/>
        <pt x="1387" y="642" on="0"/>
        <pt x="1428" y="631" on="0"/>
        <pt x="1478" y="625" on="0"/>
        <pt x="1502" y="625" on="1"/>
        <pt x="1513" y="625" on="0"/>
        <pt x="1541" y="627" on="0"/>
      </contour>
    </TTGlyph>
    <TTGlyph name="C" xMin="40" yMin="-198" xMax="1449" yMax="1505">
      <contour>
        <pt x="640" y="689" on="1"/>
        <pt x="641" y="687" on="0"/>
        <pt x="669" y="664" on="0"/>
        <pt x="720" y="636" on="0"/>
        <pt x="794" y="614" on="0"/>
        <pt x="841" y="614" on="1"/>
        <pt x="920" y="614" on="0"/>
        <pt x="1060" y="674" on="0"/>
        <pt x="1179" y="772" on="0"/>
        <pt x="1274" y="898" on="0"/>
        <pt x="1340" y="1030" on="0"/>
        <pt x="1376" y="1158" on="0"/>
        <pt x="1376" y="1209" on="1"/>
        <pt x="1376" y="1270" on="0"/>
        <pt x="1340" y="1360" on="0"/>
        <pt x="1279" y="1418" on="0"/>
        <pt x="1196" y="1446" on="0"/>
        <pt x="1148" y="1446" on="1"/>
        <pt x="1053" y="1446" on="0"/>
        <pt x="866" y="1379" on="0"/>
        <pt x="690" y="1263" on="0"/>
        <pt x="528" y="1106" on="0"/>
        <pt x="388" y="926" on="0"/>
        <pt x="274" y="731" on="0"/>
        <pt x="193" y="539" on="0"/>
        <pt x="149" y="358" on="0"/>
        <pt x="149" y="282" on="1"/>
        <pt x="149" y="194" on="0"/>
        <pt x="200" y="38" on="0"/>
        <pt x="302" y="-78" on="0"/>
        <pt x="455" y="-145" on="0"/>
        <pt x="557" y="-145" on="1"/>
        <pt x="648" y="-145" on="0"/>
        <pt x="844" y="-89" on="0"/>
        <pt x="1039" y="35" on="0"/>
        <pt x="1229" y="232" on="0"/>
        <pt x="1316" y="373" on="1"/>
        <pt x="1352" y="345" on="1"/>
        <pt x="1258" y="192" on="0"/>
        <pt x="1054" y="-16" on="0"/>
        <pt x="850" y="-143" on="0"/>
        <pt x="652" y="-198" on="0"/>
        <pt x="563" y="-198" on="1"/>
        <pt x="435" y="-198" on="0"/>
        <pt x="239" y="-107" on="0"/>
        <pt x="107" y="41" on="0"/>
        <pt x="40" y="230" on="0"/>
        <pt x="40" y="328" on="1"/>
        <pt x="40" y="412" on="0"/>
        <pt x="87" y="602" on="0"/>
        <pt x="173" y="798" on="0"/>
        <pt x="294" y="994" on="0"/>
        <pt x="443" y="1173" on="0"/>
        <pt x="617" y="1327" on="0"/>
        <pt x="808" y="1440" on="0"/>
        <pt x="1011" y="1505" on="0"/>
        <pt x="1116" y="1505" on="1"/>
        <pt x="1182" y="1505" on="0"/>
        <pt x="1303" y="1468" on="0"/>
        <pt x="1395" y="1388" on="0"/>
        <pt x="1449" y="1263" on="0"/>
        <pt x="1449" y="1175" on="1"/>
        <pt x="1449" y="1116" on="0"/>
        <pt x="1413" y="978" on="0"/>
        <pt x="1344" y="839" on="0"/>
        <pt x="1245" y="709" on="0"/>
        <pt x="1120" y="610" on="0"/>
        <pt x="969" y="550" on="0"/>
        <pt x="884" y="550" on="1"/>
        <pt x="793" y="550" on="0"/>
        <pt x="658" y="611" on="0"/>
        <pt x="610" y="656" on="1"/>
        <pt x="640" y="689" on="1"/>
      </contour>
    </TTGlyph>
    <TTGlyph name="Cacute" xMin="40" yMin="-198" xMax="1449" yMax="1799">
      <component glyphName="C" x="0" y="0" flags="0x204"/>
      <component glyphName="acute" x="881" y="749" flags="0x4"/>
    </TTGlyph>
    <TTGlyph name="Ccaron" xMin="40" yMin="-198" xMax="1449" yMax="1799">
      <component glyphName="C" x="0" y="0" flags="0x204"/>
      <component glyphName="caron" x="853" y="749" flags="0x4"/>
    </TTGlyph>
    <TTGlyph name="Ccedilla" xMin="40" yMin="-484" xMax="1449" yMax="1505">
      <contour>
        <pt x="640" y="689" on="1"/>
        <pt x="641" y="687" on="0"/>
        <pt x="669" y="664" on="0"/>
        <pt x="720" y="636" on="0"/>
        <pt x="794" y="614" on="0"/>
        <pt x="841" y="614" on="1"/>
        <pt x="920" y="614" on="0"/>
        <pt x="1060" y="674" on="0"/>
        <pt x="1179" y="772" on="0"/>
        <pt x="1274" y="898" on="0"/>
        <pt x="1340" y="1030" on="0"/>
        <pt x="1376" y="1158" on="0"/>
        <pt x="1376" y="1209" on="1"/>
        <pt x="1376" y="1270" on="0"/>
        <pt x="1340" y="1360" on="0"/>
        <pt x="1279" y="1418" on="0"/>
        <pt x="1196" y="1446" on="0"/>
        <pt x="1148" y="1446" on="1"/>
        <pt x="1053" y="1446" on="0"/>
        <pt x="866" y="1379" on="0"/>
        <pt x="690" y="1263" on="0"/>
        <pt x="528" y="1106" on="0"/>
        <pt x="388" y="926" on="0"/>
        <pt x="274" y="731" on="0"/>
        <pt x="193" y="539" on="0"/>
        <pt x="149" y="358" on="0"/>
        <pt x="149" y="282" on="1"/>
        <pt x="149" y="194" on="0"/>
        <pt x="200" y="38" on="0"/>
        <pt x="302" y="-78" on="0"/>
        <pt x="455" y="-145" on="0"/>
        <pt x="557" y="-145" on="1"/>
        <pt x="648" y="-145" on="0"/>
        <pt x="844" y="-89" on="0"/>
        <pt x="1039" y="35" on="0"/>
        <pt x="1229" y="232" on="0"/>
        <pt x="1316" y="373" on="1"/>
        <pt x="1352" y="345" on="1"/>
        <pt x="1258" y="192" on="0"/>
        <pt x="1054" y="-16" on="0"/>
        <pt x="850" y="-143" on="0"/>
        <pt x="652" y="-198" on="0"/>
        <pt x="563" y="-198" on="1"/>
        <pt x="552" y="-198" on="0"/>
        <pt x="532" y="-197" on="0"/>
        <pt x="521" y="-196" on="1"/>
        <pt x="476" y="-263" on="1"/>
        <pt x="488" y="-260" on="0"/>
        <pt x="508" y="-259" on="0"/>
        <pt x="518" y="-259" on="1"/>
        <pt x="537" y="-259" on="0"/>
        <pt x="577" y="-270" on="0"/>
        <pt x="610" y="-294" on="0"/>
        <pt x="631" y="-331" on="0"/>
        <pt x="631" y="-356" on="1"/>
        <pt x="631" y="-381" on="0"/>
        <pt x="604" y="-427" on="0"/>
        <pt x="553" y="-463" on="0"/>
        <pt x="482" y="-484" on="0"/>
        <pt x="437" y="-484" on="1"/>
        <pt x="381" y="-484" on="0"/>
        <pt x="305" y="-454" on="0"/>
        <pt x="287" y="-443" on="1"/>
        <pt x="307" y="-405" on="1"/>
        <pt x="329" y="-415" on="0"/>
        <pt x="384" y="-438" on="0"/>
        <pt x="432" y="-438" on="1"/>
        <pt x="453" y="-438" on="0"/>
        <pt x="493" y="-429" on="0"/>
        <pt x="525" y="-411" on="0"/>
        <pt x="545" y="-383" on="0"/>
        <pt x="545" y="-364" on="1"/>
        <pt x="545" y="-348" on="0"/>
        <pt x="532" y="-326" on="0"/>
        <pt x="514" y="-312" on="0"/>
        <pt x="492" y="-307" on="0"/>
        <pt x="483" y="-307" on="1"/>
        <pt x="469" y="-307" on="0"/>
        <pt x="447" y="-312" on="0"/>
        <pt x="438" y="-315" on="1"/>
        <pt x="427" y="-319" on="0"/>
        <pt x="419" y="-322" on="1"/>
        <pt x="400" y="-296" on="1"/>
        <pt x="473" y="-191" on="1"/>
        <pt x="366" y="-175" on="0"/>
        <pt x="205" y="-76" on="0"/>
        <pt x="95" y="66" on="0"/>
        <pt x="40" y="239" on="0"/>
        <pt x="40" y="328" on="1"/>
        <pt x="40" y="412" on="0"/>
        <pt x="87" y="602" on="0"/>
        <pt x="173" y="798" on="0"/>
        <pt x="294" y="994" on="0"/>
        <pt x="443" y="1173" on="0"/>
        <pt x="617" y="1327" on="0"/>
        <pt x="808" y="1440" on="0"/>
        <pt x="1011" y="1505" on="0"/>
        <pt x="1116" y="1505" on="1"/>
        <pt x="1182" y="1505" on="0"/>
        <pt x="1303" y="1468" on="0"/>
        <pt x="1395" y="1388" on="0"/>
        <pt x="1449" y="1263" on="0"/>
        <pt x="1449" y="1175" on="1"/>
        <pt x="1449" y="1116" on="0"/>
        <pt x="1413" y="978" on="0"/>
        <pt x="1344" y="839" on="0"/>
        <pt x="1245" y="709" on="0"/>
        <pt x="1120" y="610" on="0"/>
        <pt x="969" y="550" on="0"/>
        <pt x="884" y="550" on="1"/>
        <pt x="793" y="550" on="0"/>
        <pt x="658" y="611" on="0"/>
        <pt x="610" y="656" on="1"/>
        <pt x="640" y="689" on="1"/>
      </contour>
    </TTGlyph>
    <TTGlyph name="Ccircumflex" xMin="40" yMin="-198" xMax="1449" yMax="1799">
      <component glyphName="C" x="0" y="0" flags="0x204"/>
      <component glyphName="circumflex" x="881" y="749" flags="0x4"/>
    </TTGlyph>
    <TTGlyph name="Cdotaccent" xMin="40" yMin="-198" xMax="1449" yMax="1772">
      <component glyphName="C" x="0" y="0" flags="0x204"/>
      <component glyphName="dotaccent" x="882" y="749" flags="0x4"/>
    </TTGlyph>
    <TTGlyph name="D" xMin="60" yMin="-149" xMax="1900" yMax="1471">
      <contour>
        <pt x="1598" y="1438" on="1"/>
        <pt x="1548" y="1385" on="0"/>
        <pt x="1505" y="1327" on="1"/>
        <pt x="1599" y="1275" on="0"/>
        <pt x="1746" y="1130" on="0"/>
        <pt x="1847" y="956" on="0"/>
        <pt x="1900" y="757" on="0"/>
        <pt x="1900" y="651" on="1"/>
        <pt x="1900" y="557" on="0"/>
        <pt x="1863" y="371" on="0"/>
        <pt x="1784" y="202" on="0"/>
        <pt x="1662" y="57" on="0"/>
        <pt x="1492" y="-50" on="0"/>
        <pt x="1274" y="-111" on="0"/>
        <pt x="1138" y="-111" on="1"/>
        <pt x="1017" y="-111" on="0"/>
        <pt x="799" y="-66" on="0"/>
        <pt x="699" y="-39" on="1"/>
        <pt x="622" y="-91" on="0"/>
        <pt x="439" y="-149" on="0"/>
        <pt x="324" y="-149" on="1"/>
        <pt x="277" y="-149" on="0"/>
        <pt x="209" y="-132" on="0"/>
        <pt x="166" y="-102" on="0"/>
        <pt x="145" y="-63" on="0"/>
        <pt x="145" y="-42" on="1"/>
        <pt x="145" y="-17" on="0"/>
        <pt x="170" y="28" on="0"/>
        <pt x="221" y="62" on="0"/>
        <pt x="300" y="82" on="0"/>
        <pt x="353" y="82" on="1"/>
        <pt x="426" y="82" on="0"/>
        <pt x="571" y="51" on="0"/>
        <pt x="646" y="31" on="1"/>
        <pt x="719" y="97" on="0"/>
        <pt x="840" y="282" on="0"/>
        <pt x="951" y="501" on="0"/>
        <pt x="1058" y="741" on="0"/>
        <pt x="1179" y="983" on="0"/>
        <pt x="1320" y="1215" on="0"/>
        <pt x="1408" y="1317" on="1"/>
        <pt x="1333" y="1349" on="0"/>
        <pt x="1158" y="1384" on="0"/>
        <pt x="1058" y="1384" on="1"/>
        <pt x="936" y="1384" on="0"/>
        <pt x="710" y="1334" on="0"/>
        <pt x="514" y="1246" on="0"/>
        <pt x="352" y="1128" on="0"/>
        <pt x="237" y="991" on="0"/>
        <pt x="174" y="842" on="0"/>
        <pt x="174" y="768" on="1"/>
        <pt x="174" y="720" on="0"/>
        <pt x="212" y="634" on="0"/>
        <pt x="278" y="569" on="0"/>
        <pt x="368" y="531" on="0"/>
        <pt x="421" y="531" on="1"/>
        <pt x="462" y="531" on="0"/>
        <pt x="543" y="550" on="0"/>
        <pt x="617" y="578" on="0"/>
        <pt x="681" y="611" on="0"/>
        <pt x="729" y="640" on="0"/>
        <pt x="756" y="659" on="0"/>
        <pt x="757" y="660" on="1"/>
        <pt x="789" y="618" on="1"/>
        <pt x="742" y="587" on="0"/>
        <pt x="641" y="530" on="0"/>
        <pt x="533" y="485" on="0"/>
        <pt x="417" y="458" on="0"/>
        <pt x="357" y="458" on="1"/>
        <pt x="297" y="458" on="0"/>
        <pt x="189" y="499" on="0"/>
        <pt x="108" y="574" on="0"/>
        <pt x="60" y="678" on="0"/>
        <pt x="60" y="741" on="1"/>
        <pt x="60" y="813" on="0"/>
        <pt x="125" y="971" on="0"/>
        <pt x="246" y="1126" on="0"/>
        <pt x="422" y="1266" on="0"/>
        <pt x="643" y="1373" on="0"/>
        <pt x="908" y="1436" on="0"/>
        <pt x="1058" y="1436" on="1"/>
        <pt x="1167" y="1436" on="0"/>
        <pt x="1360" y="1395" on="0"/>
        <pt x="1444" y="1357" on="1"/>
        <pt x="1501" y="1418" on="0"/>
        <pt x="1567" y="1471" on="1"/>
      </contour>
      <contour>
        <pt x="1791" y="719" on="1"/>
        <pt x="1791" y="812" on="0"/>
        <pt x="1749" y="980" on="0"/>
        <pt x="1668" y="1124" on="0"/>
        <pt x="1550" y="1242" on="0"/>
        <pt x="1474" y="1284" on="1"/>
        <pt x="1401" y="1179" on="0"/>
        <pt x="1281" y="945" on="0"/>
        <pt x="1175" y="705" on="0"/>
        <pt x="1073" y="469" on="0"/>
        <pt x="962" y="254" on="0"/>
        <pt x="832" y="69" on="0"/>
        <pt x="751" y="1" on="1"/>
        <pt x="831" y="-21" on="0"/>
        <pt x="991" y="-54" on="0"/>
        <pt x="1076" y="-54" on="1"/>
        <pt x="1252" y="-54" on="0"/>
        <pt x="1520" y="67" on="0"/>
        <pt x="1700" y="276" on="0"/>
        <pt x="1791" y="558" on="0"/>
      </contour>
      <contour>
        <pt x="320" y="-97" on="1"/>
        <pt x="401" y="-97" on="0"/>
        <pt x="536" y="-52" on="0"/>
        <pt x="594" y="-10" on="1"/>
        <pt x="528" y="7" on="0"/>
        <pt x="408" y="30" on="0"/>
        <pt x="353" y="30" on="1"/>
        <pt x="275" y="30" on="0"/>
        <pt x="198" y="-11" on="0"/>
        <pt x="198" y="-40" on="1"/>
        <pt x="198" y="-63" on="0"/>
        <pt x="253" y="-97" on="0"/>
      </contour>
    </TTGlyph>
    <TTGlyph name="Dcaron" xMin="60" yMin="-149" xMax="1900" yMax="1730">
      <component glyphName="D" x="0" y="0" flags="0x204"/>
      <component glyphName="caron" x="797" y="680" flags="0x4"/>
    </TTGlyph>
    <TTGlyph name="Dcroat" xMin="60" yMin="-149" xMax="1900" yMax="1471">
      <contour>
        <pt x="1598" y="1438" on="1"/>
        <pt x="1548" y="1385" on="0"/>
        <pt x="1505" y="1327" on="1"/>
        <pt x="1599" y="1275" on="0"/>
        <pt x="1746" y="1130" on="0"/>
        <pt x="1847" y="956" on="0"/>
        <pt x="1900" y="757" on="0"/>
        <pt x="1900" y="651" on="1"/>
        <pt x="1900" y="557" on="0"/>
        <pt x="1863" y="371" on="0"/>
        <pt x="1784" y="202" on="0"/>
        <pt x="1662" y="57" on="0"/>
        <pt x="1492" y="-50" on="0"/>
        <pt x="1274" y="-111" on="0"/>
        <pt x="1138" y="-111" on="1"/>
        <pt x="1017" y="-111" on="0"/>
        <pt x="799" y="-66" on="0"/>
        <pt x="699" y="-39" on="1"/>
        <pt x="622" y="-91" on="0"/>
        <pt x="439" y="-149" on="0"/>
        <pt x="324" y="-149" on="1"/>
        <pt x="277" y="-149" on="0"/>
        <pt x="209" y="-132" on="0"/>
        <pt x="166" y="-102" on="0"/>
        <pt x="145" y="-63" on="0"/>
        <pt x="145" y="-42" on="1"/>
        <pt x="145" y="-17" on="0"/>
        <pt x="170" y="28" on="0"/>
        <pt x="221" y="62" on="0"/>
        <pt x="300" y="82" on="0"/>
        <pt x="353" y="82" on="1"/>
        <pt x="426" y="82" on="0"/>
        <pt x="571" y="51" on="0"/>
        <pt x="646" y="31" on="1"/>
        <pt x="709" y="88" on="0"/>
        <pt x="813" y="237" on="0"/>
        <pt x="861" y="327" on="1"/>
        <pt x="582" y="327" on="1"/>
        <pt x="612" y="392" on="1"/>
        <pt x="895" y="392" on="1"/>
        <pt x="950" y="501" on="0"/>
        <pt x="1059" y="742" on="0"/>
        <pt x="1179" y="983" on="0"/>
        <pt x="1320" y="1216" on="0"/>
        <pt x="1408" y="1317" on="1"/>
        <pt x="1333" y="1349" on="0"/>
        <pt x="1158" y="1384" on="0"/>
        <pt x="1058" y="1384" on="1"/>
        <pt x="936" y="1384" on="0"/>
        <pt x="710" y="1334" on="0"/>
        <pt x="514" y="1246" on="0"/>
        <pt x="352" y="1128" on="0"/>
        <pt x="237" y="991" on="0"/>
        <pt x="174" y="842" on="0"/>
        <pt x="174" y="768" on="1"/>
        <pt x="174" y="720" on="0"/>
        <pt x="212" y="634" on="0"/>
        <pt x="278" y="569" on="0"/>
        <pt x="368" y="531" on="0"/>
        <pt x="421" y="531" on="1"/>
        <pt x="462" y="531" on="0"/>
        <pt x="543" y="550" on="0"/>
        <pt x="617" y="578" on="0"/>
        <pt x="681" y="611" on="0"/>
        <pt x="729" y="640" on="0"/>
        <pt x="756" y="659" on="0"/>
        <pt x="757" y="660" on="1"/>
        <pt x="789" y="618" on="1"/>
        <pt x="742" y="587" on="0"/>
        <pt x="641" y="530" on="0"/>
        <pt x="533" y="485" on="0"/>
        <pt x="417" y="458" on="0"/>
        <pt x="357" y="458" on="1"/>
        <pt x="297" y="458" on="0"/>
        <pt x="189" y="499" on="0"/>
        <pt x="108" y="574" on="0"/>
        <pt x="60" y="678" on="0"/>
        <pt x="60" y="741" on="1"/>
        <pt x="60" y="813" on="0"/>
        <pt x="125" y="971" on="0"/>
        <pt x="246" y="1126" on="0"/>
        <pt x="422" y="1266" on="0"/>
        <pt x="643" y="1373" on="0"/>
        <pt x="908" y="1436" on="0"/>
        <pt x="1058" y="1436" on="1"/>
        <pt x="1167" y="1436" on="0"/>
        <pt x="1360" y="1395" on="0"/>
        <pt x="1444" y="1357" on="1"/>
        <pt x="1501" y="1418" on="0"/>
        <pt x="1567" y="1471" on="1"/>
      </contour>
      <contour>
        <pt x="999" y="327" on="1"/>
        <pt x="946" y="230" on="0"/>
        <pt x="826" y="64" on="0"/>
        <pt x="751" y="1" on="1"/>
        <pt x="831" y="-21" on="0"/>
        <pt x="991" y="-54" on="0"/>
        <pt x="1076" y="-54" on="1"/>
        <pt x="1252" y="-54" on="0"/>
        <pt x="1520" y="67" on="0"/>
        <pt x="1700" y="276" on="0"/>
        <pt x="1791" y="558" on="0"/>
        <pt x="1791" y="719" on="1"/>
        <pt x="1791" y="812" on="0"/>
        <pt x="1749" y="980" on="0"/>
        <pt x="1668" y="1124" on="0"/>
        <pt x="1550" y="1242" on="0"/>
        <pt x="1474" y="1284" on="1"/>
        <pt x="1403" y="1182" on="0"/>
        <pt x="1287" y="957" on="0"/>
        <pt x="1184" y="726" on="0"/>
        <pt x="1086" y="497" on="0"/>
        <pt x="1033" y="392" on="1"/>
        <pt x="1348" y="392" on="1"/>
        <pt x="1318" y="327" on="1"/>
      </contour>
      <contour>
        <pt x="320" y="-97" on="1"/>
        <pt x="401" y="-97" on="0"/>
        <pt x="536" y="-52" on="0"/>
        <pt x="594" y="-10" on="1"/>
        <pt x="528" y="7" on="0"/>
        <pt x="408" y="30" on="0"/>
        <pt x="353" y="30" on="1"/>
        <pt x="275" y="30" on="0"/>
        <pt x="198" y="-11" on="0"/>
        <pt x="198" y="-40" on="1"/>
        <pt x="198" y="-63" on="0"/>
        <pt x="253" y="-97" on="0"/>
      </contour>
    </TTGlyph>
    <TTGlyph name="E" xMin="-20" yMin="-195" xMax="1500" yMax="1431">
      <contour>
        <pt x="972" y="933" on="1"/>
        <pt x="975" y="932" on="0"/>
        <pt x="980" y="932" on="1"/>
        <pt x="1004" y="932" on="1"/>
        <pt x="1082" y="932" on="0"/>
        <pt x="1240" y="974" on="0"/>
        <pt x="1368" y="1049" on="0"/>
        <pt x="1448" y="1154" on="0"/>
        <pt x="1448" y="1217" on="1"/>
        <pt x="1448" y="1251" on="0"/>
        <pt x="1418" y="1304" on="0"/>
        <pt x="1365" y="1340" on="0"/>
        <pt x="1290" y="1359" on="0"/>
        <pt x="1245" y="1359" on="1"/>
        <pt x="1166" y="1359" on="0"/>
        <pt x="1016" y="1319" on="0"/>
        <pt x="884" y="1250" on="0"/>
        <pt x="774" y="1157" on="0"/>
        <pt x="694" y="1048" on="0"/>
        <pt x="650" y="930" on="0"/>
        <pt x="650" y="871" on="1"/>
        <pt x="650" y="812" on="0"/>
        <pt x="672" y="759" on="1"/>
        <pt x="741" y="757" on="0"/>
        <pt x="861" y="741" on="0"/>
        <pt x="949" y="708" on="0"/>
        <pt x="999" y="656" on="0"/>
        <pt x="999" y="619" on="1"/>
        <pt x="999" y="579" on="0"/>
        <pt x="939" y="537" on="0"/>
        <pt x="894" y="537" on="1"/>
        <pt x="858" y="537" on="0"/>
        <pt x="782" y="561" on="0"/>
        <pt x="711" y="604" on="0"/>
        <pt x="646" y="665" on="0"/>
        <pt x="620" y="702" on="1"/>
        <pt x="509" y="693" on="0"/>
        <pt x="320" y="608" on="0"/>
        <pt x="183" y="473" on="0"/>
        <pt x="105" y="298" on="0"/>
        <pt x="105" y="201" on="1"/>
        <pt x="105" y="122" on="0"/>
        <pt x="158" y="-5" on="0"/>
        <pt x="263" y="-95" on="0"/>
        <pt x="420" y="-143" on="0"/>
        <pt x="523" y="-143" on="1"/>
        <pt x="637" y="-143" on="0"/>
        <pt x="842" y="-74" on="0"/>
        <pt x="1016" y="32" on="0"/>
        <pt x="1158" y="159" on="0"/>
        <pt x="1263" y="273" on="0"/>
        <pt x="1327" y="360" on="0"/>
        <pt x="1337" y="373" on="1"/>
        <pt x="1373" y="345" on="1"/>
        <pt x="1350" y="312" on="0"/>
        <pt x="1272" y="205" on="0"/>
        <pt x="1161" y="85" on="0"/>
        <pt x="1016" y="-36" on="0"/>
        <pt x="837" y="-134" on="0"/>
        <pt x="625" y="-195" on="0"/>
        <pt x="502" y="-195" on="1"/>
        <pt x="367" y="-195" on="0"/>
        <pt x="171" y="-127" on="0"/>
        <pt x="42" y="-12" on="0"/>
        <pt x="-20" y="139" on="0"/>
        <pt x="-20" y="223" on="1"/>
        <pt x="-20" y="282" on="0"/>
        <pt x="10" y="404" on="0"/>
        <pt x="72" y="520" on="0"/>
        <pt x="170" y="624" on="0"/>
        <pt x="304" y="704" on="0"/>
        <pt x="478" y="754" on="0"/>
        <pt x="586" y="759" on="1"/>
        <pt x="568" y="795" on="0"/>
        <pt x="548" y="874" on="0"/>
        <pt x="548" y="916" on="1"/>
        <pt x="548" y="993" on="0"/>
        <pt x="600" y="1130" on="0"/>
        <pt x="691" y="1245" on="0"/>
        <pt x="814" y="1335" on="0"/>
        <pt x="954" y="1398" on="0"/>
        <pt x="1105" y="1431" on="0"/>
        <pt x="1179" y="1431" on="1"/>
        <pt x="1255" y="1431" on="0"/>
        <pt x="1374" y="1400" on="0"/>
        <pt x="1456" y="1344" on="0"/>
        <pt x="1500" y="1265" on="0"/>
        <pt x="1500" y="1218" on="1"/>
        <pt x="1500" y="1166" on="0"/>
        <pt x="1457" y="1074" on="0"/>
        <pt x="1384" y="999" on="0"/>
        <pt x="1287" y="940" on="0"/>
        <pt x="1178" y="900" on="0"/>
        <pt x="1062" y="879" on="0"/>
        <pt x="1008" y="879" on="1"/>
        <pt x="990" y="879" on="0"/>
        <pt x="968" y="881" on="0"/>
        <pt x="966" y="881" on="1"/>
      </contour>
      <contour>
        <pt x="946" y="621" on="1"/>
        <pt x="946" y="645" on="0"/>
        <pt x="903" y="676" on="0"/>
        <pt x="834" y="694" on="0"/>
        <pt x="747" y="703" on="0"/>
        <pt x="702" y="704" on="1"/>
        <pt x="721" y="676" on="0"/>
        <pt x="768" y="633" on="0"/>
        <pt x="818" y="603" on="0"/>
        <pt x="869" y="587" on="0"/>
        <pt x="892" y="587" on="1"/>
        <pt x="919" y="587" on="0"/>
        <pt x="946" y="607" on="0"/>
      </contour>
    </TTGlyph>
    <TTGlyph name="Eacute" xMin="-20" yMin="-195" xMax="1500" yMax="1725">
      <component glyphName="E" x="0" y="0" flags="0x204"/>
      <component glyphName="acute" x="923" y="675" flags="0x4"/>
    </TTGlyph>
    <TTGlyph name="Ebreve" xMin="-20" yMin="-195" xMax="1500" yMax="1734">
      <component glyphName="E" x="0" y="0" flags="0x204"/>
      <component glyphName="breve" x="917" y="675" flags="0x4"/>
    </TTGlyph>
    <TTGlyph name="Ecaron" xMin="-20" yMin="-195" xMax="1500" yMax="1725">
      <component glyphName="E" x="0" y="0" flags="0x204"/>
      <component glyphName="caron" x="895" y="675" flags="0x4"/>
    </TTGlyph>
    <TTGlyph name="Ecircumflex" xMin="-20" yMin="-195" xMax="1500" yMax="1725">
      <component glyphName="E" x="0" y="0" flags="0x204"/>
      <component glyphName="circumflex" x="923" y="675" flags="0x4"/>
    </TTGlyph>
    <TTGlyph name="Edieresis" xMin="-20" yMin="-195" xMax="1500" yMax="1699">
      <component glyphName="E" x="0" y="0" flags="0x204"/>
      <component glyphName="dieresis" x="924" y="675" flags="0x4"/>
    </TTGlyph>
    <TTGlyph name="Edotaccent" xMin="-20" yMin="-195" xMax="1500" yMax="1698">
      <component glyphName="E" x="0" y="0" flags="0x204"/>
      <component glyphName="dotaccent" x="924" y="675" flags="0x4"/>
    </TTGlyph>
    <TTGlyph name="Egrave" xMin="-20" yMin="-195" xMax="1500" yMax="1725">
      <component glyphName="E" x="0" y="0" flags="0x204"/>
      <component glyphName="grave" x="923" y="675" flags="0x4"/>
    </TTGlyph>
    <TTGlyph name="Emacron" xMin="-20" yMin="-195" xMax="1500" yMax="1669">
      <component glyphName="E" x="0" y="0" flags="0x204"/>
      <component glyphName="macron" x="924" y="675" flags="0x4"/>
    </TTGlyph>
    <TTGlyph name="Eng" xMin="-60" yMin="-765" xMax="2930" yMax="1605">
      <contour>
        <pt x="1571" y="134" on="1"/>
        <pt x="1542" y="222" on="0"/>
        <pt x="1499" y="439" on="0"/>
        <pt x="1499" y="568" on="1"/>
        <pt x="1499" y="646" on="0"/>
        <pt x="1519" y="821" on="0"/>
        <pt x="1553" y="1001" on="0"/>
        <pt x="1597" y="1180" on="0"/>
        <pt x="1621" y="1262" on="1"/>
        <pt x="1536" y="1135" on="0"/>
        <pt x="1395" y="877" on="0"/>
        <pt x="1269" y="629" on="0"/>
        <pt x="1151" y="396" on="0"/>
        <pt x="1027" y="192" on="0"/>
        <pt x="889" y="22" on="0"/>
        <pt x="724" y="-99" on="0"/>
        <pt x="524" y="-166" on="0"/>
        <pt x="400" y="-166" on="1"/>
        <pt x="306" y="-166" on="0"/>
        <pt x="139" y="-114" on="0"/>
        <pt x="13" y="-20" on="0"/>
        <pt x="-60" y="114" on="0"/>
        <pt x="-60" y="195" on="1"/>
        <pt x="-60" y="287" on="0"/>
        <pt x="19" y="432" on="0"/>
        <pt x="149" y="531" on="0"/>
        <pt x="319" y="583" on="0"/>
        <pt x="410" y="583" on="1"/>
        <pt x="462" y="583" on="0"/>
        <pt x="569" y="569" on="0"/>
        <pt x="672" y="537" on="0"/>
        <pt x="768" y="484" on="0"/>
        <pt x="809" y="445" on="1"/>
        <pt x="770" y="410" on="1"/>
        <pt x="770" y="410" on="0"/>
        <pt x="727" y="447" on="0"/>
        <pt x="642" y="491" on="0"/>
        <pt x="512" y="528" on="0"/>
        <pt x="425" y="528" on="1"/>
        <pt x="355" y="528" on="0"/>
        <pt x="223" y="488" on="0"/>
        <pt x="120" y="410" on="0"/>
        <pt x="58" y="296" on="0"/>
        <pt x="58" y="221" on="1"/>
        <pt x="58" y="144" on="0"/>
        <pt x="124" y="23" on="0"/>
        <pt x="234" y="-60" on="0"/>
        <pt x="374" y="-103" on="0"/>
        <pt x="448" y="-103" on="1"/>
        <pt x="558" y="-103" on="0"/>
        <pt x="737" y="-30" on="0"/>
        <pt x="890" y="102" on="0"/>
        <pt x="1023" y="286" on="0"/>
        <pt x="1149" y="508" on="0"/>
        <pt x="1277" y="761" on="0"/>
        <pt x="1419" y="1031" on="0"/>
        <pt x="1583" y="1311" on="0"/>
        <pt x="1682" y="1449" on="1"/>
        <pt x="1728" y="1425" on="1"/>
        <pt x="1678" y="1280" on="0"/>
        <pt x="1636" y="967" on="0"/>
        <pt x="1622" y="649" on="0"/>
        <pt x="1622" y="337" on="0"/>
        <pt x="1615" y="193" on="1"/>
        <pt x="1649" y="280" on="0"/>
        <pt x="1746" y="501" on="0"/>
        <pt x="1862" y="742" on="0"/>
        <pt x="1994" y="989" on="0"/>
        <pt x="2133" y="1216" on="0"/>
        <pt x="2274" y="1408" on="0"/>
        <pt x="2342" y="1474" on="1"/>
        <pt x="2417" y="1546" on="0"/>
        <pt x="2568" y="1605" on="0"/>
        <pt x="2637" y="1605" on="1"/>
        <pt x="2705" y="1605" on="0"/>
        <pt x="2814" y="1560" on="0"/>
        <pt x="2890" y="1487" on="0"/>
        <pt x="2930" y="1391" on="0"/>
        <pt x="2930" y="1340" on="1"/>
        <pt x="2930" y="1312" on="0"/>
        <pt x="2924" y="1282" on="1"/>
        <pt x="2873" y="1293" on="1"/>
        <pt x="2875" y="1305" on="0"/>
        <pt x="2878" y="1328" on="0"/>
        <pt x="2878" y="1339" on="1"/>
        <pt x="2878" y="1381" on="0"/>
        <pt x="2845" y="1458" on="0"/>
        <pt x="2782" y="1517" on="0"/>
        <pt x="2692" y="1552" on="0"/>
        <pt x="2636" y="1552" on="1"/>
        <pt x="2577" y="1552" on="0"/>
        <pt x="2445" y="1501" on="0"/>
        <pt x="2379" y="1437" on="1"/>
        <pt x="2318" y="1378" on="0"/>
        <pt x="2188" y="1198" on="0"/>
        <pt x="2061" y="980" on="0"/>
        <pt x="1940" y="736" on="0"/>
        <pt x="1888" y="614" on="1"/>
        <pt x="1848" y="519" on="0"/>
        <pt x="1766" y="301" on="0"/>
        <pt x="1673" y="71" on="0"/>
        <pt x="1565" y="-159" on="0"/>
        <pt x="1434" y="-370" on="0"/>
        <pt x="1276" y="-553" on="0"/>
        <pt x="1083" y="-688" on="0"/>
        <pt x="850" y="-765" on="0"/>
        <pt x="710" y="-765" on="1"/>
        <pt x="640" y="-765" on="0"/>
        <pt x="513" y="-738" on="0"/>
        <pt x="402" y="-693" on="0"/>
        <pt x="306" y="-634" on="0"/>
        <pt x="268" y="-602" on="1"/>
        <pt x="305" y="-543" on="1"/>
        <pt x="330" y="-567" on="0"/>
        <pt x="409" y="-621" on="0"/>
        <pt x="510" y="-666" on="0"/>
        <pt x="628" y="-695" on="0"/>
        <pt x="694" y="-695" on="1"/>
        <pt x="825" y="-695" on="0"/>
        <pt x="1076" y="-572" on="0"/>
        <pt x="1302" y="-352" on="0"/>
        <pt x="1496" y="-48" on="0"/>
      </contour>
    </TTGlyph>
    <TTGlyph name="Eogonek" xMin="-20" yMin="-475" xMax="1500" yMax="1431">
      <contour>
        <pt x="605" y="-452" on="1"/>
        <pt x="589" y="-459" on="0"/>
        <pt x="544" y="-475" on="0"/>
        <pt x="510" y="-475" on="1"/>
        <pt x="448" y="-475" on="0"/>
        <pt x="386" y="-416" on="0"/>
        <pt x="386" y="-375" on="1"/>
        <pt x="386" y="-342" on="0"/>
        <pt x="419" y="-286" on="0"/>
        <pt x="470" y="-240" on="0"/>
        <pt x="530" y="-205" on="0"/>
        <pt x="556" y="-193" on="1"/>
        <pt x="542" y="-194" on="0"/>
        <pt x="516" y="-195" on="0"/>
        <pt x="502" y="-195" on="1"/>
        <pt x="367" y="-195" on="0"/>
        <pt x="171" y="-127" on="0"/>
        <pt x="42" y="-12" on="0"/>
        <pt x="-20" y="139" on="0"/>
        <pt x="-20" y="223" on="1"/>
        <pt x="-20" y="282" on="0"/>
        <pt x="10" y="404" on="0"/>
        <pt x="72" y="520" on="0"/>
        <pt x="170" y="624" on="0"/>
        <pt x="304" y="704" on="0"/>
        <pt x="478" y="754" on="0"/>
        <pt x="586" y="759" on="1"/>
        <pt x="568" y="795" on="0"/>
        <pt x="548" y="874" on="0"/>
        <pt x="548" y="916" on="1"/>
        <pt x="548" y="993" on="0"/>
        <pt x="600" y="1130" on="0"/>
        <pt x="691" y="1245" on="0"/>
        <pt x="814" y="1335" on="0"/>
        <pt x="954" y="1398" on="0"/>
        <pt x="1105" y="1431" on="0"/>
        <pt x="1179" y="1431" on="1"/>
        <pt x="1255" y="1431" on="0"/>
        <pt x="1374" y="1400" on="0"/>
        <pt x="1456" y="1344" on="0"/>
        <pt x="1500" y="1265" on="0"/>
        <pt x="1500" y="1218" on="1"/>
        <pt x="1500" y="1166" on="0"/>
        <pt x="1457" y="1074" on="0"/>
        <pt x="1384" y="999" on="0"/>
        <pt x="1287" y="940" on="0"/>
        <pt x="1178" y="900" on="0"/>
        <pt x="1062" y="879" on="0"/>
        <pt x="1008" y="879" on="1"/>
        <pt x="990" y="879" on="0"/>
        <pt x="968" y="881" on="0"/>
        <pt x="966" y="881" on="1"/>
        <pt x="972" y="933" on="1"/>
        <pt x="975" y="932" on="0"/>
        <pt x="980" y="932" on="1"/>
        <pt x="1004" y="932" on="1"/>
        <pt x="1082" y="932" on="0"/>
        <pt x="1240" y="974" on="0"/>
        <pt x="1368" y="1049" on="0"/>
        <pt x="1448" y="1154" on="0"/>
        <pt x="1448" y="1217" on="1"/>
        <pt x="1448" y="1251" on="0"/>
        <pt x="1418" y="1304" on="0"/>
        <pt x="1365" y="1340" on="0"/>
        <pt x="1290" y="1359" on="0"/>
        <pt x="1245" y="1359" on="1"/>
        <pt x="1166" y="1359" on="0"/>
        <pt x="1016" y="1319" on="0"/>
        <pt x="884" y="1250" on="0"/>
        <pt x="774" y="1157" on="0"/>
        <pt x="694" y="1048" on="0"/>
        <pt x="650" y="930" on="0"/>
        <pt x="650" y="871" on="1"/>
        <pt x="650" y="812" on="0"/>
        <pt x="672" y="759" on="1"/>
        <pt x="741" y="757" on="0"/>
        <pt x="861" y="741" on="0"/>
        <pt x="949" y="708" on="0"/>
        <pt x="999" y="656" on="0"/>
        <pt x="999" y="619" on="1"/>
        <pt x="999" y="579" on="0"/>
        <pt x="939" y="537" on="0"/>
        <pt x="894" y="537" on="1"/>
        <pt x="858" y="537" on="0"/>
        <pt x="782" y="561" on="0"/>
        <pt x="711" y="604" on="0"/>
        <pt x="646" y="665" on="0"/>
        <pt x="620" y="702" on="1"/>
        <pt x="509" y="693" on="0"/>
        <pt x="320" y="608" on="0"/>
        <pt x="183" y="473" on="0"/>
        <pt x="105" y="298" on="0"/>
        <pt x="105" y="201" on="1"/>
        <pt x="105" y="122" on="0"/>
        <pt x="158" y="-5" on="0"/>
        <pt x="263" y="-95" on="0"/>
        <pt x="420" y="-143" on="0"/>
        <pt x="523" y="-143" on="1"/>
        <pt x="637" y="-143" on="0"/>
        <pt x="842" y="-74" on="0"/>
        <pt x="1016" y="32" on="0"/>
        <pt x="1158" y="159" on="0"/>
        <pt x="1263" y="273" on="0"/>
        <pt x="1327" y="360" on="0"/>
        <pt x="1337" y="373" on="1"/>
        <pt x="1373" y="345" on="1"/>
        <pt x="1353" y="315" on="0"/>
        <pt x="1286" y="223" on="0"/>
        <pt x="1192" y="118" on="0"/>
        <pt x="1073" y="8" on="0"/>
        <pt x="926" y="-89" on="0"/>
        <pt x="752" y="-164" on="0"/>
        <pt x="652" y="-182" on="1"/>
        <pt x="635" y="-190" on="0"/>
        <pt x="576" y="-223" on="0"/>
        <pt x="518" y="-269" on="0"/>
        <pt x="475" y="-327" on="0"/>
        <pt x="475" y="-360" on="1"/>
        <pt x="475" y="-392" on="0"/>
        <pt x="521" y="-425" on="0"/>
        <pt x="550" y="-425" on="1"/>
        <pt x="571" y="-425" on="0"/>
        <pt x="607" y="-413" on="0"/>
        <pt x="615" y="-410" on="1"/>
      </contour>
      <contour>
        <pt x="946" y="621" on="1"/>
        <pt x="946" y="645" on="0"/>
        <pt x="903" y="676" on="0"/>
        <pt x="834" y="694" on="0"/>
        <pt x="747" y="703" on="0"/>
        <pt x="702" y="704" on="1"/>
        <pt x="721" y="676" on="0"/>
        <pt x="768" y="633" on="0"/>
        <pt x="818" y="603" on="0"/>
        <pt x="869" y="587" on="0"/>
        <pt x="892" y="587" on="1"/>
        <pt x="919" y="587" on="0"/>
        <pt x="946" y="607" on="0"/>
      </contour>
    </TTGlyph>
    <TTGlyph name="Eth" xMin="60" yMin="-149" xMax="1900" yMax="1471">
      <contour>
        <pt x="1598" y="1438" on="1"/>
        <pt x="1548" y="1385" on="0"/>
        <pt x="1505" y="1327" on="1"/>
        <pt x="1599" y="1275" on="0"/>
        <pt x="1746" y="1130" on="0"/>
        <pt x="1847" y="956" on="0"/>
        <pt x="1900" y="757" on="0"/>
        <pt x="1900" y="651" on="1"/>
        <pt x="1900" y="557" on="0"/>
        <pt x="1863" y="371" on="0"/>
        <pt x="1784" y="202" on="0"/>
        <pt x="1662" y="57" on="0"/>
        <pt x="1492" y="-50" on="0"/>
        <pt x="1274" y="-111" on="0"/>
        <pt x="1138" y="-111" on="1"/>
        <pt x="1017" y="-111" on="0"/>
        <pt x="799" y="-66" on="0"/>
        <pt x="699" y="-39" on="1"/>
        <pt x="622" y="-91" on="0"/>
        <pt x="439" y="-149" on="0"/>
        <pt x="324" y="-149" on="1"/>
        <pt x="277" y="-149" on="0"/>
        <pt x="209" y="-132" on="0"/>
        <pt x="166" y="-102" on="0"/>
        <pt x="145" y="-63" on="0"/>
        <pt x="145" y="-42" on="1"/>
        <pt x="145" y="-17" on="0"/>
        <pt x="170" y="28" on="0"/>
        <pt x="221" y="62" on="0"/>
        <pt x="300" y="82" on="0"/>
        <pt x="353" y="82" on="1"/>
        <pt x="426" y="82" on="0"/>
        <pt x="571" y="51" on="0"/>
        <pt x="646" y="31" on="1"/>
        <pt x="709" y="88" on="0"/>
        <pt x="813" y="237" on="0"/>
        <pt x="861" y="327" on="1"/>
        <pt x="582" y="327" on="1"/>
        <pt x="612" y="392" on="1"/>
        <pt x="895" y="392" on="1"/>
        <pt x="950" y="501" on="0"/>
        <pt x="1059" y="742" on="0"/>
        <pt x="1179" y="983" on="0"/>
        <pt x="1320" y="1216" on="0"/>
        <pt x="1408" y="1317" on="1"/>
        <pt x="1333" y="1349" on="0"/>
        <pt x="1158" y="1384" on="0"/>
        <pt x="1058" y="1384" on="1"/>
        <pt x="936" y="1384" on="0"/>
        <pt x="710" y="1334" on="0"/>
        <pt x="514" y="1246" on="0"/>
        <pt x="352" y="1128" on="0"/>
        <pt x="237" y="991" on="0"/>
        <pt x="174" y="842" on="0"/>
        <pt x="174" y="768" on="1"/>
        <pt x="174" y="720" on="0"/>
        <pt x="212" y="634" on="0"/>
        <pt x="278" y="569" on="0"/>
        <pt x="368" y="531" on="0"/>
        <pt x="421" y="531" on="1"/>
        <pt x="462" y="531" on="0"/>
        <pt x="543" y="550" on="0"/>
        <pt x="617" y="578" on="0"/>
        <pt x="681" y="611" on="0"/>
        <pt x="729" y="640" on="0"/>
        <pt x="756" y="659" on="0"/>
        <pt x="757" y="660" on="1"/>
        <pt x="789" y="618" on="1"/>
        <pt x="742" y="587" on="0"/>
        <pt x="641" y="530" on="0"/>
        <pt x="533" y="485" on="0"/>
        <pt x="417" y="458" on="0"/>
        <pt x="357" y="458" on="1"/>
        <pt x="297" y="458" on="0"/>
        <pt x="189" y="499" on="0"/>
        <pt x="108" y="574" on="0"/>
        <pt x="60" y="678" on="0"/>
        <pt x="60" y="741" on="1"/>
        <pt x="60" y="813" on="0"/>
        <pt x="125" y="971" on="0"/>
        <pt x="246" y="1126" on="0"/>
        <pt x="422" y="1266" on="0"/>
        <pt x="643" y="1373" on="0"/>
        <pt x="908" y="1436" on="0"/>
        <pt x="1058" y="1436" on="1"/>
        <pt x="1167" y="1436" on="0"/>
        <pt x="1360" y="1395" on="0"/>
        <pt x="1444" y="1357" on="1"/>
        <pt x="1501" y="1418" on="0"/>
        <pt x="1567" y="1471" on="1"/>
      </contour>
      <contour>
        <pt x="999" y="327" on="1"/>
        <pt x="946" y="230" on="0"/>
        <pt x="826" y="64" on="0"/>
        <pt x="751" y="1" on="1"/>
        <pt x="831" y="-21" on="0"/>
        <pt x="991" y="-54" on="0"/>
        <pt x="1076" y="-54" on="1"/>
        <pt x="1252" y="-54" on="0"/>
        <pt x="1520" y="67" on="0"/>
        <pt x="1700" y="276" on="0"/>
        <pt x="1791" y="558" on="0"/>
        <pt x="1791" y="719" on="1"/>
        <pt x="1791" y="812" on="0"/>
        <pt x="1749" y="980" on="0"/>
        <pt x="1668" y="1124" on="0"/>
        <pt x="1550" y="1242" on="0"/>
        <pt x="1474" y="1284" on="1"/>
        <pt x="1403" y="1182" on="0"/>
        <pt x="1287" y="957" on="0"/>
        <pt x="1184" y="726" on="0"/>
        <pt x="1086" y="497" on="0"/>
        <pt x="1033" y="392" on="1"/>
        <pt x="1348" y="392" on="1"/>
        <pt x="1318" y="327" on="1"/>
      </contour>
      <contour>
        <pt x="320" y="-97" on="1"/>
        <pt x="401" y="-97" on="0"/>
        <pt x="536" y="-52" on="0"/>
        <pt x="594" y="-10" on="1"/>
        <pt x="528" y="7" on="0"/>
        <pt x="408" y="30" on="0"/>
        <pt x="353" y="30" on="1"/>
        <pt x="275" y="30" on="0"/>
        <pt x="198" y="-11" on="0"/>
        <pt x="198" y="-40" on="1"/>
        <pt x="198" y="-63" on="0"/>
        <pt x="253" y="-97" on="0"/>
      </contour>
    </TTGlyph>
    <TTGlyph name="Euro" xMin="70" yMin="-22" xMax="1429" yMax="1442">
      <contour>
        <pt x="360" y="603" on="1"/>
        <pt x="322" y="486" on="0"/>
        <pt x="322" y="391" on="1"/>
        <pt x="322" y="315" on="0"/>
        <pt x="362" y="185" on="0"/>
        <pt x="445" y="89" on="0"/>
        <pt x="573" y="34" on="0"/>
        <pt x="661" y="34" on="1"/>
        <pt x="739" y="34" on="0"/>
        <pt x="902" y="81" on="0"/>
        <pt x="1064" y="186" on="0"/>
        <pt x="1223" y="355" on="0"/>
        <pt x="1297" y="476" on="1"/>
        <pt x="1346" y="445" on="1"/>
        <pt x="1265" y="313" on="0"/>
        <pt x="1089" y="135" on="0"/>
        <pt x="913" y="25" on="0"/>
        <pt x="742" y="-22" on="0"/>
        <pt x="666" y="-22" on="1"/>
        <pt x="539" y="-22" on="0"/>
        <pt x="364" y="56" on="0"/>
        <pt x="256" y="183" on="0"/>
        <pt x="208" y="346" on="0"/>
        <pt x="208" y="430" on="1"/>
        <pt x="208" y="472" on="0"/>
        <pt x="217" y="558" on="0"/>
        <pt x="227" y="603" on="1"/>
        <pt x="70" y="603" on="1"/>
        <pt x="97" y="658" on="1"/>
        <pt x="240" y="658" on="1"/>
        <pt x="248" y="684" on="0"/>
        <pt x="264" y="734" on="0"/>
        <pt x="274" y="760" on="1"/>
        <pt x="107" y="760" on="1"/>
        <pt x="134" y="815" on="1"/>
        <pt x="297" y="815" on="1"/>
        <pt x="354" y="941" on="0"/>
        <pt x="528" y="1168" on="0"/>
        <pt x="748" y="1340" on="0"/>
        <pt x="1005" y="1442" on="0"/>
        <pt x="1143" y="1442" on="1"/>
        <pt x="1200" y="1442" on="0"/>
        <pt x="1304" y="1413" on="0"/>
        <pt x="1382" y="1349" on="0"/>
        <pt x="1429" y="1249" on="0"/>
        <pt x="1429" y="1179" on="1"/>
        <pt x="1429" y="1110" on="0"/>
        <pt x="1371" y="995" on="0"/>
        <pt x="1274" y="911" on="0"/>
        <pt x="1144" y="860" on="0"/>
        <pt x="1072" y="854" on="1"/>
        <pt x="1046" y="909" on="1"/>
        <pt x="1129" y="917" on="0"/>
        <pt x="1250" y="968" on="0"/>
        <pt x="1329" y="1043" on="0"/>
        <pt x="1367" y="1137" on="0"/>
        <pt x="1367" y="1188" on="1"/>
        <pt x="1367" y="1227" on="0"/>
        <pt x="1339" y="1297" on="0"/>
        <pt x="1287" y="1350" on="0"/>
        <pt x="1213" y="1382" on="0"/>
        <pt x="1167" y="1382" on="1"/>
        <pt x="1059" y="1382" on="0"/>
        <pt x="852" y="1286" on="0"/>
        <pt x="666" y="1128" on="0"/>
        <pt x="508" y="923" on="0"/>
        <pt x="450" y="815" on="1"/>
        <pt x="910" y="815" on="1"/>
        <pt x="883" y="760" on="1"/>
        <pt x="422" y="760" on="1"/>
        <pt x="410" y="734" on="0"/>
        <pt x="388" y="683" on="0"/>
        <pt x="379" y="658" on="1"/>
        <pt x="823" y="658" on="1"/>
        <pt x="796" y="603" on="1"/>
      </contour>
    </TTGlyph>
    <TTGlyph name="F" xMin="-40" yMin="-112" xMax="2228" yMax="1423">
      <contour>
        <pt x="1665" y="1184" on="1"/>
        <pt x="1664" y="1184" on="0"/>
        <pt x="1592" y="1113" on="0"/>
        <pt x="1472" y="968" on="0"/>
        <pt x="1315" y="747" on="0"/>
        <pt x="1229" y="597" on="1"/>
        <pt x="1190" y="529" on="1"/>
        <pt x="1223" y="537" on="0"/>
        <pt x="1291" y="551" on="0"/>
        <pt x="1326" y="557" on="1"/>
        <pt x="1371" y="566" on="1"/>
        <pt x="1403" y="624" on="0"/>
        <pt x="1456" y="698" on="0"/>
        <pt x="1501" y="741" on="0"/>
        <pt x="1539" y="757" on="0"/>
        <pt x="1554" y="757" on="1"/>
        <pt x="1573" y="757" on="0"/>
        <pt x="1609" y="731" on="0"/>
        <pt x="1609" y="697" on="1"/>
        <pt x="1609" y="670" on="0"/>
        <pt x="1583" y="620" on="0"/>
        <pt x="1535" y="576" on="0"/>
        <pt x="1469" y="542" on="0"/>
        <pt x="1429" y="532" on="1"/>
        <pt x="1410" y="493" on="0"/>
        <pt x="1370" y="408" on="0"/>
        <pt x="1326" y="322" on="0"/>
        <pt x="1280" y="239" on="0"/>
        <pt x="1255" y="202" on="1"/>
        <pt x="1184" y="269" on="1"/>
        <pt x="1193" y="280" on="0"/>
        <pt x="1230" y="328" on="0"/>
        <pt x="1273" y="388" on="0"/>
        <pt x="1315" y="455" on="0"/>
        <pt x="1330" y="485" on="1"/>
        <pt x="1344" y="515" on="1"/>
        <pt x="1298" y="505" on="0"/>
        <pt x="1205" y="484" on="0"/>
        <pt x="1156" y="471" on="1"/>
        <pt x="1079" y="339" on="0"/>
        <pt x="932" y="124" on="0"/>
        <pt x="766" y="-29" on="0"/>
        <pt x="568" y="-112" on="0"/>
        <pt x="439" y="-112" on="1"/>
        <pt x="355" y="-112" on="0"/>
        <pt x="184" y="-65" on="0"/>
        <pt x="47" y="25" on="0"/>
        <pt x="-40" y="155" on="0"/>
        <pt x="-40" y="238" on="1"/>
        <pt x="-40" y="303" on="0"/>
        <pt x="11" y="404" on="0"/>
        <pt x="99" y="473" on="0"/>
        <pt x="216" y="508" on="0"/>
        <pt x="281" y="508" on="1"/>
        <pt x="335" y="508" on="0"/>
        <pt x="444" y="482" on="0"/>
        <pt x="546" y="434" on="0"/>
        <pt x="637" y="365" on="0"/>
        <pt x="673" y="322" on="1"/>
        <pt x="635" y="293" on="1"/>
        <pt x="605" y="323" on="0"/>
        <pt x="531" y="370" on="0"/>
        <pt x="447" y="403" on="0"/>
        <pt x="359" y="420" on="0"/>
        <pt x="316" y="420" on="1"/>
        <pt x="269" y="420" on="0"/>
        <pt x="179" y="396" on="0"/>
        <pt x="109" y="343" on="0"/>
        <pt x="65" y="260" on="0"/>
        <pt x="65" y="200" on="1"/>
        <pt x="65" y="146" on="0"/>
        <pt x="119" y="52" on="0"/>
        <pt x="212" y="-17" on="0"/>
        <pt x="337" y="-57" on="0"/>
        <pt x="408" y="-57" on="1"/>
        <pt x="509" y="-57" on="0"/>
        <pt x="671" y="18" on="0"/>
        <pt x="808" y="148" on="0"/>
        <pt x="929" y="323" on="0"/>
        <pt x="989" y="422" on="1"/>
        <pt x="961" y="413" on="0"/>
        <pt x="903" y="393" on="0"/>
        <pt x="874" y="382" on="1"/>
        <pt x="855" y="431" on="1"/>
        <pt x="901" y="446" on="0"/>
        <pt x="985" y="472" on="0"/>
        <pt x="1027" y="485" on="1"/>
        <pt x="1084" y="580" on="0"/>
        <pt x="1207" y="779" on="0"/>
        <pt x="1353" y="970" on="0"/>
        <pt x="1528" y="1144" on="0"/>
        <pt x="1636" y="1215" on="1"/>
      </contour>
      <contour>
        <pt x="990" y="640" on="1"/>
        <pt x="898" y="598" on="0"/>
        <pt x="716" y="560" on="0"/>
        <pt x="636" y="560" on="1"/>
        <pt x="543" y="560" on="0"/>
        <pt x="389" y="610" on="0"/>
        <pt x="277" y="700" on="0"/>
        <pt x="215" y="826" on="0"/>
        <pt x="215" y="902" on="1"/>
        <pt x="215" y="997" on="0"/>
        <pt x="280" y="1145" on="0"/>
        <pt x="392" y="1258" on="0"/>
        <pt x="544" y="1336" on="0"/>
        <pt x="718" y="1386" on="0"/>
        <pt x="906" y="1408" on="0"/>
        <pt x="998" y="1408" on="1"/>
        <pt x="1104" y="1408" on="0"/>
        <pt x="1304" y="1382" on="0"/>
        <pt x="1493" y="1351" on="0"/>
        <pt x="1671" y="1325" on="0"/>
        <pt x="1756" y="1325" on="1"/>
        <pt x="1853" y="1325" on="0"/>
        <pt x="2017" y="1355" on="0"/>
        <pt x="2135" y="1392" on="0"/>
        <pt x="2202" y="1423" on="0"/>
        <pt x="2203" y="1423" on="1"/>
        <pt x="2228" y="1377" on="1"/>
        <pt x="2225" y="1375" on="0"/>
        <pt x="2153" y="1342" on="0"/>
        <pt x="2030" y="1303" on="0"/>
        <pt x="1860" y="1272" on="0"/>
        <pt x="1758" y="1272" on="1"/>
        <pt x="1663" y="1272" on="0"/>
        <pt x="1487" y="1297" on="0"/>
        <pt x="1308" y="1327" on="0"/>
        <pt x="1116" y="1352" on="0"/>
        <pt x="1005" y="1352" on="1"/>
        <pt x="841" y="1352" on="0"/>
        <pt x="590" y="1289" on="0"/>
        <pt x="421" y="1172" on="0"/>
        <pt x="335" y="1005" on="0"/>
        <pt x="335" y="902" on="1"/>
        <pt x="335" y="831" on="0"/>
        <pt x="390" y="725" on="0"/>
        <pt x="483" y="655" on="0"/>
        <pt x="604" y="620" on="0"/>
        <pt x="670" y="620" on="1"/>
        <pt x="728" y="620" on="0"/>
        <pt x="836" y="640" on="0"/>
        <pt x="918" y="665" on="0"/>
        <pt x="968" y="686" on="0"/>
        <pt x="969" y="686" on="1"/>
      </contour>
      <contour>
        <pt x="1544" y="705" on="1"/>
        <pt x="1527" y="705" on="0"/>
        <pt x="1484" y="642" on="0"/>
        <pt x="1458" y="591" on="1"/>
        <pt x="1489" y="603" on="0"/>
        <pt x="1527" y="629" on="0"/>
        <pt x="1549" y="655" on="0"/>
        <pt x="1557" y="681" on="0"/>
        <pt x="1557" y="693" on="1"/>
        <pt x="1557" y="700" on="0"/>
        <pt x="1549" y="705" on="0"/>
      </contour>
    </TTGlyph>
    <TTGlyph name="G" xMin="-160" yMin="-432" xMax="1564" yMax="1484">
      <contour>
        <pt x="153" y="565" on="1"/>
        <pt x="222" y="573" on="0"/>
        <pt x="352" y="593" on="0"/>
        <pt x="413" y="606" on="1"/>
        <pt x="418" y="729" on="0"/>
        <pt x="490" y="955" on="0"/>
        <pt x="606" y="1150" on="0"/>
        <pt x="756" y="1309" on="0"/>
        <pt x="921" y="1422" on="0"/>
        <pt x="1092" y="1484" on="0"/>
        <pt x="1171" y="1484" on="1"/>
        <pt x="1277" y="1484" on="0"/>
        <pt x="1388" y="1395" on="0"/>
        <pt x="1388" y="1307" on="1"/>
        <pt x="1388" y="1204" on="0"/>
        <pt x="1268" y="992" on="0"/>
        <pt x="1047" y="797" on="0"/>
        <pt x="734" y="634" on="0"/>
        <pt x="541" y="581" on="1"/>
        <pt x="541" y="518" on="0"/>
        <pt x="572" y="403" on="0"/>
        <pt x="634" y="314" on="0"/>
        <pt x="725" y="262" on="0"/>
        <pt x="785" y="262" on="1"/>
        <pt x="855" y="262" on="0"/>
        <pt x="1007" y="328" on="0"/>
        <pt x="1153" y="430" on="0"/>
        <pt x="1281" y="555" on="0"/>
        <pt x="1328" y="615" on="1"/>
        <pt x="1416" y="728" on="0"/>
        <pt x="1524" y="840" on="0"/>
        <pt x="1528" y="844" on="1"/>
        <pt x="1564" y="806" on="1"/>
        <pt x="1472" y="717" on="0"/>
        <pt x="1331" y="515" on="0"/>
        <pt x="1213" y="308" on="0"/>
        <pt x="1109" y="102" on="0"/>
        <pt x="999" y="-86" on="0"/>
        <pt x="874" y="-247" on="0"/>
        <pt x="714" y="-365" on="0"/>
        <pt x="511" y="-432" on="0"/>
        <pt x="378" y="-432" on="1"/>
        <pt x="254" y="-432" on="0"/>
        <pt x="55" y="-373" on="0"/>
        <pt x="-85" y="-268" on="0"/>
        <pt x="-160" y="-125" on="0"/>
        <pt x="-160" y="-41" on="1"/>
        <pt x="-160" y="48" on="0"/>
        <pt x="-99" y="177" on="0"/>
        <pt x="-2" y="260" on="0"/>
        <pt x="121" y="299" on="0"/>
        <pt x="183" y="299" on="1"/>
        <pt x="259" y="299" on="0"/>
        <pt x="367" y="251" on="0"/>
        <pt x="406" y="218" on="1"/>
        <pt x="377" y="177" on="1"/>
        <pt x="365" y="187" on="0"/>
        <pt x="332" y="211" on="0"/>
        <pt x="289" y="232" on="0"/>
        <pt x="238" y="246" on="0"/>
        <pt x="209" y="246" on="1"/>
        <pt x="152" y="246" on="0"/>
        <pt x="58" y="204" on="0"/>
        <pt x="-9" y="127" on="0"/>
        <pt x="-45" y="22" on="0"/>
        <pt x="-45" y="-41" on="1"/>
        <pt x="-45" y="-124" on="0"/>
        <pt x="26" y="-251" on="0"/>
        <pt x="141" y="-336" on="0"/>
        <pt x="286" y="-380" on="0"/>
        <pt x="361" y="-380" on="1"/>
        <pt x="474" y="-380" on="0"/>
        <pt x="641" y="-315" on="0"/>
        <pt x="772" y="-205" on="0"/>
        <pt x="877" y="-57" on="0"/>
        <pt x="977" y="110" on="0"/>
        <pt x="1083" y="285" on="0"/>
        <pt x="1151" y="369" on="1"/>
        <pt x="1042" y="279" on="0"/>
        <pt x="833" y="184" on="0"/>
        <pt x="735" y="184" on="1"/>
        <pt x="674" y="184" on="0"/>
        <pt x="560" y="229" on="0"/>
        <pt x="471" y="320" on="0"/>
        <pt x="415" y="457" on="0"/>
        <pt x="412" y="550" on="1"/>
        <pt x="351" y="537" on="0"/>
        <pt x="223" y="519" on="0"/>
        <pt x="157" y="513" on="1"/>
      </contour>
      <contour>
        <pt x="1203" y="1427" on="1"/>
        <pt x="1126" y="1427" on="0"/>
        <pt x="972" y="1367" on="0"/>
        <pt x="831" y="1259" on="0"/>
        <pt x="707" y="1111" on="0"/>
        <pt x="612" y="936" on="0"/>
        <pt x="551" y="740" on="0"/>
        <pt x="543" y="639" on="1"/>
        <pt x="746" y="696" on="0"/>
        <pt x="1044" y="863" on="0"/>
        <pt x="1240" y="1047" on="0"/>
        <pt x="1336" y="1231" on="0"/>
        <pt x="1336" y="1307" on="1"/>
        <pt x="1336" y="1366" on="0"/>
        <pt x="1269" y="1427" on="0"/>
      </contour>
    </TTGlyph>
    <TTGlyph name="Gbreve" xMin="-160" yMin="-432" xMax="1564" yMax="1787">
      <component glyphName="G" x="0" y="0" flags="0x204"/>
      <component glyphName="breve" x="901" y="728" flags="0x4"/>
    </TTGlyph>
    <TTGlyph name="Gcircumflex" xMin="-160" yMin="-432" xMax="1564" yMax="1778">
      <component glyphName="G" x="0" y="0" flags="0x204"/>
      <component glyphName="circumflex" x="907" y="728" flags="0x4"/>
    </TTGlyph>
    <TTGlyph name="Gcommaaccent" xMin="-160" yMin="-754" xMax="1564" yMax="1484">
      <component glyphName="G" x="0" y="0" flags="0x204"/>
      <component glyphName="commaaccent" x="170" y="-406" flags="0x4"/>
    </TTGlyph>
    <TTGlyph name="Gdotaccent" xMin="-160" yMin="-432" xMax="1564" yMax="1751">
      <component glyphName="G" x="0" y="0" flags="0x204"/>
      <component glyphName="dotaccent" x="908" y="728" flags="0x4"/>
    </TTGlyph>
    <TTGlyph name="H" xMin="-56" yMin="-115" xMax="2325" yMax="1525">
      <contour>
        <pt x="1769" y="583" on="1"/>
        <pt x="1783" y="581" on="0"/>
        <pt x="1833" y="572" on="0"/>
        <pt x="1892" y="550" on="0"/>
        <pt x="1953" y="511" on="0"/>
        <pt x="2003" y="445" on="0"/>
        <pt x="2034" y="349" on="0"/>
        <pt x="2034" y="282" on="1"/>
        <pt x="2034" y="209" on="0"/>
        <pt x="1980" y="69" on="0"/>
        <pt x="1884" y="-40" on="0"/>
        <pt x="1752" y="-107" on="0"/>
        <pt x="1675" y="-107" on="1"/>
        <pt x="1595" y="-107" on="0"/>
        <pt x="1478" y="-58" on="0"/>
        <pt x="1403" y="31" on="0"/>
        <pt x="1367" y="156" on="0"/>
        <pt x="1367" y="232" on="1"/>
        <pt x="1367" y="313" on="0"/>
        <pt x="1421" y="569" on="0"/>
        <pt x="1494" y="735" on="1"/>
        <pt x="1379" y="688" on="0"/>
        <pt x="1154" y="613" on="0"/>
        <pt x="1042" y="580" on="1"/>
        <pt x="983" y="489" on="0"/>
        <pt x="839" y="314" on="0"/>
        <pt x="682" y="160" on="0"/>
        <pt x="516" y="31" on="0"/>
        <pt x="354" y="-63" on="0"/>
        <pt x="201" y="-115" on="0"/>
        <pt x="135" y="-115" on="1"/>
        <pt x="76" y="-115" on="0"/>
        <pt x="2" y="-81" on="0"/>
        <pt x="-40" y="-32" on="0"/>
        <pt x="-56" y="26" on="0"/>
        <pt x="-56" y="50" on="1"/>
        <pt x="-56" y="80" on="0"/>
        <pt x="-27" y="153" on="0"/>
        <pt x="33" y="229" on="0"/>
        <pt x="125" y="302" on="0"/>
        <pt x="187" y="334" on="1"/>
        <pt x="283" y="383" on="0"/>
        <pt x="473" y="461" on="0"/>
        <pt x="660" y="526" on="0"/>
        <pt x="844" y="582" on="0"/>
        <pt x="936" y="609" on="1"/>
        <pt x="985" y="695" on="0"/>
        <pt x="1068" y="872" on="0"/>
        <pt x="1129" y="1040" on="0"/>
        <pt x="1164" y="1193" on="0"/>
        <pt x="1164" y="1256" on="1"/>
        <pt x="1164" y="1304" on="0"/>
        <pt x="1133" y="1384" on="0"/>
        <pt x="1076" y="1441" on="0"/>
        <pt x="994" y="1473" on="0"/>
        <pt x="943" y="1473" on="1"/>
        <pt x="849" y="1473" on="0"/>
        <pt x="678" y="1428" on="0"/>
        <pt x="530" y="1352" on="0"/>
        <pt x="411" y="1250" on="0"/>
        <pt x="326" y="1136" on="0"/>
        <pt x="280" y="1017" on="0"/>
        <pt x="280" y="961" on="1"/>
        <pt x="280" y="905" on="0"/>
        <pt x="327" y="832" on="0"/>
        <pt x="399" y="789" on="0"/>
        <pt x="482" y="772" on="0"/>
        <pt x="518" y="772" on="1"/>
        <pt x="559" y="772" on="0"/>
        <pt x="634" y="786" on="0"/>
        <pt x="691" y="802" on="0"/>
        <pt x="726" y="817" on="0"/>
        <pt x="726" y="817" on="1"/>
        <pt x="748" y="769" on="1"/>
        <pt x="743" y="766" on="0"/>
        <pt x="696" y="749" on="0"/>
        <pt x="620" y="729" on="0"/>
        <pt x="519" y="714" on="0"/>
        <pt x="460" y="714" on="1"/>
        <pt x="399" y="714" on="0"/>
        <pt x="290" y="742" on="0"/>
        <pt x="209" y="802" on="0"/>
        <pt x="162" y="897" on="0"/>
        <pt x="162" y="965" on="1"/>
        <pt x="162" y="1042" on="0"/>
        <pt x="233" y="1184" on="0"/>
        <pt x="353" y="1309" on="0"/>
        <pt x="510" y="1411" on="0"/>
        <pt x="683" y="1485" on="0"/>
        <pt x="860" y="1525" on="0"/>
        <pt x="940" y="1525" on="1"/>
        <pt x="1013" y="1525" on="0"/>
        <pt x="1134" y="1485" on="0"/>
        <pt x="1222" y="1406" on="0"/>
        <pt x="1271" y="1288" on="0"/>
        <pt x="1271" y="1210" on="1"/>
        <pt x="1271" y="1144" on="0"/>
        <pt x="1239" y="994" on="0"/>
        <pt x="1187" y="846" on="0"/>
        <pt x="1121" y="708" on="0"/>
        <pt x="1086" y="653" on="1"/>
        <pt x="1198" y="686" on="0"/>
        <pt x="1416" y="759" on="0"/>
        <pt x="1527" y="807" on="1"/>
        <pt x="1638" y="1023" on="0"/>
        <pt x="1838" y="1302" on="0"/>
        <pt x="2009" y="1463" on="0"/>
        <pt x="2149" y="1525" on="0"/>
        <pt x="2200" y="1525" on="1"/>
        <pt x="2259" y="1525" on="0"/>
        <pt x="2325" y="1461" on="0"/>
        <pt x="2325" y="1404" on="1"/>
        <pt x="2325" y="1339" on="0"/>
        <pt x="2228" y="1192" on="0"/>
        <pt x="2145" y="1123" on="1"/>
        <pt x="2021" y="1020" on="0"/>
        <pt x="1777" y="866" on="0"/>
        <pt x="1653" y="806" on="1"/>
        <pt x="1596" y="685" on="0"/>
        <pt x="1522" y="491" on="0"/>
        <pt x="1479" y="337" on="0"/>
        <pt x="1461" y="217" on="0"/>
        <pt x="1461" y="171" on="1"/>
        <pt x="1461" y="113" on="0"/>
        <pt x="1493" y="28" on="0"/>
        <pt x="1550" y="-28" on="0"/>
        <pt x="1628" y="-55" on="0"/>
        <pt x="1675" y="-55" on="1"/>
        <pt x="1737" y="-55" on="0"/>
        <pt x="1848" y="-2" on="0"/>
        <pt x="1932" y="90" on="0"/>
        <pt x="1981" y="213" on="0"/>
        <pt x="1981" y="283" on="1"/>
        <pt x="1981" y="343" on="0"/>
        <pt x="1952" y="427" on="0"/>
        <pt x="1907" y="482" on="0"/>
        <pt x="1853" y="513" on="0"/>
        <pt x="1806" y="528" on="0"/>
        <pt x="1771" y="531" on="0"/>
        <pt x="1767" y="531" on="1"/>
      </contour>
      <contour>
        <pt x="180" y="-44" on="1"/>
        <pt x="262" y="-44" on="0"/>
        <pt x="446" y="44" on="0"/>
        <pt x="633" y="199" on="0"/>
        <pt x="814" y="411" on="0"/>
        <pt x="892" y="535" on="1"/>
        <pt x="830" y="517" on="1"/>
        <pt x="766" y="498" on="0"/>
        <pt x="604" y="443" on="0"/>
        <pt x="436" y="373" on="0"/>
        <pt x="275" y="290" on="0"/>
        <pt x="150" y="196" on="0"/>
        <pt x="74" y="91" on="0"/>
        <pt x="74" y="34" on="1"/>
        <pt x="74" y="-4" on="0"/>
        <pt x="133" y="-44" on="0"/>
      </contour>
      <contour>
        <pt x="1690" y="884" on="1"/>
        <pt x="1795" y="938" on="0"/>
        <pt x="2005" y="1075" on="0"/>
        <pt x="2113" y="1164" on="1"/>
        <pt x="2157" y="1200" on="0"/>
        <pt x="2218" y="1270" on="0"/>
        <pt x="2256" y="1332" on="0"/>
        <pt x="2273" y="1385" on="0"/>
        <pt x="2273" y="1405" on="1"/>
        <pt x="2273" y="1434" on="0"/>
        <pt x="2238" y="1474" on="0"/>
        <pt x="2200" y="1474" on="1"/>
        <pt x="2159" y="1474" on="0"/>
        <pt x="2072" y="1427" on="0"/>
        <pt x="1982" y="1344" on="0"/>
        <pt x="1893" y="1231" on="0"/>
        <pt x="1807" y="1100" on="0"/>
        <pt x="1726" y="956" on="0"/>
      </contour>
    </TTGlyph>
    <TTGlyph name="Hbar" xMin="-56" yMin="-115" xMax="2325" yMax="1525">
      <contour>
        <pt x="1769" y="583" on="1"/>
        <pt x="1783" y="581" on="0"/>
        <pt x="1833" y="572" on="0"/>
        <pt x="1892" y="550" on="0"/>
        <pt x="1953" y="511" on="0"/>
        <pt x="2003" y="445" on="0"/>
        <pt x="2034" y="349" on="0"/>
        <pt x="2034" y="282" on="1"/>
        <pt x="2034" y="209" on="0"/>
        <pt x="1980" y="69" on="0"/>
        <pt x="1884" y="-40" on="0"/>
        <pt x="1752" y="-107" on="0"/>
        <pt x="1675" y="-107" on="1"/>
        <pt x="1595" y="-107" on="0"/>
        <pt x="1478" y="-58" on="0"/>
        <pt x="1403" y="31" on="0"/>
        <pt x="1367" y="156" on="0"/>
        <pt x="1367" y="232" on="1"/>
        <pt x="1367" y="313" on="0"/>
        <pt x="1421" y="569" on="0"/>
        <pt x="1494" y="735" on="1"/>
        <pt x="1379" y="688" on="0"/>
        <pt x="1154" y="613" on="0"/>
        <pt x="1042" y="580" on="1"/>
        <pt x="983" y="489" on="0"/>
        <pt x="839" y="314" on="0"/>
        <pt x="682" y="160" on="0"/>
        <pt x="516" y="31" on="0"/>
        <pt x="354" y="-63" on="0"/>
        <pt x="201" y="-115" on="0"/>
        <pt x="135" y="-115" on="1"/>
        <pt x="76" y="-115" on="0"/>
        <pt x="2" y="-81" on="0"/>
        <pt x="-40" y="-32" on="0"/>
        <pt x="-56" y="26" on="0"/>
        <pt x="-56" y="50" on="1"/>
        <pt x="-56" y="80" on="0"/>
        <pt x="-27" y="153" on="0"/>
        <pt x="33" y="229" on="0"/>
        <pt x="125" y="302" on="0"/>
        <pt x="187" y="334" on="1"/>
        <pt x="283" y="383" on="0"/>
        <pt x="473" y="461" on="0"/>
        <pt x="660" y="526" on="0"/>
        <pt x="844" y="582" on="0"/>
        <pt x="936" y="609" on="1"/>
        <pt x="987" y="700" on="0"/>
        <pt x="1062" y="858" on="0"/>
        <pt x="1091" y="934" on="1"/>
        <pt x="562" y="934" on="1"/>
        <pt x="592" y="999" on="1"/>
        <pt x="1114" y="999" on="1"/>
        <pt x="1137" y="1070" on="0"/>
        <pt x="1164" y="1200" on="0"/>
        <pt x="1164" y="1256" on="1"/>
        <pt x="1164" y="1304" on="0"/>
        <pt x="1133" y="1384" on="0"/>
        <pt x="1076" y="1441" on="0"/>
        <pt x="994" y="1473" on="0"/>
        <pt x="943" y="1473" on="1"/>
        <pt x="849" y="1473" on="0"/>
        <pt x="678" y="1428" on="0"/>
        <pt x="530" y="1352" on="0"/>
        <pt x="411" y="1250" on="0"/>
        <pt x="326" y="1136" on="0"/>
        <pt x="280" y="1017" on="0"/>
        <pt x="280" y="961" on="1"/>
        <pt x="280" y="905" on="0"/>
        <pt x="327" y="832" on="0"/>
        <pt x="399" y="789" on="0"/>
        <pt x="482" y="772" on="0"/>
        <pt x="518" y="772" on="1"/>
        <pt x="559" y="772" on="0"/>
        <pt x="634" y="786" on="0"/>
        <pt x="691" y="802" on="0"/>
        <pt x="726" y="817" on="0"/>
        <pt x="726" y="817" on="1"/>
        <pt x="748" y="769" on="1"/>
        <pt x="743" y="766" on="0"/>
        <pt x="696" y="749" on="0"/>
        <pt x="620" y="729" on="0"/>
        <pt x="519" y="714" on="0"/>
        <pt x="460" y="714" on="1"/>
        <pt x="399" y="714" on="0"/>
        <pt x="290" y="742" on="0"/>
        <pt x="209" y="802" on="0"/>
        <pt x="162" y="897" on="0"/>
        <pt x="162" y="965" on="1"/>
        <pt x="162" y="1042" on="0"/>
        <pt x="233" y="1184" on="0"/>
        <pt x="353" y="1309" on="0"/>
        <pt x="510" y="1411" on="0"/>
        <pt x="683" y="1485" on="0"/>
        <pt x="860" y="1525" on="0"/>
        <pt x="940" y="1525" on="1"/>
        <pt x="1013" y="1525" on="0"/>
        <pt x="1134" y="1485" on="0"/>
        <pt x="1222" y="1406" on="0"/>
        <pt x="1271" y="1288" on="0"/>
        <pt x="1271" y="1210" on="1"/>
        <pt x="1271" y="1169" on="0"/>
        <pt x="1253" y="1063" on="0"/>
        <pt x="1235" y="999" on="1"/>
        <pt x="1630" y="999" on="1"/>
        <pt x="1720" y="1153" on="0"/>
        <pt x="1887" y="1356" on="0"/>
        <pt x="2033" y="1476" on="0"/>
        <pt x="2155" y="1525" on="0"/>
        <pt x="2200" y="1525" on="1"/>
        <pt x="2259" y="1525" on="0"/>
        <pt x="2325" y="1461" on="0"/>
        <pt x="2325" y="1404" on="1"/>
        <pt x="2325" y="1339" on="0"/>
        <pt x="2228" y="1192" on="0"/>
        <pt x="2145" y="1123" on="1"/>
        <pt x="2104" y="1089" on="0"/>
        <pt x="2023" y="1028" on="0"/>
        <pt x="1982" y="999" on="1"/>
        <pt x="2232" y="999" on="1"/>
        <pt x="2202" y="934" on="1"/>
        <pt x="1884" y="934" on="1"/>
        <pt x="1826" y="898" on="0"/>
        <pt x="1711" y="835" on="0"/>
        <pt x="1653" y="806" on="1"/>
        <pt x="1596" y="685" on="0"/>
        <pt x="1522" y="491" on="0"/>
        <pt x="1479" y="337" on="0"/>
        <pt x="1461" y="217" on="0"/>
        <pt x="1461" y="171" on="1"/>
        <pt x="1461" y="113" on="0"/>
        <pt x="1493" y="28" on="0"/>
        <pt x="1550" y="-28" on="0"/>
        <pt x="1628" y="-55" on="0"/>
        <pt x="1675" y="-55" on="1"/>
        <pt x="1737" y="-55" on="0"/>
        <pt x="1848" y="-2" on="0"/>
        <pt x="1932" y="90" on="0"/>
        <pt x="1981" y="213" on="0"/>
        <pt x="1981" y="283" on="1"/>
        <pt x="1981" y="343" on="0"/>
        <pt x="1952" y="427" on="0"/>
        <pt x="1907" y="482" on="0"/>
        <pt x="1853" y="513" on="0"/>
        <pt x="1806" y="528" on="0"/>
        <pt x="1771" y="531" on="0"/>
        <pt x="1767" y="531" on="1"/>
      </contour>
      <contour>
        <pt x="180" y="-44" on="1"/>
        <pt x="262" y="-44" on="0"/>
        <pt x="446" y="44" on="0"/>
        <pt x="633" y="199" on="0"/>
        <pt x="814" y="411" on="0"/>
        <pt x="892" y="535" on="1"/>
        <pt x="812" y="511" on="0"/>
        <pt x="629" y="450" on="0"/>
        <pt x="447" y="377" on="0"/>
        <pt x="279" y="291" on="0"/>
        <pt x="151" y="196" on="0"/>
        <pt x="74" y="91" on="0"/>
        <pt x="74" y="34" on="1"/>
        <pt x="74" y="-4" on="0"/>
        <pt x="133" y="-44" on="0"/>
      </contour>
      <contour>
        <pt x="2200" y="1474" on="1"/>
        <pt x="2144" y="1474" on="0"/>
        <pt x="2025" y="1390" on="0"/>
        <pt x="1906" y="1255" on="0"/>
        <pt x="1795" y="1085" on="0"/>
        <pt x="1748" y="999" on="1"/>
        <pt x="1888" y="999" on="1"/>
        <pt x="1945" y="1035" on="0"/>
        <pt x="2056" y="1116" on="0"/>
        <pt x="2113" y="1164" on="1"/>
        <pt x="2157" y="1200" on="0"/>
        <pt x="2218" y="1270" on="0"/>
        <pt x="2256" y="1332" on="0"/>
        <pt x="2273" y="1385" on="0"/>
        <pt x="2273" y="1405" on="1"/>
        <pt x="2273" y="1434" on="0"/>
        <pt x="2238" y="1474" on="0"/>
      </contour>
      <contour>
        <pt x="1086" y="653" on="1"/>
        <pt x="1198" y="686" on="0"/>
        <pt x="1416" y="759" on="0"/>
        <pt x="1527" y="807" on="1"/>
        <pt x="1540" y="833" on="0"/>
        <pt x="1560" y="871" on="0"/>
        <pt x="1575" y="900" on="0"/>
        <pt x="1587" y="923" on="0"/>
        <pt x="1593" y="934" on="1"/>
        <pt x="1215" y="934" on="1"/>
        <pt x="1190" y="861" on="0"/>
        <pt x="1128" y="719" on="0"/>
      </contour>
      <contour>
        <pt x="1690" y="884" on="1"/>
        <pt x="1736" y="907" on="0"/>
        <pt x="1781" y="934" on="1"/>
        <pt x="1714" y="934" on="1"/>
      </contour>
    </TTGlyph>
    <TTGlyph name="Hcircumflex" xMin="-56" yMin="-115" xMax="2325" yMax="1800">
      <component glyphName="H" x="0" y="0" flags="0x204"/>
      <component glyphName="circumflex" x="1292" y="750" flags="0x4"/>
    </TTGlyph>
    <TTGlyph name="I" xMin="-60" yMin="-71" xMax="1536" yMax="1558">
      <contour>
        <pt x="1074" y="295" on="1"/>
        <pt x="968" y="368" on="0"/>
        <pt x="846" y="531" on="0"/>
        <pt x="784" y="695" on="0"/>
        <pt x="767" y="849" on="0"/>
        <pt x="767" y="914" on="1"/>
        <pt x="767" y="1024" on="0"/>
        <pt x="810" y="1205" on="0"/>
        <pt x="881" y="1348" on="0"/>
        <pt x="974" y="1454" on="0"/>
        <pt x="1076" y="1524" on="0"/>
        <pt x="1179" y="1558" on="0"/>
        <pt x="1224" y="1558" on="1"/>
        <pt x="1292" y="1558" on="0"/>
        <pt x="1406" y="1485" on="0"/>
        <pt x="1489" y="1352" on="0"/>
        <pt x="1536" y="1167" on="0"/>
        <pt x="1536" y="1056" on="1"/>
        <pt x="1536" y="909" on="0"/>
        <pt x="1474" y="628" on="0"/>
        <pt x="1355" y="377" on="0"/>
        <pt x="1183" y="167" on="0"/>
        <pt x="964" y="14" on="0"/>
        <pt x="701" y="-71" on="0"/>
        <pt x="550" y="-71" on="1"/>
        <pt x="418" y="-71" on="0"/>
        <pt x="194" y="-1" on="0"/>
        <pt x="32" y="115" on="0"/>
        <pt x="-60" y="266" on="0"/>
        <pt x="-60" y="347" on="1"/>
        <pt x="-60" y="423" on="0"/>
        <pt x="-10" y="525" on="0"/>
        <pt x="73" y="587" on="0"/>
        <pt x="179" y="614" on="0"/>
        <pt x="235" y="614" on="1"/>
        <pt x="340" y="614" on="0"/>
        <pt x="535" y="556" on="0"/>
        <pt x="712" y="450" on="0"/>
        <pt x="866" y="300" on="0"/>
        <pt x="931" y="208" on="1"/>
        <pt x="888" y="178" on="1"/>
        <pt x="816" y="281" on="0"/>
        <pt x="658" y="423" on="0"/>
        <pt x="502" y="511" on="0"/>
        <pt x="354" y="549" on="0"/>
        <pt x="292" y="549" on="1"/>
        <pt x="229" y="549" on="0"/>
        <pt x="139" y="519" on="0"/>
        <pt x="80" y="467" on="0"/>
        <pt x="52" y="393" on="0"/>
        <pt x="52" y="350" on="1"/>
        <pt x="52" y="271" on="0"/>
        <pt x="134" y="136" on="0"/>
        <pt x="272" y="37" on="0"/>
        <pt x="452" y="-19" on="0"/>
        <pt x="550" y="-19" on="1"/>
        <pt x="670" y="-19" on="0"/>
        <pt x="873" y="45" on="0"/>
        <pt x="1041" y="157" on="0"/>
        <pt x="1175" y="308" on="0"/>
        <pt x="1280" y="483" on="0"/>
        <pt x="1354" y="672" on="0"/>
        <pt x="1402" y="859" on="0"/>
        <pt x="1425" y="1036" on="0"/>
        <pt x="1425" y="1111" on="1"/>
        <pt x="1425" y="1208" on="0"/>
        <pt x="1390" y="1355" on="0"/>
        <pt x="1334" y="1454" on="0"/>
        <pt x="1261" y="1505" on="0"/>
        <pt x="1224" y="1505" on="1"/>
        <pt x="1165" y="1505" on="0"/>
        <pt x="1043" y="1419" on="0"/>
        <pt x="944" y="1255" on="0"/>
        <pt x="882" y="1017" on="0"/>
        <pt x="882" y="866" on="1"/>
        <pt x="882" y="754" on="0"/>
        <pt x="923" y="577" on="0"/>
        <pt x="988" y="445" on="0"/>
        <pt x="1065" y="355" on="0"/>
        <pt x="1101" y="330" on="1"/>
      </contour>
    </TTGlyph>
    <TTGlyph name="IJ" xMin="-60" yMin="-765" xMax="2760" yMax="1581">
      <component glyphName="I" x="0" y="0" flags="0x4"/>
      <component glyphName="J" x="1516" y="0" flags="0x4"/>
    </TTGlyph>
    <TTGlyph name="Iacute" xMin="-60" yMin="-71" xMax="1536" yMax="1851">
      <component glyphName="I" x="0" y="0" flags="0x204"/>
      <component glyphName="acute" x="967" y="801" flags="0x4"/>
    </TTGlyph>
    <TTGlyph name="Ibreve" xMin="-60" yMin="-71" xMax="1536" yMax="1860">
      <component glyphName="I" x="0" y="0" flags="0x204"/>
      <component glyphName="breve" x="961" y="801" flags="0x4"/>
    </TTGlyph>
    <TTGlyph name="Icircumflex" xMin="-60" yMin="-71" xMax="1536" yMax="1851">
      <component glyphName="I" x="0" y="0" flags="0x204"/>
      <component glyphName="circumflex" x="967" y="801" flags="0x4"/>
    </TTGlyph>
    <TTGlyph name="Idieresis" xMin="-60" yMin="-71" xMax="1536" yMax="1825">
      <component glyphName="I" x="0" y="0" flags="0x204"/>
      <component glyphName="dieresis" x="968" y="801" flags="0x4"/>
    </TTGlyph>
    <TTGlyph name="Idotaccent" xMin="-60" yMin="-71" xMax="1536" yMax="1824">
      <component glyphName="I" x="0" y="0" flags="0x204"/>
      <component glyphName="dotaccent" x="968" y="801" flags="0x4"/>
    </TTGlyph>
    <TTGlyph name="Igrave" xMin="-60" yMin="-71" xMax="1536" yMax="1851">
      <component glyphName="I" x="0" y="0" flags="0x204"/>
      <component glyphName="grave" x="967" y="801" flags="0x4"/>
    </TTGlyph>
    <TTGlyph name="Imacron" xMin="-60" yMin="-71" xMax="1536" yMax="1795">
      <component glyphName="I" x="0" y="0" flags="0x204"/>
      <component glyphName="macron" x="968" y="801" flags="0x4"/>
    </TTGlyph>
    <TTGlyph name="Iogonek" xMin="-60" yMin="-356" xMax="1536" yMax="1558">
      <contour>
        <pt x="647" y="-333" on="1"/>
        <pt x="631" y="-340" on="0"/>
        <pt x="586" y="-356" on="0"/>
        <pt x="552" y="-356" on="1"/>
        <pt x="490" y="-356" on="0"/>
        <pt x="428" y="-297" on="0"/>
        <pt x="428" y="-256" on="1"/>
        <pt x="428" y="-222" on="0"/>
        <pt x="465" y="-163" on="0"/>
        <pt x="520" y="-116" on="0"/>
        <pt x="583" y="-80" on="0"/>
        <pt x="610" y="-69" on="1"/>
        <pt x="595" y="-70" on="0"/>
        <pt x="565" y="-71" on="0"/>
        <pt x="550" y="-71" on="1"/>
        <pt x="418" y="-71" on="0"/>
        <pt x="194" y="-1" on="0"/>
        <pt x="32" y="115" on="0"/>
        <pt x="-60" y="266" on="0"/>
        <pt x="-60" y="347" on="1"/>
        <pt x="-60" y="423" on="0"/>
        <pt x="-10" y="525" on="0"/>
        <pt x="73" y="587" on="0"/>
        <pt x="179" y="614" on="0"/>
        <pt x="235" y="614" on="1"/>
        <pt x="340" y="614" on="0"/>
        <pt x="535" y="556" on="0"/>
        <pt x="712" y="450" on="0"/>
        <pt x="866" y="300" on="0"/>
        <pt x="931" y="208" on="1"/>
        <pt x="888" y="178" on="1"/>
        <pt x="816" y="281" on="0"/>
        <pt x="658" y="423" on="0"/>
        <pt x="502" y="511" on="0"/>
        <pt x="354" y="549" on="0"/>
        <pt x="292" y="549" on="1"/>
        <pt x="229" y="549" on="0"/>
        <pt x="139" y="519" on="0"/>
        <pt x="80" y="467" on="0"/>
        <pt x="52" y="393" on="0"/>
        <pt x="52" y="350" on="1"/>
        <pt x="52" y="271" on="0"/>
        <pt x="134" y="136" on="0"/>
        <pt x="272" y="37" on="0"/>
        <pt x="452" y="-19" on="0"/>
        <pt x="550" y="-19" on="1"/>
        <pt x="670" y="-19" on="0"/>
        <pt x="873" y="45" on="0"/>
        <pt x="1041" y="157" on="0"/>
        <pt x="1175" y="308" on="0"/>
        <pt x="1280" y="483" on="0"/>
        <pt x="1354" y="672" on="0"/>
        <pt x="1402" y="859" on="0"/>
        <pt x="1425" y="1036" on="0"/>
        <pt x="1425" y="1111" on="1"/>
        <pt x="1425" y="1208" on="0"/>
        <pt x="1390" y="1355" on="0"/>
        <pt x="1334" y="1454" on="0"/>
        <pt x="1261" y="1505" on="0"/>
        <pt x="1224" y="1505" on="1"/>
        <pt x="1165" y="1505" on="0"/>
        <pt x="1043" y="1419" on="0"/>
        <pt x="944" y="1255" on="0"/>
        <pt x="882" y="1017" on="0"/>
        <pt x="882" y="866" on="1"/>
        <pt x="882" y="754" on="0"/>
        <pt x="923" y="577" on="0"/>
        <pt x="988" y="445" on="0"/>
        <pt x="1065" y="355" on="0"/>
        <pt x="1101" y="330" on="1"/>
        <pt x="1074" y="295" on="1"/>
        <pt x="968" y="368" on="0"/>
        <pt x="846" y="531" on="0"/>
        <pt x="784" y="695" on="0"/>
        <pt x="767" y="849" on="0"/>
        <pt x="767" y="914" on="1"/>
        <pt x="767" y="1024" on="0"/>
        <pt x="810" y="1205" on="0"/>
        <pt x="881" y="1348" on="0"/>
        <pt x="974" y="1454" on="0"/>
        <pt x="1076" y="1524" on="0"/>
        <pt x="1179" y="1558" on="0"/>
        <pt x="1224" y="1558" on="1"/>
        <pt x="1292" y="1558" on="0"/>
        <pt x="1406" y="1485" on="0"/>
        <pt x="1489" y="1352" on="0"/>
        <pt x="1536" y="1167" on="0"/>
        <pt x="1536" y="1056" on="1"/>
        <pt x="1536" y="922" on="0"/>
        <pt x="1484" y="664" on="0"/>
        <pt x="1384" y="429" on="0"/>
        <pt x="1239" y="226" on="0"/>
        <pt x="1054" y="68" on="0"/>
        <pt x="830" y="-39" on="0"/>
        <pt x="702" y="-59" on="1"/>
        <pt x="689" y="-66" on="0"/>
        <pt x="628" y="-98" on="0"/>
        <pt x="565" y="-145" on="0"/>
        <pt x="517" y="-205" on="0"/>
        <pt x="517" y="-241" on="1"/>
        <pt x="517" y="-273" on="0"/>
        <pt x="563" y="-306" on="0"/>
        <pt x="592" y="-306" on="1"/>
        <pt x="613" y="-306" on="0"/>
        <pt x="649" y="-294" on="0"/>
        <pt x="657" y="-291" on="1"/>
        <pt x="647" y="-333" on="1"/>
      </contour>
    </TTGlyph>
    <TTGlyph name="Itilde" xMin="-60" yMin="-71" xMax="1536" yMax="1855">
      <component glyphName="I" x="0" y="0" flags="0x204"/>
      <component glyphName="tilde" x="967" y="801" flags="0x4"/>
    </TTGlyph>
    <TTGlyph name="J" xMin="-400" yMin="-765" xMax="1244" yMax="1581">
      <contour>
        <pt x="1153" y="160" on="1"/>
        <pt x="1111" y="171" on="0"/>
        <pt x="1028" y="192" on="0"/>
        <pt x="985" y="201" on="1"/>
        <pt x="934" y="97" on="0"/>
        <pt x="820" y="-103" on="0"/>
        <pt x="756" y="-200" on="1"/>
        <pt x="707" y="-274" on="0"/>
        <pt x="586" y="-416" on="0"/>
        <pt x="451" y="-541" on="0"/>
        <pt x="306" y="-646" on="0"/>
        <pt x="159" y="-723" on="0"/>
        <pt x="14" y="-765" on="0"/>
        <pt x="-54" y="-765" on="1"/>
        <pt x="-115" y="-765" on="0"/>
        <pt x="-239" y="-722" on="0"/>
        <pt x="-338" y="-636" on="0"/>
        <pt x="-400" y="-507" on="0"/>
        <pt x="-400" y="-420" on="1"/>
        <pt x="-400" y="-375" on="0"/>
        <pt x="-379" y="-275" on="0"/>
        <pt x="-331" y="-169" on="0"/>
        <pt x="-255" y="-58" on="0"/>
        <pt x="-200" y="0" on="1"/>
        <pt x="-127" y="77" on="0"/>
        <pt x="54" y="189" on="0"/>
        <pt x="258" y="262" on="0"/>
        <pt x="480" y="297" on="0"/>
        <pt x="594" y="297" on="1"/>
        <pt x="669" y="297" on="0"/>
        <pt x="818" y="283" on="0"/>
        <pt x="893" y="270" on="1"/>
        <pt x="946" y="380" on="0"/>
        <pt x="1032" y="598" on="0"/>
        <pt x="1064" y="704" on="1"/>
        <pt x="1112" y="866" on="0"/>
        <pt x="1154" y="1104" on="0"/>
        <pt x="1154" y="1191" on="1"/>
        <pt x="1154" y="1265" on="0"/>
        <pt x="1130" y="1372" on="0"/>
        <pt x="1092" y="1447" on="0"/>
        <pt x="1042" y="1494" on="0"/>
        <pt x="991" y="1519" on="0"/>
        <pt x="942" y="1528" on="0"/>
        <pt x="923" y="1528" on="1"/>
        <pt x="843" y="1528" on="0"/>
        <pt x="717" y="1452" on="0"/>
        <pt x="630" y="1314" on="0"/>
        <pt x="584" y="1119" on="0"/>
        <pt x="584" y="1000" on="1"/>
        <pt x="584" y="907" on="0"/>
        <pt x="616" y="749" on="0"/>
        <pt x="664" y="619" on="0"/>
        <pt x="721" y="519" on="0"/>
        <pt x="770" y="451" on="0"/>
        <pt x="802" y="415" on="0"/>
        <pt x="803" y="415" on="1"/>
        <pt x="772" y="383" on="1"/>
        <pt x="708" y="438" on="0"/>
        <pt x="596" y="572" on="0"/>
        <pt x="514" y="726" on="0"/>
        <pt x="466" y="899" on="0"/>
        <pt x="466" y="994" on="1"/>
        <pt x="466" y="1102" on="0"/>
        <pt x="528" y="1312" on="0"/>
        <pt x="646" y="1479" on="0"/>
        <pt x="818" y="1581" on="0"/>
        <pt x="928" y="1581" on="1"/>
        <pt x="953" y="1581" on="0"/>
        <pt x="1019" y="1571" on="0"/>
        <pt x="1089" y="1540" on="0"/>
        <pt x="1158" y="1484" on="0"/>
        <pt x="1211" y="1391" on="0"/>
        <pt x="1244" y="1256" on="0"/>
        <pt x="1244" y="1162" on="1"/>
        <pt x="1244" y="1119" on="0"/>
        <pt x="1236" y="1022" on="0"/>
        <pt x="1228" y="966" on="1"/>
        <pt x="1200" y="780" on="0"/>
        <pt x="1088" y="421" on="0"/>
        <pt x="1007" y="247" on="1"/>
        <pt x="1049" y="238" on="0"/>
        <pt x="1129" y="218" on="0"/>
        <pt x="1168" y="207" on="1"/>
      </contour>
      <contour>
        <pt x="-55" y="-713" on="1"/>
        <pt x="20" y="-717" on="0"/>
        <pt x="182" y="-651" on="0"/>
        <pt x="346" y="-526" on="0"/>
        <pt x="509" y="-350" on="0"/>
        <pt x="664" y="-140" on="0"/>
        <pt x="807" y="96" on="0"/>
        <pt x="869" y="220" on="1"/>
        <pt x="818" y="227" on="0"/>
        <pt x="717" y="235" on="0"/>
        <pt x="664" y="235" on="1"/>
        <pt x="508" y="235" on="0"/>
        <pt x="243" y="165" on="0"/>
        <pt x="26" y="49" on="0"/>
        <pt x="-140" y="-101" on="0"/>
        <pt x="-252" y="-260" on="0"/>
        <pt x="-310" y="-417" on="0"/>
        <pt x="-310" y="-482" on="1"/>
        <pt x="-310" y="-533" on="0"/>
        <pt x="-275" y="-618" on="0"/>
        <pt x="-210" y="-679" on="0"/>
        <pt x="-115" y="-713" on="0"/>
      </contour>
    </TTGlyph>
    <TTGlyph name="Jcircumflex" xMin="-400" yMin="-765" xMax="1244" yMax="1875">
      <component glyphName="J" x="0" y="0" flags="0x204"/>
      <component glyphName="circumflex" x="661" y="825" flags="0x4"/>
    </TTGlyph>
    <TTGlyph name="K" xMin="-80" yMin="-230" xMax="2800" yMax="1509">
      <contour>
        <pt x="1679" y="1352" on="1"/>
        <pt x="1620" y="1330" on="0"/>
        <pt x="1521" y="1302" on="0"/>
        <pt x="1434" y="1286" on="0"/>
        <pt x="1353" y="1280" on="0"/>
        <pt x="1311" y="1280" on="1"/>
        <pt x="1243" y="1280" on="0"/>
        <pt x="1097" y="1299" on="0"/>
        <pt x="1029" y="1299" on="1"/>
        <pt x="938" y="1299" on="0"/>
        <pt x="771" y="1252" on="0"/>
        <pt x="643" y="1159" on="0"/>
        <pt x="567" y="1019" on="0"/>
        <pt x="567" y="925" on="1"/>
        <pt x="567" y="868" on="0"/>
        <pt x="603" y="775" on="0"/>
        <pt x="671" y="709" on="0"/>
        <pt x="769" y="673" on="0"/>
        <pt x="830" y="673" on="1"/>
        <pt x="899" y="673" on="0"/>
        <pt x="1001" y="707" on="0"/>
        <pt x="1068" y="749" on="0"/>
        <pt x="1102" y="785" on="0"/>
        <pt x="1104" y="787" on="1"/>
        <pt x="1146" y="756" on="1"/>
        <pt x="1143" y="752" on="0"/>
        <pt x="1093" y="704" on="0"/>
        <pt x="1002" y="650" on="0"/>
        <pt x="869" y="606" on="0"/>
        <pt x="783" y="606" on="1"/>
        <pt x="727" y="606" on="0"/>
        <pt x="610" y="636" on="0"/>
        <pt x="514" y="708" on="0"/>
        <pt x="452" y="826" on="0"/>
        <pt x="452" y="913" on="1"/>
        <pt x="452" y="984" on="0"/>
        <pt x="496" y="1104" on="0"/>
        <pt x="573" y="1202" on="0"/>
        <pt x="680" y="1277" on="0"/>
        <pt x="805" y="1327" on="0"/>
        <pt x="945" y="1353" on="0"/>
        <pt x="1017" y="1353" on="1"/>
        <pt x="1048" y="1353" on="0"/>
        <pt x="1131" y="1346" on="0"/>
        <pt x="1218" y="1339" on="0"/>
        <pt x="1302" y="1332" on="0"/>
        <pt x="1335" y="1332" on="1"/>
        <pt x="1372" y="1332" on="0"/>
        <pt x="1457" y="1341" on="0"/>
        <pt x="1560" y="1365" on="0"/>
        <pt x="1684" y="1408" on="0"/>
        <pt x="1761" y="1442" on="1"/>
        <pt x="1786" y="1397" on="1"/>
        <pt x="1786" y="1397" on="0"/>
        <pt x="1744" y="1355" on="0"/>
        <pt x="1670" y="1249" on="0"/>
        <pt x="1570" y="1065" on="0"/>
        <pt x="1510" y="922" on="1"/>
        <pt x="1450" y="778" on="0"/>
        <pt x="1327" y="495" on="0"/>
        <pt x="1185" y="241" on="0"/>
        <pt x="1016" y="24" on="0"/>
        <pt x="803" y="-134" on="0"/>
        <pt x="540" y="-223" on="0"/>
        <pt x="374" y="-223" on="1"/>
        <pt x="275" y="-223" on="0"/>
        <pt x="108" y="-177" on="0"/>
        <pt x="-12" y="-90" on="0"/>
        <pt x="-80" y="34" on="0"/>
        <pt x="-80" y="112" on="1"/>
        <pt x="-80" y="209" on="0"/>
        <pt x="2" y="354" on="0"/>
        <pt x="138" y="452" on="0"/>
        <pt x="317" y="501" on="0"/>
        <pt x="413" y="501" on="1"/>
        <pt x="505" y="501" on="0"/>
        <pt x="691" y="465" on="0"/>
        <pt x="777" y="432" on="1"/>
        <pt x="758" y="383" on="1"/>
        <pt x="694" y="407" on="0"/>
        <pt x="540" y="432" on="0"/>
        <pt x="473" y="432" on="1"/>
        <pt x="370" y="432" on="0"/>
        <pt x="208" y="388" on="0"/>
        <pt x="95" y="305" on="0"/>
        <pt x="36" y="187" on="0"/>
        <pt x="36" y="114" on="1"/>
        <pt x="36" y="41" on="0"/>
        <pt x="105" y="-64" on="0"/>
        <pt x="215" y="-131" on="0"/>
        <pt x="350" y="-163" on="0"/>
        <pt x="415" y="-163" on="1"/>
        <pt x="536" y="-163" on="0"/>
        <pt x="731" y="-98" on="0"/>
        <pt x="889" y="14" on="0"/>
        <pt x="1014" y="164" on="0"/>
        <pt x="1119" y="335" on="0"/>
        <pt x="1207" y="517" on="0"/>
        <pt x="1248" y="605" on="1"/>
        <pt x="1319" y="769" on="0"/>
        <pt x="1393" y="914" on="1"/>
        <pt x="1424" y="976" on="0"/>
        <pt x="1495" y="1104" on="0"/>
        <pt x="1569" y="1221" on="0"/>
        <pt x="1644" y="1320" on="0"/>
      </contour>
      <contour>
        <pt x="2696" y="1109" on="1"/>
        <pt x="2696" y="1110" on="0"/>
        <pt x="2712" y="1142" on="0"/>
        <pt x="2731" y="1193" on="0"/>
        <pt x="2746" y="1257" on="0"/>
        <pt x="2746" y="1290" on="1"/>
        <pt x="2746" y="1324" on="0"/>
        <pt x="2721" y="1381" on="0"/>
        <pt x="2678" y="1422" on="0"/>
        <pt x="2618" y="1445" on="0"/>
        <pt x="2584" y="1445" on="1"/>
        <pt x="2539" y="1445" on="0"/>
        <pt x="2454" y="1397" on="0"/>
        <pt x="2361" y="1288" on="0"/>
        <pt x="2253" y="1113" on="0"/>
        <pt x="2184" y="986" on="1"/>
        <pt x="2146" y="915" on="0"/>
        <pt x="2069" y="806" on="0"/>
        <pt x="1993" y="724" on="0"/>
        <pt x="1919" y="665" on="0"/>
        <pt x="1884" y="645" on="1"/>
        <pt x="1917" y="606" on="0"/>
        <pt x="1962" y="491" on="0"/>
        <pt x="1962" y="407" on="1"/>
        <pt x="1962" y="362" on="0"/>
        <pt x="1939" y="254" on="0"/>
        <pt x="1912" y="144" on="0"/>
        <pt x="1890" y="40" on="0"/>
        <pt x="1890" y="0" on="1"/>
        <pt x="1890" y="-54" on="0"/>
        <pt x="1922" y="-120" on="0"/>
        <pt x="1972" y="-157" on="0"/>
        <pt x="2031" y="-169" on="0"/>
        <pt x="2057" y="-169" on="1"/>
        <pt x="2100" y="-169" on="0"/>
        <pt x="2179" y="-142" on="0"/>
        <pt x="2210" y="-125" on="1"/>
        <pt x="2246" y="-106" on="0"/>
        <pt x="2277" y="-80" on="1"/>
        <pt x="2310" y="-121" on="1"/>
        <pt x="2307" y="-123" on="0"/>
        <pt x="2260" y="-158" on="0"/>
        <pt x="2183" y="-198" on="0"/>
        <pt x="2085" y="-230" on="0"/>
        <pt x="2032" y="-230" on="1"/>
        <pt x="1977" y="-230" on="0"/>
        <pt x="1882" y="-192" on="0"/>
        <pt x="1813" y="-122" on="0"/>
        <pt x="1773" y="-26" on="0"/>
        <pt x="1773" y="33" on="1"/>
        <pt x="1773" y="89" on="0"/>
        <pt x="1801" y="199" on="0"/>
        <pt x="1835" y="305" on="0"/>
        <pt x="1863" y="405" on="0"/>
        <pt x="1863" y="451" on="1"/>
        <pt x="1863" y="491" on="0"/>
        <pt x="1844" y="575" on="0"/>
        <pt x="1817" y="613" on="1"/>
        <pt x="1771" y="599" on="0"/>
        <pt x="1687" y="581" on="0"/>
        <pt x="1633" y="581" on="1"/>
        <pt x="1588" y="581" on="0"/>
        <pt x="1536" y="602" on="0"/>
        <pt x="1511" y="629" on="0"/>
        <pt x="1504" y="656" on="0"/>
        <pt x="1504" y="663" on="1"/>
        <pt x="1504" y="705" on="0"/>
        <pt x="1579" y="764" on="0"/>
        <pt x="1644" y="764" on="1"/>
        <pt x="1679" y="764" on="0"/>
        <pt x="1775" y="733" on="0"/>
        <pt x="1827" y="697" on="1"/>
        <pt x="1882" y="736" on="0"/>
        <pt x="1975" y="854" on="0"/>
        <pt x="2059" y="995" on="0"/>
        <pt x="2139" y="1150" on="0"/>
        <pt x="2181" y="1227" on="1"/>
        <pt x="2256" y="1364" on="0"/>
        <pt x="2446" y="1509" on="0"/>
        <pt x="2552" y="1509" on="1"/>
        <pt x="2598" y="1509" on="0"/>
        <pt x="2687" y="1480" on="0"/>
        <pt x="2757" y="1424" on="0"/>
        <pt x="2800" y="1343" on="0"/>
        <pt x="2800" y="1291" on="1"/>
        <pt x="2800" y="1253" on="0"/>
        <pt x="2783" y="1181" on="0"/>
        <pt x="2762" y="1124" on="0"/>
        <pt x="2743" y="1087" on="0"/>
        <pt x="2742" y="1084" on="1"/>
      </contour>
      <contour>
        <pt x="1771" y="664" on="1"/>
        <pt x="1745" y="684" on="0"/>
        <pt x="1676" y="712" on="0"/>
        <pt x="1642" y="712" on="1"/>
        <pt x="1603" y="712" on="0"/>
        <pt x="1560" y="685" on="0"/>
        <pt x="1560" y="667" on="1"/>
        <pt x="1560" y="656" on="0"/>
        <pt x="1589" y="634" on="0"/>
        <pt x="1632" y="634" on="1"/>
        <pt x="1663" y="634" on="0"/>
        <pt x="1738" y="649" on="0"/>
      </contour>
    </TTGlyph>
    <TTGlyph name="Kcommaaccent" xMin="-80" yMin="-537" xMax="2800" yMax="1509">
      <component glyphName="K" x="0" y="0" flags="0x204"/>
      <component glyphName="commaaccent" x="1218" y="-189" flags="0x4"/>
    </TTGlyph>
    <TTGlyph name="L" xMin="20" yMin="-129" xMax="1928" yMax="1459">
      <contour>
        <pt x="1133" y="-129" on="1"/>
        <pt x="1068" y="-129" on="0"/>
        <pt x="935" y="-106" on="0"/>
        <pt x="799" y="-69" on="0"/>
        <pt x="663" y="-25" on="0"/>
        <pt x="597" y="-4" on="1"/>
        <pt x="518" y="-52" on="0"/>
        <pt x="346" y="-107" on="0"/>
        <pt x="251" y="-107" on="1"/>
        <pt x="170" y="-107" on="0"/>
        <pt x="84" y="-49" on="0"/>
        <pt x="84" y="-1" on="1"/>
        <pt x="84" y="62" on="0"/>
        <pt x="224" y="130" on="0"/>
        <pt x="366" y="130" on="1"/>
        <pt x="428" y="130" on="0"/>
        <pt x="554" y="112" on="0"/>
        <pt x="619" y="98" on="1"/>
        <pt x="682" y="153" on="0"/>
        <pt x="796" y="291" on="0"/>
        <pt x="850" y="370" on="1"/>
        <pt x="809" y="365" on="0"/>
        <pt x="725" y="360" on="0"/>
        <pt x="682" y="360" on="1"/>
        <pt x="525" y="360" on="0"/>
        <pt x="279" y="435" on="0"/>
        <pt x="109" y="566" on="0"/>
        <pt x="20" y="743" on="0"/>
        <pt x="20" y="845" on="1"/>
        <pt x="20" y="965" on="0"/>
        <pt x="112" y="1151" on="0"/>
        <pt x="273" y="1278" on="0"/>
        <pt x="491" y="1345" on="0"/>
        <pt x="616" y="1345" on="1"/>
        <pt x="695" y="1345" on="0"/>
        <pt x="825" y="1321" on="0"/>
        <pt x="920" y="1293" on="0"/>
        <pt x="974" y="1267" on="0"/>
        <pt x="977" y="1266" on="1"/>
        <pt x="951" y="1221" on="1"/>
        <pt x="950" y="1221" on="0"/>
        <pt x="902" y="1244" on="0"/>
        <pt x="818" y="1270" on="0"/>
        <pt x="702" y="1292" on="0"/>
        <pt x="635" y="1292" on="1"/>
        <pt x="517" y="1292" on="0"/>
        <pt x="330" y="1223" on="0"/>
        <pt x="201" y="1103" on="0"/>
        <pt x="132" y="942" on="0"/>
        <pt x="132" y="851" on="1"/>
        <pt x="132" y="749" on="0"/>
        <pt x="226" y="588" on="0"/>
        <pt x="384" y="477" on="0"/>
        <pt x="593" y="419" on="0"/>
        <pt x="708" y="419" on="1"/>
        <pt x="755" y="419" on="0"/>
        <pt x="846" y="425" on="0"/>
        <pt x="891" y="432" on="1"/>
        <pt x="962" y="543" on="0"/>
        <pt x="1095" y="781" on="0"/>
        <pt x="1227" y="1009" on="0"/>
        <pt x="1361" y="1214" on="0"/>
        <pt x="1506" y="1368" on="0"/>
        <pt x="1666" y="1459" on="0"/>
        <pt x="1758" y="1459" on="1"/>
        <pt x="1794" y="1459" on="0"/>
        <pt x="1856" y="1436" on="0"/>
        <pt x="1902" y="1389" on="0"/>
        <pt x="1928" y="1317" on="0"/>
        <pt x="1928" y="1269" on="1"/>
        <pt x="1928" y="1191" on="0"/>
        <pt x="1868" y="1018" on="0"/>
        <pt x="1754" y="845" on="0"/>
        <pt x="1590" y="678" on="0"/>
        <pt x="1382" y="536" on="0"/>
        <pt x="1134" y="425" on="0"/>
        <pt x="994" y="394" on="1"/>
        <pt x="928" y="303" on="0"/>
        <pt x="788" y="142" on="0"/>
        <pt x="710" y="77" on="1"/>
        <pt x="786" y="57" on="0"/>
        <pt x="932" y="12" on="0"/>
        <pt x="1063" y="-25" on="0"/>
        <pt x="1175" y="-50" on="0"/>
        <pt x="1218" y="-50" on="1"/>
        <pt x="1282" y="-50" on="0"/>
        <pt x="1401" y="-6" on="0"/>
        <pt x="1460" y="50" on="1"/>
        <pt x="1501" y="18" on="1"/>
        <pt x="1500" y="17" on="0"/>
        <pt x="1480" y="-6" on="0"/>
        <pt x="1440" y="-39" on="0"/>
        <pt x="1380" y="-76" on="0"/>
        <pt x="1299" y="-108" on="0"/>
        <pt x="1196" y="-129" on="0"/>
      </contour>
      <contour>
        <pt x="1762" y="1404" on="1"/>
        <pt x="1706" y="1404" on="0"/>
        <pt x="1596" y="1324" on="0"/>
        <pt x="1484" y="1187" on="0"/>
        <pt x="1369" y="1002" on="0"/>
        <pt x="1247" y="793" on="0"/>
        <pt x="1115" y="571" on="0"/>
        <pt x="1043" y="464" on="1"/>
        <pt x="1163" y="497" on="0"/>
        <pt x="1380" y="603" on="0"/>
        <pt x="1565" y="735" on="0"/>
        <pt x="1714" y="886" on="0"/>
        <pt x="1819" y="1044" on="0"/>
        <pt x="1875" y="1199" on="0"/>
        <pt x="1875" y="1270" on="1"/>
        <pt x="1875" y="1307" on="0"/>
        <pt x="1857" y="1358" on="0"/>
        <pt x="1826" y="1390" on="0"/>
        <pt x="1785" y="1404" on="0"/>
      </contour>
      <contour>
        <pt x="245" y="-55" on="1"/>
        <pt x="319" y="-55" on="0"/>
        <pt x="451" y="-14" on="0"/>
        <pt x="513" y="22" on="1"/>
        <pt x="447" y="41" on="0"/>
        <pt x="324" y="65" on="0"/>
        <pt x="267" y="65" on="1"/>
        <pt x="199" y="65" on="0"/>
        <pt x="136" y="25" on="0"/>
        <pt x="136" y="-1" on="1"/>
        <pt x="136" y="-9" on="0"/>
        <pt x="145" y="-28" on="0"/>
        <pt x="169" y="-44" on="0"/>
        <pt x="211" y="-55" on="0"/>
      </contour>
    </TTGlyph>
    <TTGlyph name="Lacute" xMin="20" yMin="-129" xMax="1954" yMax="1753">
      <component glyphName="L" x="0" y="0" flags="0x204"/>
      <component glyphName="acute" x="1448" y="703" flags="0x4"/>
    </TTGlyph>
    <TTGlyph name="Lcaron" xMin="20" yMin="-129" xMax="2200" yMax="1459">
      <component glyphName="L" x="0" y="0" flags="0x4"/>
      <component glyphName="quoteright" x="1585" y="0" flags="0x4"/>
    </TTGlyph>
    <TTGlyph name="Lcommaaccent" xMin="20" yMin="-475" xMax="1928" yMax="1459">
      <component glyphName="L" x="0" y="0" flags="0x204"/>
      <component glyphName="commaaccent" x="465" y="-127" flags="0x4"/>
    </TTGlyph>
    <TTGlyph name="Ldot" xMin="20" yMin="-129" xMax="1928" yMax="1459">
      <component glyphName="L" x="0" y="0" flags="0x204"/>
      <component glyphName="periodcentered" x="1134" y="-404" flags="0x4"/>
    </TTGlyph>
    <TTGlyph name="Lslash" xMin="20" yMin="-129" xMax="1928" yMax="1459">
      <contour>
        <pt x="933" y="312" on="1"/>
        <pt x="881" y="245" on="0"/>
        <pt x="770" y="127" on="0"/>
        <pt x="710" y="77" on="1"/>
        <pt x="786" y="57" on="0"/>
        <pt x="932" y="12" on="0"/>
        <pt x="1063" y="-25" on="0"/>
        <pt x="1175" y="-50" on="0"/>
        <pt x="1218" y="-50" on="1"/>
        <pt x="1282" y="-50" on="0"/>
        <pt x="1401" y="-6" on="0"/>
        <pt x="1460" y="50" on="1"/>
        <pt x="1501" y="18" on="1"/>
        <pt x="1500" y="17" on="0"/>
        <pt x="1480" y="-6" on="0"/>
        <pt x="1440" y="-39" on="0"/>
        <pt x="1380" y="-76" on="0"/>
        <pt x="1299" y="-108" on="0"/>
        <pt x="1196" y="-129" on="0"/>
        <pt x="1133" y="-129" on="1"/>
        <pt x="1068" y="-129" on="0"/>
        <pt x="935" y="-106" on="0"/>
        <pt x="799" y="-69" on="0"/>
        <pt x="663" y="-25" on="0"/>
        <pt x="597" y="-4" on="1"/>
        <pt x="518" y="-52" on="0"/>
        <pt x="346" y="-107" on="0"/>
        <pt x="251" y="-107" on="1"/>
        <pt x="170" y="-107" on="0"/>
        <pt x="84" y="-49" on="0"/>
        <pt x="84" y="-1" on="1"/>
        <pt x="84" y="62" on="0"/>
        <pt x="224" y="130" on="0"/>
        <pt x="366" y="130" on="1"/>
        <pt x="428" y="130" on="0"/>
        <pt x="554" y="112" on="0"/>
        <pt x="619" y="98" on="1"/>
        <pt x="661" y="135" on="0"/>
        <pt x="740" y="221" on="0"/>
        <pt x="778" y="270" on="1"/>
        <pt x="534" y="205" on="1"/>
        <pt x="546" y="265" on="1"/>
        <pt x="830" y="341" on="1"/>
        <pt x="865" y="392" on="0"/>
        <pt x="933" y="497" on="0"/>
        <pt x="966" y="553" on="1"/>
        <pt x="897" y="542" on="0"/>
        <pt x="757" y="530" on="0"/>
        <pt x="682" y="530" on="1"/>
        <pt x="525" y="530" on="0"/>
        <pt x="279" y="592" on="0"/>
        <pt x="109" y="700" on="0"/>
        <pt x="20" y="847" on="0"/>
        <pt x="20" y="931" on="1"/>
        <pt x="20" y="1030" on="0"/>
        <pt x="112" y="1184" on="0"/>
        <pt x="273" y="1290" on="0"/>
        <pt x="491" y="1345" on="0"/>
        <pt x="616" y="1345" on="1"/>
        <pt x="695" y="1345" on="0"/>
        <pt x="825" y="1321" on="0"/>
        <pt x="920" y="1293" on="0"/>
        <pt x="974" y="1267" on="0"/>
        <pt x="977" y="1266" on="1"/>
        <pt x="951" y="1221" on="1"/>
        <pt x="950" y="1221" on="0"/>
        <pt x="902" y="1244" on="0"/>
        <pt x="818" y="1270" on="0"/>
        <pt x="702" y="1292" on="0"/>
        <pt x="635" y="1292" on="1"/>
        <pt x="517" y="1292" on="0"/>
        <pt x="330" y="1236" on="0"/>
        <pt x="201" y="1140" on="0"/>
        <pt x="132" y="1010" on="0"/>
        <pt x="132" y="937" on="1"/>
        <pt x="132" y="854" on="0"/>
        <pt x="226" y="725" on="0"/>
        <pt x="384" y="636" on="0"/>
        <pt x="593" y="589" on="0"/>
        <pt x="708" y="589" on="1"/>
        <pt x="785" y="589" on="0"/>
        <pt x="932" y="603" on="0"/>
        <pt x="1003" y="617" on="1"/>
        <pt x="1061" y="718" on="0"/>
        <pt x="1175" y="922" on="0"/>
        <pt x="1290" y="1109" on="0"/>
        <pt x="1409" y="1271" on="0"/>
        <pt x="1538" y="1391" on="0"/>
        <pt x="1679" y="1459" on="0"/>
        <pt x="1758" y="1459" on="1"/>
        <pt x="1794" y="1459" on="0"/>
        <pt x="1856" y="1436" on="0"/>
        <pt x="1902" y="1389" on="0"/>
        <pt x="1928" y="1317" on="0"/>
        <pt x="1928" y="1269" on="1"/>
        <pt x="1928" y="1211" on="0"/>
        <pt x="1876" y="1082" on="0"/>
        <pt x="1779" y="952" on="0"/>
        <pt x="1638" y="825" on="0"/>
        <pt x="1458" y="712" on="0"/>
        <pt x="1243" y="618" on="0"/>
        <pt x="1121" y="586" on="1"/>
        <pt x="1089" y="534" on="0"/>
        <pt x="1022" y="432" on="0"/>
        <pt x="986" y="383" on="1"/>
        <pt x="1257" y="456" on="1"/>
        <pt x="1245" y="396" on="1"/>
      </contour>
      <contour>
        <pt x="1762" y="1404" on="1"/>
        <pt x="1714" y="1404" on="0"/>
        <pt x="1620" y="1345" on="0"/>
        <pt x="1526" y="1242" on="0"/>
        <pt x="1429" y="1100" on="0"/>
        <pt x="1329" y="934" on="0"/>
        <pt x="1223" y="751" on="0"/>
        <pt x="1166" y="657" on="1"/>
        <pt x="1323" y="705" on="0"/>
        <pt x="1583" y="851" on="0"/>
        <pt x="1771" y="1018" on="0"/>
        <pt x="1875" y="1193" on="0"/>
        <pt x="1875" y="1270" on="1"/>
        <pt x="1875" y="1307" on="0"/>
        <pt x="1857" y="1358" on="0"/>
        <pt x="1826" y="1390" on="0"/>
        <pt x="1785" y="1404" on="0"/>
      </contour>
      <contour>
        <pt x="245" y="-55" on="1"/>
        <pt x="319" y="-55" on="0"/>
        <pt x="451" y="-14" on="0"/>
        <pt x="513" y="22" on="1"/>
        <pt x="447" y="41" on="0"/>
        <pt x="324" y="65" on="0"/>
        <pt x="267" y="65" on="1"/>
        <pt x="199" y="65" on="0"/>
        <pt x="136" y="25" on="0"/>
        <pt x="136" y="-1" on="1"/>
        <pt x="136" y="-9" on="0"/>
        <pt x="145" y="-28" on="0"/>
        <pt x="169" y="-44" on="0"/>
        <pt x="211" y="-55" on="0"/>
      </contour>
    </TTGlyph>
    <TTGlyph name="M" xMin="-80" yMin="-422" xMax="2645" yMax="1451">
      <contour>
        <pt x="2645" y="-345" on="1"/>
        <pt x="2642" y="-347" on="0"/>
        <pt x="2594" y="-371" on="0"/>
        <pt x="2516" y="-399" on="0"/>
        <pt x="2416" y="-422" on="0"/>
        <pt x="2362" y="-422" on="1"/>
        <pt x="2274" y="-422" on="0"/>
        <pt x="2134" y="-360" on="0"/>
        <pt x="2037" y="-247" on="0"/>
        <pt x="1985" y="-88" on="0"/>
        <pt x="1985" y="9" on="1"/>
        <pt x="1985" y="102" on="0"/>
        <pt x="2031" y="325" on="0"/>
        <pt x="2105" y="561" on="0"/>
        <pt x="2198" y="797" on="0"/>
        <pt x="2293" y="1010" on="0"/>
        <pt x="2379" y="1187" on="0"/>
        <pt x="2410" y="1246" on="1"/>
        <pt x="2354" y="1182" on="0"/>
        <pt x="2210" y="1015" on="0"/>
        <pt x="2047" y="816" on="0"/>
        <pt x="1871" y="591" on="0"/>
        <pt x="1692" y="348" on="0"/>
        <pt x="1516" y="93" on="0"/>
        <pt x="1436" y="-36" on="1"/>
        <pt x="1388" y="-20" on="1"/>
        <pt x="1403" y="143" on="0"/>
        <pt x="1472" y="464" on="0"/>
        <pt x="1559" y="761" on="0"/>
        <pt x="1656" y="1022" on="0"/>
        <pt x="1700" y="1125" on="1"/>
        <pt x="1633" y="1033" on="0"/>
        <pt x="1500" y="818" on="0"/>
        <pt x="1364" y="591" on="0"/>
        <pt x="1220" y="362" on="0"/>
        <pt x="1064" y="151" on="0"/>
        <pt x="891" y="-32" on="0"/>
        <pt x="696" y="-167" on="0"/>
        <pt x="475" y="-245" on="0"/>
        <pt x="349" y="-245" on="1"/>
        <pt x="252" y="-245" on="0"/>
        <pt x="94" y="-187" on="0"/>
        <pt x="-19" y="-86" on="0"/>
        <pt x="-80" y="50" on="0"/>
        <pt x="-80" y="129" on="1"/>
        <pt x="-80" y="206" on="0"/>
        <pt x="-31" y="331" on="0"/>
        <pt x="51" y="428" on="0"/>
        <pt x="160" y="499" on="0"/>
        <pt x="280" y="545" on="0"/>
        <pt x="403" y="567" on="0"/>
        <pt x="459" y="567" on="1"/>
        <pt x="575" y="567" on="0"/>
        <pt x="787" y="512" on="0"/>
        <pt x="885" y="442" on="1"/>
        <pt x="850" y="403" on="1"/>
        <pt x="849" y="404" on="0"/>
        <pt x="799" y="439" on="0"/>
        <pt x="705" y="481" on="0"/>
        <pt x="566" y="515" on="0"/>
        <pt x="477" y="515" on="1"/>
        <pt x="391" y="515" on="0"/>
        <pt x="230" y="469" on="0"/>
        <pt x="107" y="376" on="0"/>
        <pt x="33" y="235" on="0"/>
        <pt x="33" y="140" on="1"/>
        <pt x="33" y="72" on="0"/>
        <pt x="86" y="-44" on="0"/>
        <pt x="180" y="-129" on="0"/>
        <pt x="312" y="-177" on="0"/>
        <pt x="392" y="-177" on="1"/>
        <pt x="512" y="-177" on="0"/>
        <pt x="732" y="-75" on="0"/>
        <pt x="936" y="99" on="0"/>
        <pt x="1125" y="331" on="0"/>
        <pt x="1300" y="589" on="0"/>
        <pt x="1464" y="861" on="0"/>
        <pt x="1618" y="1114" on="0"/>
        <pt x="1764" y="1335" on="0"/>
        <pt x="1834" y="1415" on="1"/>
        <pt x="1879" y="1388" on="1"/>
        <pt x="1835" y="1254" on="0"/>
        <pt x="1771" y="1051" on="0"/>
        <pt x="1724" y="897" on="0"/>
        <pt x="1691" y="785" on="0"/>
        <pt x="1667" y="697" on="0"/>
        <pt x="1648" y="626" on="0"/>
        <pt x="1629" y="556" on="0"/>
        <pt x="1605" y="478" on="0"/>
        <pt x="1571" y="375" on="0"/>
        <pt x="1525" y="240" on="0"/>
        <pt x="1492" y="148" on="1"/>
        <pt x="1576" y="275" on="0"/>
        <pt x="1753" y="521" on="0"/>
        <pt x="1929" y="751" on="0"/>
        <pt x="2098" y="961" on="0"/>
        <pt x="2249" y="1141" on="0"/>
        <pt x="2376" y="1288" on="0"/>
        <pt x="2470" y="1392" on="0"/>
        <pt x="2523" y="1450" on="0"/>
        <pt x="2524" y="1451" on="1"/>
        <pt x="2566" y="1420" on="1"/>
        <pt x="2507" y="1274" on="0"/>
        <pt x="2391" y="981" on="0"/>
        <pt x="2284" y="703" on="0"/>
        <pt x="2192" y="445" on="0"/>
        <pt x="2124" y="220" on="0"/>
        <pt x="2085" y="35" on="0"/>
        <pt x="2085" y="-31" on="1"/>
        <pt x="2085" y="-109" on="0"/>
        <pt x="2122" y="-235" on="0"/>
        <pt x="2192" y="-323" on="0"/>
        <pt x="2295" y="-370" on="0"/>
        <pt x="2360" y="-370" on="1"/>
        <pt x="2409" y="-370" on="0"/>
        <pt x="2502" y="-348" on="0"/>
        <pt x="2574" y="-322" on="0"/>
        <pt x="2618" y="-300" on="0"/>
        <pt x="2619" y="-300" on="1"/>
      </contour>
    </TTGlyph>
    <TTGlyph name="N" xMin="-60" yMin="-166" xMax="2930" yMax="1605">
      <contour>
        <pt x="2873" y="1293" on="1"/>
        <pt x="2875" y="1305" on="0"/>
        <pt x="2878" y="1328" on="0"/>
        <pt x="2878" y="1339" on="1"/>
        <pt x="2878" y="1381" on="0"/>
        <pt x="2845" y="1458" on="0"/>
        <pt x="2782" y="1517" on="0"/>
        <pt x="2692" y="1552" on="0"/>
        <pt x="2636" y="1552" on="1"/>
        <pt x="2577" y="1552" on="0"/>
        <pt x="2445" y="1501" on="0"/>
        <pt x="2379" y="1437" on="1"/>
        <pt x="2315" y="1375" on="0"/>
        <pt x="2180" y="1180" on="0"/>
        <pt x="2047" y="945" on="0"/>
        <pt x="1920" y="685" on="0"/>
        <pt x="1806" y="433" on="0"/>
        <pt x="1710" y="203" on="0"/>
        <pt x="1640" y="28" on="0"/>
        <pt x="1601" y="-78" on="0"/>
        <pt x="1600" y="-80" on="1"/>
        <pt x="1549" y="-67" on="1"/>
        <pt x="1537" y="10" on="0"/>
        <pt x="1518" y="134" on="0"/>
        <pt x="1505" y="248" on="0"/>
        <pt x="1499" y="360" on="0"/>
        <pt x="1499" y="424" on="1"/>
        <pt x="1499" y="476" on="0"/>
        <pt x="1508" y="610" on="0"/>
        <pt x="1525" y="760" on="0"/>
        <pt x="1548" y="918" on="0"/>
        <pt x="1575" y="1070" on="0"/>
        <pt x="1605" y="1207" on="0"/>
        <pt x="1621" y="1262" on="1"/>
        <pt x="1536" y="1135" on="0"/>
        <pt x="1395" y="877" on="0"/>
        <pt x="1269" y="629" on="0"/>
        <pt x="1151" y="396" on="0"/>
        <pt x="1027" y="192" on="0"/>
        <pt x="889" y="22" on="0"/>
        <pt x="724" y="-99" on="0"/>
        <pt x="524" y="-166" on="0"/>
        <pt x="400" y="-166" on="1"/>
        <pt x="306" y="-166" on="0"/>
        <pt x="139" y="-114" on="0"/>
        <pt x="13" y="-20" on="0"/>
        <pt x="-60" y="114" on="0"/>
        <pt x="-60" y="195" on="1"/>
        <pt x="-60" y="287" on="0"/>
        <pt x="19" y="432" on="0"/>
        <pt x="149" y="531" on="0"/>
        <pt x="319" y="583" on="0"/>
        <pt x="410" y="583" on="1"/>
        <pt x="462" y="583" on="0"/>
        <pt x="569" y="569" on="0"/>
        <pt x="672" y="537" on="0"/>
        <pt x="768" y="484" on="0"/>
        <pt x="809" y="445" on="1"/>
        <pt x="770" y="410" on="1"/>
        <pt x="770" y="410" on="0"/>
        <pt x="727" y="447" on="0"/>
        <pt x="642" y="491" on="0"/>
        <pt x="512" y="528" on="0"/>
        <pt x="425" y="528" on="1"/>
        <pt x="355" y="528" on="0"/>
        <pt x="223" y="488" on="0"/>
        <pt x="120" y="410" on="0"/>
        <pt x="58" y="296" on="0"/>
        <pt x="58" y="221" on="1"/>
        <pt x="58" y="144" on="0"/>
        <pt x="124" y="23" on="0"/>
        <pt x="234" y="-60" on="0"/>
        <pt x="374" y="-103" on="0"/>
        <pt x="448" y="-103" on="1"/>
        <pt x="558" y="-103" on="0"/>
        <pt x="737" y="-30" on="0"/>
        <pt x="890" y="102" on="0"/>
        <pt x="1023" y="286" on="0"/>
        <pt x="1149" y="508" on="0"/>
        <pt x="1277" y="761" on="0"/>
        <pt x="1419" y="1031" on="0"/>
        <pt x="1583" y="1311" on="0"/>
        <pt x="1682" y="1449" on="1"/>
        <pt x="1728" y="1425" on="1"/>
        <pt x="1695" y="1328" on="0"/>
        <pt x="1655" y="1113" on="0"/>
        <pt x="1634" y="886" on="0"/>
        <pt x="1627" y="654" on="0"/>
        <pt x="1625" y="428" on="0"/>
        <pt x="1624" y="213" on="0"/>
        <pt x="1619" y="117" on="1"/>
        <pt x="1653" y="204" on="0"/>
        <pt x="1749" y="436" on="0"/>
        <pt x="1865" y="694" on="0"/>
        <pt x="1996" y="961" on="0"/>
        <pt x="2133" y="1205" on="0"/>
        <pt x="2274" y="1408" on="0"/>
        <pt x="2342" y="1474" on="1"/>
        <pt x="2417" y="1546" on="0"/>
        <pt x="2568" y="1605" on="0"/>
        <pt x="2637" y="1605" on="1"/>
        <pt x="2705" y="1605" on="0"/>
        <pt x="2814" y="1560" on="0"/>
        <pt x="2890" y="1487" on="0"/>
        <pt x="2930" y="1391" on="0"/>
        <pt x="2930" y="1340" on="1"/>
        <pt x="2930" y="1312" on="0"/>
        <pt x="2924" y="1282" on="1"/>
      </contour>
    </TTGlyph>
    <TTGlyph name="Nacute" xMin="-60" yMin="-166" xMax="2930" yMax="1792">
      <component glyphName="N" x="0" y="0" flags="0x204"/>
      <component glyphName="acute" x="1796" y="742" flags="0x4"/>
    </TTGlyph>
    <TTGlyph name="Ncaron" xMin="-60" yMin="-166" xMax="2930" yMax="1792">
      <component glyphName="N" x="0" y="0" flags="0x204"/>
      <component glyphName="caron" x="1728" y="742" flags="0x4"/>
    </TTGlyph>
    <TTGlyph name="Ncommaaccent" xMin="-60" yMin="-348" xMax="2930" yMax="1605">
      <component glyphName="N" x="0" y="0" flags="0x204"/>
      <component glyphName="commaaccent" x="1111" y="0" flags="0x4"/>
    </TTGlyph>
    <TTGlyph name="Ntilde" xMin="-60" yMin="-166" xMax="2930" yMax="1796">
      <component glyphName="N" x="0" y="0" flags="0x204"/>
      <component glyphName="tilde" x="1776" y="742" flags="0x4"/>
    </TTGlyph>
    <TTGlyph name="O" xMin="40" yMin="-233" xMax="1533" yMax="1436">
      <contour>
        <pt x="1395" y="1259" on="1"/>
        <pt x="1394" y="1261" on="0"/>
        <pt x="1368" y="1301" on="0"/>
        <pt x="1306" y="1347" on="0"/>
        <pt x="1202" y="1384" on="0"/>
        <pt x="1124" y="1384" on="1"/>
        <pt x="1000" y="1384" on="0"/>
        <pt x="759" y="1287" on="0"/>
        <pt x="541" y="1119" on="0"/>
        <pt x="356" y="894" on="0"/>
        <pt x="220" y="639" on="0"/>
        <pt x="144" y="368" on="0"/>
        <pt x="144" y="238" on="1"/>
        <pt x="144" y="147" on="0"/>
        <pt x="201" y="-7" on="0"/>
        <pt x="308" y="-118" on="0"/>
        <pt x="462" y="-181" on="0"/>
        <pt x="560" y="-181" on="1"/>
        <pt x="646" y="-181" on="0"/>
        <pt x="817" y="-131" on="0"/>
        <pt x="979" y="-41" on="0"/>
        <pt x="1128" y="84" on="0"/>
        <pt x="1258" y="231" on="0"/>
        <pt x="1364" y="396" on="0"/>
        <pt x="1440" y="568" on="0"/>
        <pt x="1481" y="742" on="0"/>
        <pt x="1481" y="824" on="1"/>
        <pt x="1481" y="910" on="0"/>
        <pt x="1435" y="1042" on="0"/>
        <pt x="1353" y="1131" on="0"/>
        <pt x="1240" y="1176" on="0"/>
        <pt x="1173" y="1176" on="1"/>
        <pt x="1108" y="1176" on="0"/>
        <pt x="978" y="1129" on="0"/>
        <pt x="859" y="1044" on="0"/>
        <pt x="756" y="928" on="0"/>
        <pt x="680" y="791" on="0"/>
        <pt x="637" y="636" on="0"/>
        <pt x="637" y="556" on="1"/>
        <pt x="637" y="495" on="0"/>
        <pt x="667" y="392" on="0"/>
        <pt x="717" y="312" on="0"/>
        <pt x="782" y="259" on="0"/>
        <pt x="817" y="249" on="1"/>
        <pt x="808" y="207" on="1"/>
        <pt x="758" y="214" on="0"/>
        <pt x="655" y="266" on="0"/>
        <pt x="572" y="357" on="0"/>
        <pt x="519" y="490" on="0"/>
        <pt x="519" y="577" on="1"/>
        <pt x="519" y="659" on="0"/>
        <pt x="567" y="820" on="0"/>
        <pt x="654" y="965" on="0"/>
        <pt x="774" y="1088" on="0"/>
        <pt x="919" y="1177" on="0"/>
        <pt x="1084" y="1228" on="0"/>
        <pt x="1171" y="1228" on="1"/>
        <pt x="1254" y="1228" on="0"/>
        <pt x="1388" y="1171" on="0"/>
        <pt x="1482" y="1066" on="0"/>
        <pt x="1533" y="916" on="0"/>
        <pt x="1533" y="823" on="1"/>
        <pt x="1533" y="735" on="0"/>
        <pt x="1490" y="550" on="0"/>
        <pt x="1411" y="369" on="0"/>
        <pt x="1299" y="196" on="0"/>
        <pt x="1163" y="42" on="0"/>
        <pt x="1006" y="-87" on="0"/>
        <pt x="834" y="-181" on="0"/>
        <pt x="652" y="-233" on="0"/>
        <pt x="560" y="-233" on="1"/>
        <pt x="453" y="-233" on="0"/>
        <pt x="263" y="-162" on="0"/>
        <pt x="122" y="-24" on="0"/>
        <pt x="40" y="177" on="0"/>
        <pt x="40" y="307" on="1"/>
        <pt x="40" y="452" on="0"/>
        <pt x="115" y="732" on="0"/>
        <pt x="252" y="983" on="0"/>
        <pt x="444" y="1195" on="0"/>
        <pt x="678" y="1349" on="0"/>
        <pt x="948" y="1436" on="0"/>
        <pt x="1094" y="1436" on="1"/>
        <pt x="1162" y="1436" on="0"/>
        <pt x="1266" y="1414" on="0"/>
        <pt x="1343" y="1381" on="0"/>
        <pt x="1395" y="1342" on="0"/>
        <pt x="1427" y="1307" on="0"/>
        <pt x="1441" y="1283" on="0"/>
        <pt x="1442" y="1281" on="1"/>
      </contour>
    </TTGlyph>
    <TTGlyph name="OE" xMin="40" yMin="-233" xMax="2573" yMax="1436">
      <contour>
        <pt x="2045" y="933" on="1"/>
        <pt x="2048" y="932" on="0"/>
        <pt x="2053" y="932" on="1"/>
        <pt x="2077" y="932" on="1"/>
        <pt x="2155" y="932" on="0"/>
        <pt x="2313" y="974" on="0"/>
        <pt x="2441" y="1049" on="0"/>
        <pt x="2521" y="1154" on="0"/>
        <pt x="2521" y="1217" on="1"/>
        <pt x="2521" y="1251" on="0"/>
        <pt x="2491" y="1304" on="0"/>
        <pt x="2438" y="1340" on="0"/>
        <pt x="2363" y="1359" on="0"/>
        <pt x="2318" y="1359" on="1"/>
        <pt x="2239" y="1359" on="0"/>
        <pt x="2089" y="1319" on="0"/>
        <pt x="1957" y="1250" on="0"/>
        <pt x="1847" y="1157" on="0"/>
        <pt x="1767" y="1048" on="0"/>
        <pt x="1723" y="930" on="0"/>
        <pt x="1723" y="871" on="1"/>
        <pt x="1723" y="812" on="0"/>
        <pt x="1745" y="759" on="1"/>
        <pt x="1814" y="757" on="0"/>
        <pt x="1934" y="741" on="0"/>
        <pt x="2022" y="708" on="0"/>
        <pt x="2072" y="656" on="0"/>
        <pt x="2072" y="619" on="1"/>
        <pt x="2072" y="579" on="0"/>
        <pt x="2012" y="537" on="0"/>
        <pt x="1967" y="537" on="1"/>
        <pt x="1931" y="537" on="0"/>
        <pt x="1855" y="561" on="0"/>
        <pt x="1784" y="604" on="0"/>
        <pt x="1719" y="665" on="0"/>
        <pt x="1693" y="702" on="1"/>
        <pt x="1645" y="698" on="0"/>
        <pt x="1557" y="678" on="0"/>
        <pt x="1515" y="662" on="1"/>
        <pt x="1499" y="585" on="0"/>
        <pt x="1440" y="431" on="0"/>
        <pt x="1358" y="283" on="0"/>
        <pt x="1256" y="143" on="0"/>
        <pt x="1196" y="81" on="1"/>
        <pt x="1231" y="-25" on="0"/>
        <pt x="1431" y="-143" on="0"/>
        <pt x="1596" y="-143" on="1"/>
        <pt x="1710" y="-143" on="0"/>
        <pt x="1915" y="-74" on="0"/>
        <pt x="2089" y="32" on="0"/>
        <pt x="2231" y="159" on="0"/>
        <pt x="2336" y="273" on="0"/>
        <pt x="2400" y="360" on="0"/>
        <pt x="2410" y="373" on="1"/>
        <pt x="2446" y="345" on="1"/>
        <pt x="2424" y="312" on="0"/>
        <pt x="2345" y="205" on="0"/>
        <pt x="2234" y="85" on="0"/>
        <pt x="2089" y="-36" on="0"/>
        <pt x="1910" y="-134" on="0"/>
        <pt x="1698" y="-195" on="0"/>
        <pt x="1575" y="-195" on="1"/>
        <pt x="1488" y="-195" on="0"/>
        <pt x="1344" y="-166" on="0"/>
        <pt x="1230" y="-113" on="0"/>
        <pt x="1145" y="-40" on="0"/>
        <pt x="1116" y="4" on="1"/>
        <pt x="1054" y="-50" on="0"/>
        <pt x="921" y="-137" on="0"/>
        <pt x="780" y="-199" on="0"/>
        <pt x="634" y="-233" on="0"/>
        <pt x="560" y="-233" on="1"/>
        <pt x="453" y="-233" on="0"/>
        <pt x="263" y="-162" on="0"/>
        <pt x="122" y="-24" on="0"/>
        <pt x="40" y="177" on="0"/>
        <pt x="40" y="307" on="1"/>
        <pt x="40" y="452" on="0"/>
        <pt x="115" y="732" on="0"/>
        <pt x="252" y="983" on="0"/>
        <pt x="444" y="1195" on="0"/>
        <pt x="678" y="1349" on="0"/>
        <pt x="948" y="1436" on="0"/>
        <pt x="1094" y="1436" on="1"/>
        <pt x="1162" y="1436" on="0"/>
        <pt x="1266" y="1414" on="0"/>
        <pt x="1343" y="1381" on="0"/>
        <pt x="1395" y="1342" on="0"/>
        <pt x="1427" y="1307" on="0"/>
        <pt x="1441" y="1283" on="0"/>
        <pt x="1442" y="1281" on="1"/>
        <pt x="1395" y="1259" on="1"/>
        <pt x="1394" y="1261" on="0"/>
        <pt x="1368" y="1301" on="0"/>
        <pt x="1306" y="1347" on="0"/>
        <pt x="1202" y="1384" on="0"/>
        <pt x="1124" y="1384" on="1"/>
        <pt x="1000" y="1384" on="0"/>
        <pt x="759" y="1287" on="0"/>
        <pt x="541" y="1119" on="0"/>
        <pt x="356" y="894" on="0"/>
        <pt x="220" y="639" on="0"/>
        <pt x="144" y="368" on="0"/>
        <pt x="144" y="238" on="1"/>
        <pt x="144" y="147" on="0"/>
        <pt x="201" y="-7" on="0"/>
        <pt x="308" y="-118" on="0"/>
        <pt x="462" y="-181" on="0"/>
        <pt x="560" y="-181" on="1"/>
        <pt x="630" y="-181" on="0"/>
        <pt x="769" y="-148" on="0"/>
        <pt x="903" y="-86" on="0"/>
        <pt x="1030" y="-1" on="0"/>
        <pt x="1089" y="52" on="1"/>
        <pt x="1070" y="92" on="0"/>
        <pt x="1053" y="178" on="0"/>
        <pt x="1053" y="223" on="1"/>
        <pt x="1053" y="297" on="0"/>
        <pt x="1101" y="453" on="0"/>
        <pt x="1203" y="592" on="0"/>
        <pt x="1363" y="702" on="0"/>
        <pt x="1474" y="732" on="1"/>
        <pt x="1477" y="755" on="0"/>
        <pt x="1481" y="801" on="0"/>
        <pt x="1481" y="824" on="1"/>
        <pt x="1481" y="910" on="0"/>
        <pt x="1435" y="1042" on="0"/>
        <pt x="1353" y="1131" on="0"/>
        <pt x="1240" y="1176" on="0"/>
        <pt x="1173" y="1176" on="1"/>
        <pt x="1108" y="1176" on="0"/>
        <pt x="978" y="1129" on="0"/>
        <pt x="859" y="1044" on="0"/>
        <pt x="756" y="928" on="0"/>
        <pt x="680" y="791" on="0"/>
        <pt x="637" y="636" on="0"/>
        <pt x="637" y="556" on="1"/>
        <pt x="637" y="495" on="0"/>
        <pt x="667" y="392" on="0"/>
        <pt x="717" y="312" on="0"/>
        <pt x="782" y="259" on="0"/>
        <pt x="817" y="249" on="1"/>
        <pt x="808" y="207" on="1"/>
        <pt x="758" y="214" on="0"/>
        <pt x="655" y="266" on="0"/>
        <pt x="572" y="357" on="0"/>
        <pt x="519" y="490" on="0"/>
        <pt x="519" y="577" on="1"/>
        <pt x="519" y="659" on="0"/>
        <pt x="567" y="820" on="0"/>
        <pt x="654" y="965" on="0"/>
        <pt x="774" y="1088" on="0"/>
        <pt x="919" y="1177" on="0"/>
        <pt x="1084" y="1228" on="0"/>
        <pt x="1171" y="1228" on="1"/>
        <pt x="1254" y="1228" on="0"/>
        <pt x="1388" y="1171" on="0"/>
        <pt x="1482" y="1066" on="0"/>
        <pt x="1533" y="916" on="0"/>
        <pt x="1533" y="823" on="1"/>
        <pt x="1533" y="803" on="0"/>
        <pt x="1530" y="764" on="0"/>
        <pt x="1528" y="744" on="1"/>
        <pt x="1559" y="749" on="0"/>
        <pt x="1624" y="757" on="0"/>
        <pt x="1659" y="759" on="1"/>
        <pt x="1641" y="795" on="0"/>
        <pt x="1621" y="874" on="0"/>
        <pt x="1621" y="916" on="1"/>
        <pt x="1621" y="993" on="0"/>
        <pt x="1673" y="1130" on="0"/>
        <pt x="1764" y="1245" on="0"/>
        <pt x="1887" y="1335" on="0"/>
        <pt x="2027" y="1398" on="0"/>
        <pt x="2178" y="1431" on="0"/>
        <pt x="2252" y="1431" on="1"/>
        <pt x="2328" y="1431" on="0"/>
        <pt x="2447" y="1400" on="0"/>
        <pt x="2529" y="1344" on="0"/>
        <pt x="2573" y="1265" on="0"/>
        <pt x="2573" y="1218" on="1"/>
        <pt x="2573" y="1166" on="0"/>
        <pt x="2530" y="1074" on="0"/>
        <pt x="2457" y="999" on="0"/>
        <pt x="2360" y="940" on="0"/>
        <pt x="2251" y="900" on="0"/>
        <pt x="2135" y="879" on="0"/>
        <pt x="2081" y="879" on="1"/>
        <pt x="2063" y="879" on="0"/>
        <pt x="2041" y="881" on="0"/>
        <pt x="2039" y="881" on="1"/>
      </contour>
      <contour>
        <pt x="1182" y="145" on="1"/>
        <pt x="1280" y="254" on="0"/>
        <pt x="1422" y="506" on="0"/>
        <pt x="1455" y="635" on="1"/>
        <pt x="1392" y="602" on="0"/>
        <pt x="1290" y="510" on="0"/>
        <pt x="1217" y="398" on="0"/>
        <pt x="1178" y="270" on="0"/>
        <pt x="1178" y="201" on="1"/>
        <pt x="1178" y="186" on="0"/>
        <pt x="1180" y="159" on="0"/>
      </contour>
      <contour>
        <pt x="2019" y="621" on="1"/>
        <pt x="2019" y="645" on="0"/>
        <pt x="1976" y="676" on="0"/>
        <pt x="1907" y="694" on="0"/>
        <pt x="1820" y="703" on="0"/>
        <pt x="1775" y="704" on="1"/>
        <pt x="1794" y="676" on="0"/>
        <pt x="1841" y="633" on="0"/>
        <pt x="1891" y="603" on="0"/>
        <pt x="1942" y="587" on="0"/>
        <pt x="1965" y="587" on="1"/>
        <pt x="1992" y="587" on="0"/>
        <pt x="2019" y="607" on="0"/>
      </contour>
    </TTGlyph>
    <TTGlyph name="Oacute" xMin="40" yMin="-233" xMax="1533" yMax="1730">
      <component glyphName="O" x="0" y="0" flags="0x204"/>
      <component glyphName="acute" x="814" y="680" flags="0x4"/>
    </TTGlyph>
    <TTGlyph name="Obreve" xMin="40" yMin="-233" xMax="1533" yMax="1739">
      <component glyphName="O" x="0" y="0" flags="0x204"/>
      <component glyphName="breve" x="808" y="680" flags="0x4"/>
    </TTGlyph>
    <TTGlyph name="Ocircumflex" xMin="40" yMin="-233" xMax="1533" yMax="1730">
      <component glyphName="O" x="0" y="0" flags="0x204"/>
      <component glyphName="circumflex" x="814" y="680" flags="0x4"/>
    </TTGlyph>
    <TTGlyph name="Odieresis" xMin="40" yMin="-233" xMax="1533" yMax="1704">
      <component glyphName="O" x="0" y="0" flags="0x204"/>
      <component glyphName="dieresis" x="815" y="680" flags="0x4"/>
    </TTGlyph>
    <TTGlyph name="Ograve" xMin="40" yMin="-233" xMax="1533" yMax="1730">
      <component glyphName="O" x="0" y="0" flags="0x204"/>
      <component glyphName="grave" x="814" y="680" flags="0x4"/>
    </TTGlyph>
    <TTGlyph name="Ohungarumlaut" xMin="40" yMin="-233" xMax="1533" yMax="1730">
      <component glyphName="O" x="0" y="0" flags="0x204"/>
      <component glyphName="hungarumlaut" x="814" y="680" flags="0x4"/>
    </TTGlyph>
    <TTGlyph name="Omacron" xMin="40" yMin="-233" xMax="1533" yMax="1674">
      <component glyphName="O" x="0" y="0" flags="0x204"/>
      <component glyphName="macron" x="815" y="680" flags="0x4"/>
    </TTGlyph>
    <TTGlyph name="Oslash" xMin="-125" yMin="-347" xMax="1720" yMax="1505">
      <contour>
        <pt x="-125" y="-303" on="1"/>
        <pt x="142" y="-34" on="1"/>
        <pt x="94" y="32" on="0"/>
        <pt x="40" y="201" on="0"/>
        <pt x="40" y="307" on="1"/>
        <pt x="40" y="452" on="0"/>
        <pt x="115" y="732" on="0"/>
        <pt x="252" y="983" on="0"/>
        <pt x="444" y="1195" on="0"/>
        <pt x="678" y="1349" on="0"/>
        <pt x="948" y="1436" on="0"/>
        <pt x="1094" y="1436" on="1"/>
        <pt x="1163" y="1436" on="0"/>
        <pt x="1268" y="1414" on="0"/>
        <pt x="1345" y="1380" on="0"/>
        <pt x="1397" y="1340" on="0"/>
        <pt x="1413" y="1323" on="1"/>
        <pt x="1366" y="1298" on="1"/>
        <pt x="1353" y="1312" on="0"/>
        <pt x="1312" y="1342" on="0"/>
        <pt x="1253" y="1368" on="0"/>
        <pt x="1175" y="1384" on="0"/>
        <pt x="1124" y="1384" on="1"/>
        <pt x="1000" y="1384" on="0"/>
        <pt x="759" y="1287" on="0"/>
        <pt x="541" y="1119" on="0"/>
        <pt x="356" y="894" on="0"/>
        <pt x="220" y="639" on="0"/>
        <pt x="144" y="368" on="0"/>
        <pt x="144" y="238" on="1"/>
        <pt x="144" y="176" on="0"/>
        <pt x="169" y="66" on="0"/>
        <pt x="195" y="19" on="1"/>
        <pt x="561" y="387" on="1"/>
        <pt x="541" y="425" on="0"/>
        <pt x="519" y="520" on="0"/>
        <pt x="519" y="577" on="1"/>
        <pt x="519" y="659" on="0"/>
        <pt x="567" y="820" on="0"/>
        <pt x="654" y="965" on="0"/>
        <pt x="774" y="1088" on="0"/>
        <pt x="919" y="1177" on="0"/>
        <pt x="1084" y="1228" on="0"/>
        <pt x="1171" y="1228" on="1"/>
        <pt x="1223" y="1228" on="0"/>
        <pt x="1315" y="1205" on="0"/>
        <pt x="1354" y="1183" on="1"/>
        <pt x="1674" y="1505" on="1"/>
        <pt x="1720" y="1461" on="1"/>
        <pt x="1407" y="1146" on="1"/>
        <pt x="1467" y="1093" on="0"/>
        <pt x="1533" y="929" on="0"/>
        <pt x="1533" y="823" on="1"/>
        <pt x="1533" y="735" on="0"/>
        <pt x="1490" y="550" on="0"/>
        <pt x="1411" y="369" on="0"/>
        <pt x="1299" y="196" on="0"/>
        <pt x="1163" y="42" on="0"/>
        <pt x="1006" y="-87" on="0"/>
        <pt x="834" y="-181" on="0"/>
        <pt x="652" y="-233" on="0"/>
        <pt x="560" y="-233" on="1"/>
        <pt x="448" y="-233" on="0"/>
        <pt x="255" y="-157" on="0"/>
        <pt x="183" y="-83" on="1"/>
        <pt x="-79" y="-347" on="1"/>
      </contour>
      <contour>
        <pt x="808" y="207" on="1"/>
        <pt x="752" y="215" on="0"/>
        <pt x="639" y="276" on="0"/>
        <pt x="596" y="332" on="1"/>
        <pt x="231" y="-35" on="1"/>
        <pt x="285" y="-104" on="0"/>
        <pt x="451" y="-181" on="0"/>
        <pt x="560" y="-181" on="1"/>
        <pt x="646" y="-181" on="0"/>
        <pt x="817" y="-131" on="0"/>
        <pt x="979" y="-41" on="0"/>
        <pt x="1128" y="84" on="0"/>
        <pt x="1258" y="231" on="0"/>
        <pt x="1364" y="396" on="0"/>
        <pt x="1440" y="568" on="0"/>
        <pt x="1481" y="742" on="0"/>
        <pt x="1481" y="824" on="1"/>
        <pt x="1481" y="923" on="0"/>
        <pt x="1421" y="1064" on="0"/>
        <pt x="1369" y="1109" on="1"/>
        <pt x="666" y="402" on="1"/>
        <pt x="691" y="342" on="0"/>
        <pt x="771" y="263" on="0"/>
        <pt x="817" y="249" on="1"/>
      </contour>
      <contour>
        <pt x="637" y="556" on="1"/>
        <pt x="637" y="533" on="0"/>
        <pt x="640" y="491" on="0"/>
        <pt x="645" y="471" on="1"/>
        <pt x="1315" y="1144" on="1"/>
        <pt x="1251" y="1176" on="0"/>
        <pt x="1173" y="1176" on="1"/>
        <pt x="1108" y="1176" on="0"/>
        <pt x="978" y="1129" on="0"/>
        <pt x="859" y="1044" on="0"/>
        <pt x="756" y="928" on="0"/>
        <pt x="680" y="791" on="0"/>
        <pt x="637" y="636" on="0"/>
      </contour>
    </TTGlyph>
    <TTGlyph name="Oslashacute" xMin="-125" yMin="-347" xMax="1720" yMax="1730">
      <component glyphName="Oslash" x="0" y="0" flags="0x204"/>
      <component glyphName="acute" x="833" y="680" flags="0x4"/>
    </TTGlyph>
    <TTGlyph name="Otilde" xMin="40" yMin="-233" xMax="1533" yMax="1734">
      <component glyphName="O" x="0" y="0" flags="0x204"/>
      <component glyphName="tilde" x="814" y="680" flags="0x4"/>
    </TTGlyph>
    <TTGlyph name="P" xMin="40" yMin="-111" xMax="1945" yMax="1484">
      <contour>
        <pt x="1862" y="1461" on="1"/>
        <pt x="1790" y="1407" on="0"/>
        <pt x="1727" y="1332" on="1"/>
        <pt x="1788" y="1294" on="0"/>
        <pt x="1872" y="1203" on="0"/>
        <pt x="1923" y="1109" on="0"/>
        <pt x="1945" y="1017" on="0"/>
        <pt x="1945" y="978" on="1"/>
        <pt x="1945" y="880" on="0"/>
        <pt x="1871" y="735" on="0"/>
        <pt x="1750" y="639" on="0"/>
        <pt x="1593" y="592" on="0"/>
        <pt x="1509" y="592" on="1"/>
        <pt x="1415" y="592" on="0"/>
        <pt x="1324" y="613" on="1"/>
        <pt x="1282" y="524" on="0"/>
        <pt x="1184" y="348" on="0"/>
        <pt x="1069" y="187" on="0"/>
        <pt x="934" y="48" on="0"/>
        <pt x="779" y="-53" on="0"/>
        <pt x="599" y="-111" on="0"/>
        <pt x="497" y="-111" on="1"/>
        <pt x="398" y="-111" on="0"/>
        <pt x="230" y="-47" on="0"/>
        <pt x="108" y="76" on="0"/>
        <pt x="40" y="253" on="0"/>
        <pt x="40" y="367" on="1"/>
        <pt x="40" y="515" on="0"/>
        <pt x="141" y="789" on="0"/>
        <pt x="318" y="1027" on="0"/>
        <pt x="558" y="1221" on="0"/>
        <pt x="836" y="1359" on="0"/>
        <pt x="1140" y="1435" on="0"/>
        <pt x="1292" y="1435" on="1"/>
        <pt x="1411" y="1435" on="0"/>
        <pt x="1596" y="1396" on="0"/>
        <pt x="1667" y="1364" on="1"/>
        <pt x="1707" y="1399" on="0"/>
        <pt x="1795" y="1460" on="0"/>
        <pt x="1846" y="1484" on="1"/>
      </contour>
      <contour>
        <pt x="1240" y="696" on="1"/>
        <pt x="1286" y="792" on="0"/>
        <pt x="1376" y="969" on="0"/>
        <pt x="1469" y="1128" on="0"/>
        <pt x="1569" y="1267" on="0"/>
        <pt x="1627" y="1326" on="1"/>
        <pt x="1561" y="1352" on="0"/>
        <pt x="1406" y="1376" on="0"/>
        <pt x="1318" y="1376" on="1"/>
        <pt x="1197" y="1376" on="0"/>
        <pt x="965" y="1318" on="0"/>
        <pt x="750" y="1217" on="0"/>
        <pt x="555" y="1079" on="0"/>
        <pt x="388" y="917" on="0"/>
        <pt x="253" y="740" on="0"/>
        <pt x="158" y="560" on="0"/>
        <pt x="107" y="385" on="0"/>
        <pt x="107" y="306" on="1"/>
        <pt x="107" y="229" on="0"/>
        <pt x="163" y="96" on="0"/>
        <pt x="262" y="-2" on="0"/>
        <pt x="399" y="-58" on="0"/>
        <pt x="481" y="-58" on="1"/>
        <pt x="608" y="-58" on="0"/>
        <pt x="810" y="42" on="0"/>
        <pt x="982" y="227" on="0"/>
        <pt x="1136" y="487" on="0"/>
        <pt x="1216" y="647" on="1"/>
        <pt x="1112" y="688" on="0"/>
        <pt x="1023" y="752" on="1"/>
        <pt x="1039" y="780" on="1"/>
        <pt x="1087" y="756" on="0"/>
        <pt x="1186" y="713" on="0"/>
      </contour>
      <contour>
        <pt x="1840" y="1035" on="1"/>
        <pt x="1840" y="1124" on="0"/>
        <pt x="1763" y="1250" on="0"/>
        <pt x="1694" y="1292" on="1"/>
        <pt x="1603" y="1174" on="0"/>
        <pt x="1438" y="861" on="0"/>
        <pt x="1350" y="669" on="1"/>
        <pt x="1379" y="664" on="0"/>
        <pt x="1437" y="659" on="0"/>
        <pt x="1467" y="659" on="1"/>
        <pt x="1543" y="659" on="0"/>
        <pt x="1678" y="713" on="0"/>
        <pt x="1780" y="812" on="0"/>
        <pt x="1840" y="950" on="0"/>
      </contour>
    </TTGlyph>
    <TTGlyph name="Q" xMin="40" yMin="-497" xMax="1533" yMax="1503">
      <contour>
        <pt x="1516" y="-420" on="1"/>
        <pt x="1439" y="-462" on="0"/>
        <pt x="1294" y="-497" on="0"/>
        <pt x="1236" y="-497" on="1"/>
        <pt x="1148" y="-497" on="0"/>
        <pt x="1025" y="-433" on="0"/>
        <pt x="937" y="-331" on="0"/>
        <pt x="876" y="-203" on="0"/>
        <pt x="851" y="-138" on="1"/>
        <pt x="779" y="-172" on="0"/>
        <pt x="628" y="-209" on="0"/>
        <pt x="548" y="-209" on="1"/>
        <pt x="444" y="-209" on="0"/>
        <pt x="259" y="-143" on="0"/>
        <pt x="121" y="-9" on="0"/>
        <pt x="40" y="194" on="0"/>
        <pt x="40" y="330" on="1"/>
        <pt x="40" y="476" on="0"/>
        <pt x="116" y="763" on="0"/>
        <pt x="255" y="1024" on="0"/>
        <pt x="450" y="1247" on="0"/>
        <pt x="689" y="1410" on="0"/>
        <pt x="964" y="1503" on="0"/>
        <pt x="1114" y="1503" on="1"/>
        <pt x="1204" y="1503" on="0"/>
        <pt x="1335" y="1456" on="0"/>
        <pt x="1428" y="1384" on="0"/>
        <pt x="1487" y="1299" on="0"/>
        <pt x="1520" y="1225" on="0"/>
        <pt x="1532" y="1173" on="0"/>
        <pt x="1533" y="1169" on="1"/>
        <pt x="1482" y="1159" on="1"/>
        <pt x="1481" y="1161" on="0"/>
        <pt x="1471" y="1206" on="0"/>
        <pt x="1445" y="1271" on="0"/>
        <pt x="1398" y="1346" on="0"/>
        <pt x="1321" y="1410" on="0"/>
        <pt x="1210" y="1452" on="0"/>
        <pt x="1134" y="1452" on="1"/>
        <pt x="1019" y="1452" on="0"/>
        <pt x="783" y="1358" on="0"/>
        <pt x="564" y="1193" on="0"/>
        <pt x="373" y="972" on="0"/>
        <pt x="230" y="717" on="0"/>
        <pt x="148" y="443" on="0"/>
        <pt x="148" y="308" on="1"/>
        <pt x="148" y="189" on="0"/>
        <pt x="212" y="14" on="0"/>
        <pt x="321" y="-101" on="0"/>
        <pt x="468" y="-157" on="0"/>
        <pt x="551" y="-157" on="1"/>
        <pt x="624" y="-157" on="0"/>
        <pt x="765" y="-121" on="0"/>
        <pt x="832" y="-89" on="1"/>
        <pt x="813" y="-41" on="0"/>
        <pt x="774" y="46" on="0"/>
        <pt x="725" y="112" on="0"/>
        <pt x="664" y="151" on="0"/>
        <pt x="623" y="151" on="1"/>
        <pt x="594" y="151" on="0"/>
        <pt x="543" y="142" on="0"/>
        <pt x="504" y="130" on="0"/>
        <pt x="481" y="121" on="0"/>
        <pt x="481" y="121" on="1"/>
        <pt x="461" y="169" on="1"/>
        <pt x="463" y="170" on="0"/>
        <pt x="495" y="181" on="0"/>
        <pt x="545" y="194" on="0"/>
        <pt x="610" y="205" on="0"/>
        <pt x="646" y="205" on="1"/>
        <pt x="709" y="205" on="0"/>
        <pt x="801" y="167" on="0"/>
        <pt x="867" y="102" on="0"/>
        <pt x="914" y="16" on="0"/>
        <pt x="934" y="-32" on="1"/>
        <pt x="1005" y="15" on="0"/>
        <pt x="1133" y="137" on="0"/>
        <pt x="1242" y="277" on="0"/>
        <pt x="1329" y="433" on="0"/>
        <pt x="1391" y="595" on="0"/>
        <pt x="1424" y="758" on="0"/>
        <pt x="1424" y="837" on="1"/>
        <pt x="1424" y="923" on="0"/>
        <pt x="1380" y="1073" on="0"/>
        <pt x="1300" y="1184" on="0"/>
        <pt x="1187" y="1247" on="0"/>
        <pt x="1117" y="1247" on="1"/>
        <pt x="1045" y="1247" on="0"/>
        <pt x="909" y="1183" on="0"/>
        <pt x="804" y="1069" on="0"/>
        <pt x="741" y="912" on="0"/>
        <pt x="741" y="820" on="1"/>
        <pt x="741" y="734" on="0"/>
        <pt x="813" y="576" on="0"/>
        <pt x="892" y="520" on="1"/>
        <pt x="867" y="486" on="1"/>
        <pt x="822" y="502" on="0"/>
        <pt x="738" y="561" on="0"/>
        <pt x="674" y="645" on="0"/>
        <pt x="635" y="753" on="0"/>
        <pt x="635" y="819" on="1"/>
        <pt x="635" y="928" on="0"/>
        <pt x="713" y="1105" on="0"/>
        <pt x="845" y="1231" on="0"/>
        <pt x="1017" y="1300" on="0"/>
        <pt x="1110" y="1300" on="1"/>
        <pt x="1196" y="1300" on="0"/>
        <pt x="1332" y="1229" on="0"/>
        <pt x="1426" y="1105" on="0"/>
        <pt x="1476" y="938" on="0"/>
        <pt x="1476" y="841" on="1"/>
        <pt x="1476" y="759" on="0"/>
        <pt x="1441" y="585" on="0"/>
        <pt x="1376" y="413" on="0"/>
        <pt x="1284" y="248" on="0"/>
        <pt x="1167" y="98" on="0"/>
        <pt x="1030" y="-32" on="0"/>
        <pt x="953" y="-81" on="1"/>
        <pt x="968" y="-123" on="0"/>
        <pt x="1000" y="-206" on="0"/>
        <pt x="1038" y="-283" on="0"/>
        <pt x="1087" y="-349" on="0"/>
        <pt x="1152" y="-397" on="0"/>
        <pt x="1238" y="-425" on="0"/>
        <pt x="1294" y="-425" on="1"/>
        <pt x="1334" y="-425" on="0"/>
        <pt x="1406" y="-410" on="0"/>
        <pt x="1459" y="-391" on="0"/>
        <pt x="1490" y="-375" on="0"/>
        <pt x="1490" y="-375" on="1"/>
      </contour>
    </TTGlyph>
    <TTGlyph name="R" xMin="30" yMin="-171" xMax="2204" yMax="1464">
      <contour>
        <pt x="1813" y="1437" on="1"/>
        <pt x="1748" y="1400" on="0"/>
        <pt x="1691" y="1346" on="1"/>
        <pt x="1753" y="1319" on="0"/>
        <pt x="1858" y="1239" on="0"/>
        <pt x="1935" y="1133" on="0"/>
        <pt x="1978" y="1000" on="0"/>
        <pt x="1978" y="920" on="1"/>
        <pt x="1978" y="852" on="0"/>
        <pt x="1931" y="731" on="0"/>
        <pt x="1848" y="634" on="0"/>
        <pt x="1733" y="567" on="0"/>
        <pt x="1665" y="554" on="1"/>
        <pt x="1698" y="509" on="0"/>
        <pt x="1739" y="400" on="0"/>
        <pt x="1739" y="336" on="1"/>
        <pt x="1739" y="310" on="0"/>
        <pt x="1725" y="239" on="0"/>
        <pt x="1704" y="161" on="0"/>
        <pt x="1679" y="82" on="0"/>
        <pt x="1658" y="14" on="0"/>
        <pt x="1644" y="-38" on="0"/>
        <pt x="1644" y="-50" on="1"/>
        <pt x="1644" y="-79" on="0"/>
        <pt x="1677" y="-112" on="0"/>
        <pt x="1706" y="-112" on="1"/>
        <pt x="1759" y="-112" on="0"/>
        <pt x="1853" y="-67" on="0"/>
        <pt x="1936" y="8" on="0"/>
        <pt x="2010" y="107" on="0"/>
        <pt x="2077" y="215" on="0"/>
        <pt x="2138" y="324" on="0"/>
        <pt x="2167" y="373" on="1"/>
        <pt x="2204" y="345" on="1"/>
        <pt x="2141" y="233" on="0"/>
        <pt x="2030" y="46" on="0"/>
        <pt x="1914" y="-89" on="0"/>
        <pt x="1784" y="-165" on="0"/>
        <pt x="1701" y="-165" on="1"/>
        <pt x="1624" y="-165" on="0"/>
        <pt x="1539" y="-80" on="0"/>
        <pt x="1539" y="-2" on="1"/>
        <pt x="1539" y="52" on="0"/>
        <pt x="1571" y="150" on="0"/>
        <pt x="1610" y="244" on="0"/>
        <pt x="1642" y="338" on="0"/>
        <pt x="1642" y="389" on="1"/>
        <pt x="1642" y="434" on="0"/>
        <pt x="1613" y="512" on="0"/>
        <pt x="1587" y="547" on="1"/>
        <pt x="1556" y="547" on="0"/>
        <pt x="1477" y="553" on="0"/>
        <pt x="1406" y="571" on="0"/>
        <pt x="1358" y="605" on="0"/>
        <pt x="1358" y="633" on="1"/>
        <pt x="1358" y="658" on="0"/>
        <pt x="1398" y="689" on="0"/>
        <pt x="1437" y="689" on="1"/>
        <pt x="1482" y="689" on="0"/>
        <pt x="1566" y="648" on="0"/>
        <pt x="1607" y="615" on="1"/>
        <pt x="1665" y="628" on="0"/>
        <pt x="1765" y="696" on="0"/>
        <pt x="1838" y="791" on="0"/>
        <pt x="1879" y="907" on="0"/>
        <pt x="1879" y="968" on="1"/>
        <pt x="1879" y="1031" on="0"/>
        <pt x="1845" y="1136" on="0"/>
        <pt x="1783" y="1220" on="0"/>
        <pt x="1699" y="1283" on="0"/>
        <pt x="1649" y="1304" on="1"/>
        <pt x="1573" y="1221" on="0"/>
        <pt x="1447" y="1006" on="0"/>
        <pt x="1332" y="767" on="0"/>
        <pt x="1224" y="518" on="0"/>
        <pt x="1107" y="283" on="0"/>
        <pt x="974" y="75" on="0"/>
        <pt x="813" y="-81" on="0"/>
        <pt x="616" y="-171" on="0"/>
        <pt x="493" y="-171" on="1"/>
        <pt x="397" y="-171" on="0"/>
        <pt x="229" y="-111" on="0"/>
        <pt x="103" y="6" on="0"/>
        <pt x="30" y="178" on="0"/>
        <pt x="30" y="290" on="1"/>
        <pt x="30" y="358" on="0"/>
        <pt x="63" y="526" on="0"/>
        <pt x="135" y="709" on="0"/>
        <pt x="248" y="896" on="0"/>
        <pt x="407" y="1072" on="0"/>
        <pt x="616" y="1226" on="0"/>
        <pt x="879" y="1341" on="0"/>
        <pt x="1199" y="1407" on="0"/>
        <pt x="1390" y="1407" on="1"/>
        <pt x="1455" y="1407" on="0"/>
        <pt x="1583" y="1386" on="0"/>
        <pt x="1643" y="1366" on="1"/>
        <pt x="1678" y="1393" on="0"/>
        <pt x="1754" y="1442" on="0"/>
        <pt x="1796" y="1464" on="1"/>
      </contour>
      <contour>
        <pt x="468" y="-118" on="1"/>
        <pt x="576" y="-118" on="0"/>
        <pt x="744" y="-32" on="0"/>
        <pt x="880" y="115" on="0"/>
        <pt x="993" y="314" on="0"/>
        <pt x="1100" y="539" on="0"/>
        <pt x="1209" y="782" on="0"/>
        <pt x="1337" y="1018" on="0"/>
        <pt x="1493" y="1236" on="0"/>
        <pt x="1594" y="1325" on="1"/>
        <pt x="1502" y="1352" on="0"/>
        <pt x="1401" y="1352" on="1"/>
        <pt x="1215" y="1352" on="0"/>
        <pt x="880" y="1252" on="0"/>
        <pt x="593" y="1082" on="0"/>
        <pt x="362" y="858" on="0"/>
        <pt x="199" y="611" on="0"/>
        <pt x="111" y="354" on="0"/>
        <pt x="111" y="237" on="1"/>
        <pt x="111" y="164" on="0"/>
        <pt x="162" y="34" on="0"/>
        <pt x="256" y="-62" on="0"/>
        <pt x="388" y="-118" on="0"/>
      </contour>
      <contour>
        <pt x="1536" y="602" on="1"/>
        <pt x="1511" y="619" on="0"/>
        <pt x="1455" y="643" on="0"/>
        <pt x="1434" y="643" on="1"/>
        <pt x="1420" y="643" on="0"/>
        <pt x="1410" y="635" on="0"/>
        <pt x="1410" y="630" on="1"/>
        <pt x="1410" y="621" on="0"/>
        <pt x="1436" y="610" on="0"/>
        <pt x="1475" y="603" on="0"/>
        <pt x="1518" y="601" on="0"/>
      </contour>
    </TTGlyph>
    <TTGlyph name="Racute" xMin="30" yMin="-171" xMax="2204" yMax="1701">
      <component glyphName="R" x="0" y="0" flags="0x204"/>
      <component glyphName="acute" x="1113" y="651" flags="0x4"/>
    </TTGlyph>
    <TTGlyph name="Rcaron" xMin="30" yMin="-171" xMax="2204" yMax="1701">
      <component glyphName="R" x="0" y="0" flags="0x204"/>
      <component glyphName="caron" x="1085" y="651" flags="0x4"/>
    </TTGlyph>
    <TTGlyph name="Rcommaaccent" xMin="30" yMin="-397" xMax="2204" yMax="1464">
      <component glyphName="R" x="0" y="0" flags="0x204"/>
      <component glyphName="commaaccent" x="1061" y="-49" flags="0x4"/>
    </TTGlyph>
    <TTGlyph name="S" xMin="-60" yMin="-177" xMax="2112" yMax="1439">
      <contour>
        <pt x="2112" y="1248" on="1"/>
        <pt x="2112" y="1184" on="0"/>
        <pt x="2062" y="1046" on="0"/>
        <pt x="1966" y="912" on="0"/>
        <pt x="1825" y="788" on="0"/>
        <pt x="1642" y="687" on="0"/>
        <pt x="1420" y="615" on="0"/>
        <pt x="1291" y="600" on="1"/>
        <pt x="1238" y="503" on="0"/>
        <pt x="1124" y="312" on="0"/>
        <pt x="996" y="139" on="0"/>
        <pt x="853" y="-8" on="0"/>
        <pt x="690" y="-116" on="0"/>
        <pt x="503" y="-177" on="0"/>
        <pt x="396" y="-177" on="1"/>
        <pt x="308" y="-177" on="0"/>
        <pt x="143" y="-126" on="0"/>
        <pt x="16" y="-29" on="0"/>
        <pt x="-60" y="111" on="0"/>
        <pt x="-60" y="201" on="1"/>
        <pt x="-60" y="298" on="0"/>
        <pt x="11" y="442" on="0"/>
        <pt x="128" y="538" on="0"/>
        <pt x="276" y="585" on="0"/>
        <pt x="353" y="585" on="1"/>
        <pt x="412" y="585" on="0"/>
        <pt x="527" y="562" on="0"/>
        <pt x="632" y="520" on="0"/>
        <pt x="723" y="462" on="0"/>
        <pt x="758" y="427" on="1"/>
        <pt x="728" y="395" on="1"/>
        <pt x="704" y="418" on="0"/>
        <pt x="639" y="460" on="0"/>
        <pt x="555" y="493" on="0"/>
        <pt x="455" y="512" on="0"/>
        <pt x="397" y="512" on="1"/>
        <pt x="330" y="512" on="0"/>
        <pt x="204" y="467" on="0"/>
        <pt x="106" y="382" on="0"/>
        <pt x="46" y="259" on="0"/>
        <pt x="46" y="180" on="1"/>
        <pt x="46" y="116" on="0"/>
        <pt x="97" y="5" on="0"/>
        <pt x="190" y="-76" on="0"/>
        <pt x="317" y="-122" on="0"/>
        <pt x="394" y="-122" on="1"/>
        <pt x="482" y="-122" on="0"/>
        <pt x="637" y="-67" on="0"/>
        <pt x="772" y="30" on="0"/>
        <pt x="893" y="164" on="0"/>
        <pt x="1002" y="323" on="0"/>
        <pt x="1102" y="499" on="0"/>
        <pt x="1151" y="591" on="1"/>
        <pt x="1124" y="591" on="1"/>
        <pt x="956" y="591" on="0"/>
        <pt x="687" y="660" on="0"/>
        <pt x="498" y="780" on="0"/>
        <pt x="397" y="941" on="0"/>
        <pt x="397" y="1034" on="1"/>
        <pt x="397" y="1127" on="0"/>
        <pt x="469" y="1269" on="0"/>
        <pt x="593" y="1365" on="0"/>
        <pt x="757" y="1414" on="0"/>
        <pt x="849" y="1414" on="1"/>
        <pt x="928" y="1414" on="0"/>
        <pt x="1060" y="1389" on="0"/>
        <pt x="1165" y="1350" on="0"/>
        <pt x="1246" y="1304" on="0"/>
        <pt x="1302" y="1262" on="0"/>
        <pt x="1334" y="1230" on="0"/>
        <pt x="1339" y="1225" on="1"/>
        <pt x="1305" y="1195" on="1"/>
        <pt x="1304" y="1196" on="0"/>
        <pt x="1248" y="1245" on="0"/>
        <pt x="1146" y="1304" on="0"/>
        <pt x="1002" y="1353" on="0"/>
        <pt x="914" y="1353" on="1"/>
        <pt x="825" y="1353" on="0"/>
        <pt x="676" y="1303" on="0"/>
        <pt x="568" y="1214" on="0"/>
        <pt x="507" y="1092" on="0"/>
        <pt x="507" y="1020" on="1"/>
        <pt x="507" y="935" on="0"/>
        <pt x="601" y="796" on="0"/>
        <pt x="768" y="697" on="0"/>
        <pt x="995" y="642" on="0"/>
        <pt x="1129" y="642" on="1"/>
        <pt x="1177" y="642" on="1"/>
        <pt x="1229" y="741" on="0"/>
        <pt x="1332" y="936" on="0"/>
        <pt x="1440" y="1113" on="0"/>
        <pt x="1556" y="1265" on="0"/>
        <pt x="1686" y="1376" on="0"/>
        <pt x="1834" y="1439" on="0"/>
        <pt x="1919" y="1439" on="1"/>
        <pt x="1954" y="1439" on="0"/>
        <pt x="2023" y="1420" on="0"/>
        <pt x="2078" y="1375" on="0"/>
        <pt x="2112" y="1302" on="0"/>
      </contour>
      <contour>
        <pt x="1940" y="1385" on="1"/>
        <pt x="1877" y="1385" on="0"/>
        <pt x="1763" y="1329" on="0"/>
        <pt x="1659" y="1228" on="0"/>
        <pt x="1561" y="1091" on="0"/>
        <pt x="1466" y="928" on="0"/>
        <pt x="1370" y="747" on="0"/>
        <pt x="1320" y="654" on="1"/>
        <pt x="1450" y="671" on="0"/>
        <pt x="1662" y="747" on="0"/>
        <pt x="1826" y="848" on="0"/>
        <pt x="1946" y="966" on="0"/>
        <pt x="2024" y="1084" on="0"/>
        <pt x="2061" y="1193" on="0"/>
        <pt x="2061" y="1236" on="1"/>
        <pt x="2061" y="1268" on="0"/>
        <pt x="2048" y="1322" on="0"/>
        <pt x="2020" y="1362" on="0"/>
        <pt x="1974" y="1385" on="0"/>
      </contour>
    </TTGlyph>
    <TTGlyph name="Sacute" xMin="-60" yMin="-177" xMax="2112" yMax="1733">
      <component glyphName="S" x="0" y="0" flags="0x204"/>
      <component glyphName="acute" x="1563" y="683" flags="0x4"/>
    </TTGlyph>
    <TTGlyph name="Scaron" xMin="-60" yMin="-177" xMax="2112" yMax="1733">
      <component glyphName="S" x="0" y="0" flags="0x204"/>
      <component glyphName="caron" x="1535" y="683" flags="0x4"/>
    </TTGlyph>
    <TTGlyph name="Scedilla" xMin="-60" yMin="-477" xMax="2112" yMax="1439">
      <contour>
        <pt x="2112" y="1248" on="1"/>
        <pt x="2112" y="1184" on="0"/>
        <pt x="2062" y="1046" on="0"/>
        <pt x="1966" y="912" on="0"/>
        <pt x="1825" y="788" on="0"/>
        <pt x="1642" y="687" on="0"/>
        <pt x="1420" y="615" on="0"/>
        <pt x="1291" y="600" on="1"/>
        <pt x="1238" y="503" on="0"/>
        <pt x="1124" y="312" on="0"/>
        <pt x="996" y="139" on="0"/>
        <pt x="853" y="-8" on="0"/>
        <pt x="690" y="-116" on="0"/>
        <pt x="503" y="-177" on="0"/>
        <pt x="396" y="-177" on="1"/>
        <pt x="386" y="-177" on="0"/>
        <pt x="368" y="-177" on="0"/>
        <pt x="359" y="-176" on="1"/>
        <pt x="304" y="-256" on="1"/>
        <pt x="316" y="-253" on="0"/>
        <pt x="336" y="-252" on="0"/>
        <pt x="346" y="-252" on="1"/>
        <pt x="365" y="-252" on="0"/>
        <pt x="405" y="-263" on="0"/>
        <pt x="438" y="-287" on="0"/>
        <pt x="459" y="-324" on="0"/>
        <pt x="459" y="-349" on="1"/>
        <pt x="459" y="-374" on="0"/>
        <pt x="432" y="-420" on="0"/>
        <pt x="381" y="-456" on="0"/>
        <pt x="310" y="-477" on="0"/>
        <pt x="265" y="-477" on="1"/>
        <pt x="209" y="-477" on="0"/>
        <pt x="133" y="-447" on="0"/>
        <pt x="115" y="-436" on="1"/>
        <pt x="135" y="-398" on="1"/>
        <pt x="157" y="-408" on="0"/>
        <pt x="212" y="-431" on="0"/>
        <pt x="260" y="-431" on="1"/>
        <pt x="281" y="-431" on="0"/>
        <pt x="321" y="-422" on="0"/>
        <pt x="353" y="-404" on="0"/>
        <pt x="373" y="-376" on="0"/>
        <pt x="373" y="-357" on="1"/>
        <pt x="373" y="-341" on="0"/>
        <pt x="360" y="-319" on="0"/>
        <pt x="342" y="-305" on="0"/>
        <pt x="320" y="-300" on="0"/>
        <pt x="311" y="-300" on="1"/>
        <pt x="297" y="-300" on="0"/>
        <pt x="275" y="-305" on="0"/>
        <pt x="266" y="-308" on="1"/>
        <pt x="255" y="-312" on="0"/>
        <pt x="247" y="-315" on="1"/>
        <pt x="228" y="-289" on="1"/>
        <pt x="311" y="-171" on="1"/>
        <pt x="236" y="-160" on="0"/>
        <pt x="101" y="-100" on="0"/>
        <pt x="-1" y="-6" on="0"/>
        <pt x="-60" y="122" on="0"/>
        <pt x="-60" y="201" on="1"/>
        <pt x="-60" y="298" on="0"/>
        <pt x="11" y="442" on="0"/>
        <pt x="128" y="538" on="0"/>
        <pt x="276" y="585" on="0"/>
        <pt x="353" y="585" on="1"/>
        <pt x="412" y="585" on="0"/>
        <pt x="527" y="562" on="0"/>
        <pt x="632" y="520" on="0"/>
        <pt x="723" y="462" on="0"/>
        <pt x="758" y="427" on="1"/>
        <pt x="728" y="395" on="1"/>
        <pt x="704" y="418" on="0"/>
        <pt x="639" y="460" on="0"/>
        <pt x="555" y="493" on="0"/>
        <pt x="455" y="512" on="0"/>
        <pt x="397" y="512" on="1"/>
        <pt x="330" y="512" on="0"/>
        <pt x="204" y="467" on="0"/>
        <pt x="106" y="382" on="0"/>
        <pt x="46" y="259" on="0"/>
        <pt x="46" y="180" on="1"/>
        <pt x="46" y="116" on="0"/>
        <pt x="97" y="5" on="0"/>
        <pt x="190" y="-76" on="0"/>
        <pt x="317" y="-122" on="0"/>
        <pt x="394" y="-122" on="1"/>
        <pt x="482" y="-122" on="0"/>
        <pt x="637" y="-67" on="0"/>
        <pt x="772" y="30" on="0"/>
        <pt x="893" y="164" on="0"/>
        <pt x="1002" y="323" on="0"/>
        <pt x="1102" y="499" on="0"/>
        <pt x="1151" y="591" on="1"/>
        <pt x="1124" y="591" on="1"/>
        <pt x="956" y="591" on="0"/>
        <pt x="687" y="660" on="0"/>
        <pt x="498" y="780" on="0"/>
        <pt x="397" y="941" on="0"/>
        <pt x="397" y="1034" on="1"/>
        <pt x="397" y="1127" on="0"/>
        <pt x="469" y="1269" on="0"/>
        <pt x="593" y="1365" on="0"/>
        <pt x="757" y="1414" on="0"/>
        <pt x="849" y="1414" on="1"/>
        <pt x="928" y="1414" on="0"/>
        <pt x="1060" y="1389" on="0"/>
        <pt x="1165" y="1350" on="0"/>
        <pt x="1246" y="1304" on="0"/>
        <pt x="1302" y="1262" on="0"/>
        <pt x="1334" y="1230" on="0"/>
        <pt x="1339" y="1225" on="1"/>
        <pt x="1305" y="1195" on="1"/>
        <pt x="1304" y="1196" on="0"/>
        <pt x="1248" y="1245" on="0"/>
        <pt x="1146" y="1304" on="0"/>
        <pt x="1002" y="1353" on="0"/>
        <pt x="914" y="1353" on="1"/>
        <pt x="825" y="1353" on="0"/>
        <pt x="676" y="1303" on="0"/>
        <pt x="568" y="1214" on="0"/>
        <pt x="507" y="1092" on="0"/>
        <pt x="507" y="1020" on="1"/>
        <pt x="507" y="935" on="0"/>
        <pt x="601" y="796" on="0"/>
        <pt x="768" y="697" on="0"/>
        <pt x="995" y="642" on="0"/>
        <pt x="1129" y="642" on="1"/>
        <pt x="1177" y="642" on="1"/>
        <pt x="1229" y="741" on="0"/>
        <pt x="1332" y="936" on="0"/>
        <pt x="1440" y="1113" on="0"/>
        <pt x="1556" y="1265" on="0"/>
        <pt x="1686" y="1376" on="0"/>
        <pt x="1834" y="1439" on="0"/>
        <pt x="1919" y="1439" on="1"/>
        <pt x="1954" y="1439" on="0"/>
        <pt x="2023" y="1420" on="0"/>
        <pt x="2078" y="1375" on="0"/>
        <pt x="2112" y="1302" on="0"/>
      </contour>
      <contour>
        <pt x="1940" y="1385" on="1"/>
        <pt x="1877" y="1385" on="0"/>
        <pt x="1763" y="1329" on="0"/>
        <pt x="1659" y="1228" on="0"/>
        <pt x="1561" y="1091" on="0"/>
        <pt x="1466" y="928" on="0"/>
        <pt x="1370" y="747" on="0"/>
        <pt x="1320" y="654" on="1"/>
        <pt x="1450" y="671" on="0"/>
        <pt x="1662" y="747" on="0"/>
        <pt x="1826" y="848" on="0"/>
        <pt x="1946" y="966" on="0"/>
        <pt x="2024" y="1084" on="0"/>
        <pt x="2061" y="1193" on="0"/>
        <pt x="2061" y="1236" on="1"/>
        <pt x="2061" y="1268" on="0"/>
        <pt x="2048" y="1322" on="0"/>
        <pt x="2020" y="1362" on="0"/>
        <pt x="1974" y="1385" on="0"/>
      </contour>
    </TTGlyph>
    <TTGlyph name="Scircumflex" xMin="-60" yMin="-177" xMax="2112" yMax="1733">
      <component glyphName="S" x="0" y="0" flags="0x204"/>
      <component glyphName="circumflex" x="1563" y="683" flags="0x4"/>
    </TTGlyph>
    <TTGlyph name="T" xMin="-40" yMin="-138" xMax="2282" yMax="1464">
      <contour>
        <pt x="2282" y="1420" on="1"/>
        <pt x="2217" y="1378" on="0"/>
        <pt x="2076" y="1321" on="0"/>
        <pt x="1926" y="1287" on="0"/>
        <pt x="1768" y="1273" on="0"/>
        <pt x="1687" y="1273" on="1"/>
        <pt x="1585" y="1273" on="0"/>
        <pt x="1359" y="1294" on="0"/>
        <pt x="1136" y="1318" on="0"/>
        <pt x="928" y="1339" on="0"/>
        <pt x="844" y="1339" on="1"/>
        <pt x="721" y="1339" on="0"/>
        <pt x="519" y="1276" on="0"/>
        <pt x="375" y="1161" on="0"/>
        <pt x="296" y="1000" on="0"/>
        <pt x="296" y="901" on="1"/>
        <pt x="296" y="832" on="0"/>
        <pt x="343" y="721" on="0"/>
        <pt x="430" y="645" on="0"/>
        <pt x="552" y="604" on="0"/>
        <pt x="626" y="604" on="1"/>
        <pt x="690" y="604" on="0"/>
        <pt x="826" y="635" on="0"/>
        <pt x="892" y="666" on="1"/>
        <pt x="913" y="625" on="1"/>
        <pt x="846" y="586" on="0"/>
        <pt x="671" y="540" on="0"/>
        <pt x="582" y="540" on="1"/>
        <pt x="505" y="540" on="0"/>
        <pt x="363" y="584" on="0"/>
        <pt x="252" y="673" on="0"/>
        <pt x="186" y="808" on="0"/>
        <pt x="186" y="899" on="1"/>
        <pt x="186" y="989" on="0"/>
        <pt x="240" y="1132" on="0"/>
        <pt x="334" y="1243" on="0"/>
        <pt x="460" y="1321" on="0"/>
        <pt x="605" y="1372" on="0"/>
        <pt x="761" y="1395" on="0"/>
        <pt x="838" y="1395" on="1"/>
        <pt x="930" y="1395" on="0"/>
        <pt x="1141" y="1373" on="0"/>
        <pt x="1361" y="1348" on="0"/>
        <pt x="1583" y="1326" on="0"/>
        <pt x="1687" y="1326" on="1"/>
        <pt x="1765" y="1326" on="0"/>
        <pt x="1917" y="1339" on="0"/>
        <pt x="2060" y="1371" on="0"/>
        <pt x="2193" y="1424" on="0"/>
        <pt x="2254" y="1464" on="1"/>
      </contour>
      <contour>
        <pt x="1580" y="1185" on="1"/>
        <pt x="1495" y="1083" on="0"/>
        <pt x="1364" y="860" on="0"/>
        <pt x="1253" y="636" on="0"/>
        <pt x="1153" y="417" on="0"/>
        <pt x="1045" y="220" on="0"/>
        <pt x="922" y="53" on="0"/>
        <pt x="765" y="-69" on="0"/>
        <pt x="564" y="-138" on="0"/>
        <pt x="434" y="-138" on="1"/>
        <pt x="319" y="-138" on="0"/>
        <pt x="142" y="-79" on="0"/>
        <pt x="22" y="24" on="0"/>
        <pt x="-40" y="163" on="0"/>
        <pt x="-40" y="244" on="1"/>
        <pt x="-40" y="275" on="0"/>
        <pt x="-32" y="331" on="0"/>
        <pt x="-24" y="354" on="1"/>
        <pt x="26" y="339" on="1"/>
        <pt x="20" y="319" on="0"/>
        <pt x="12" y="270" on="0"/>
        <pt x="12" y="244" on="1"/>
        <pt x="12" y="161" on="0"/>
        <pt x="82" y="37" on="0"/>
        <pt x="196" y="-45" on="0"/>
        <pt x="342" y="-86" on="0"/>
        <pt x="418" y="-86" on="1"/>
        <pt x="528" y="-86" on="0"/>
        <pt x="699" y="-10" on="0"/>
        <pt x="839" y="121" on="0"/>
        <pt x="954" y="297" on="0"/>
        <pt x="1062" y="499" on="0"/>
        <pt x="1171" y="717" on="0"/>
        <pt x="1298" y="931" on="0"/>
        <pt x="1450" y="1130" on="0"/>
        <pt x="1548" y="1212" on="1"/>
      </contour>
    </TTGlyph>
    <TTGlyph name="Tbar" xMin="-40" yMin="-138" xMax="2282" yMax="1464">
      <contour>
        <pt x="1580" y="1185" on="1"/>
        <pt x="1522" y="1115" on="0"/>
        <pt x="1426" y="968" on="0"/>
        <pt x="1384" y="893" on="1"/>
        <pt x="1694" y="893" on="1"/>
        <pt x="1664" y="828" on="1"/>
        <pt x="1349" y="828" on="1"/>
        <pt x="1287" y="709" on="0"/>
        <pt x="1180" y="473" on="0"/>
        <pt x="1068" y="259" on="0"/>
        <pt x="943" y="74" on="0"/>
        <pt x="781" y="-61" on="0"/>
        <pt x="572" y="-138" on="0"/>
        <pt x="434" y="-138" on="1"/>
        <pt x="319" y="-138" on="0"/>
        <pt x="142" y="-79" on="0"/>
        <pt x="22" y="24" on="0"/>
        <pt x="-40" y="163" on="0"/>
        <pt x="-40" y="244" on="1"/>
        <pt x="-40" y="275" on="0"/>
        <pt x="-32" y="331" on="0"/>
        <pt x="-24" y="354" on="1"/>
        <pt x="26" y="339" on="1"/>
        <pt x="20" y="319" on="0"/>
        <pt x="12" y="270" on="0"/>
        <pt x="12" y="244" on="1"/>
        <pt x="12" y="161" on="0"/>
        <pt x="82" y="37" on="0"/>
        <pt x="196" y="-45" on="0"/>
        <pt x="342" y="-86" on="0"/>
        <pt x="418" y="-86" on="1"/>
        <pt x="528" y="-86" on="0"/>
        <pt x="700" y="-10" on="0"/>
        <pt x="839" y="122" on="0"/>
        <pt x="955" y="299" on="0"/>
        <pt x="1064" y="502" on="0"/>
        <pt x="1173" y="721" on="0"/>
        <pt x="1237" y="828" on="1"/>
        <pt x="928" y="828" on="1"/>
        <pt x="958" y="893" on="1"/>
        <pt x="1277" y="893" on="1"/>
        <pt x="1334" y="981" on="0"/>
        <pt x="1466" y="1143" on="0"/>
        <pt x="1548" y="1212" on="1"/>
      </contour>
      <contour>
        <pt x="2282" y="1420" on="1"/>
        <pt x="2217" y="1378" on="0"/>
        <pt x="2076" y="1321" on="0"/>
        <pt x="1926" y="1287" on="0"/>
        <pt x="1768" y="1273" on="0"/>
        <pt x="1687" y="1273" on="1"/>
        <pt x="1585" y="1273" on="0"/>
        <pt x="1359" y="1294" on="0"/>
        <pt x="1136" y="1318" on="0"/>
        <pt x="928" y="1339" on="0"/>
        <pt x="844" y="1339" on="1"/>
        <pt x="721" y="1339" on="0"/>
        <pt x="519" y="1276" on="0"/>
        <pt x="375" y="1161" on="0"/>
        <pt x="296" y="1000" on="0"/>
        <pt x="296" y="901" on="1"/>
        <pt x="296" y="832" on="0"/>
        <pt x="343" y="721" on="0"/>
        <pt x="430" y="645" on="0"/>
        <pt x="552" y="604" on="0"/>
        <pt x="626" y="604" on="1"/>
        <pt x="690" y="604" on="0"/>
        <pt x="826" y="635" on="0"/>
        <pt x="892" y="666" on="1"/>
        <pt x="913" y="625" on="1"/>
        <pt x="846" y="586" on="0"/>
        <pt x="671" y="540" on="0"/>
        <pt x="582" y="540" on="1"/>
        <pt x="505" y="540" on="0"/>
        <pt x="363" y="584" on="0"/>
        <pt x="252" y="673" on="0"/>
        <pt x="186" y="808" on="0"/>
        <pt x="186" y="899" on="1"/>
        <pt x="186" y="989" on="0"/>
        <pt x="240" y="1132" on="0"/>
        <pt x="334" y="1243" on="0"/>
        <pt x="460" y="1321" on="0"/>
        <pt x="605" y="1372" on="0"/>
        <pt x="761" y="1395" on="0"/>
        <pt x="838" y="1395" on="1"/>
        <pt x="930" y="1395" on="0"/>
        <pt x="1141" y="1373" on="0"/>
        <pt x="1361" y="1348" on="0"/>
        <pt x="1583" y="1326" on="0"/>
        <pt x="1687" y="1326" on="1"/>
        <pt x="1765" y="1326" on="0"/>
        <pt x="1917" y="1339" on="0"/>
        <pt x="2060" y="1371" on="0"/>
        <pt x="2193" y="1424" on="0"/>
        <pt x="2254" y="1464" on="1"/>
      </contour>
    </TTGlyph>
    <TTGlyph name="Tcaron" xMin="-40" yMin="-138" xMax="2282" yMax="1709">
      <component glyphName="T" x="0" y="0" flags="0x204"/>
      <component glyphName="caron" x="1164" y="659" flags="0x4"/>
    </TTGlyph>
    <TTGlyph name="Tcommaaccent" xMin="-40" yMin="-507" xMax="2282" yMax="1464">
      <component glyphName="T" x="0" y="0" flags="0x204"/>
      <component glyphName="commaaccent" x="228" y="-159" flags="0x4"/>
    </TTGlyph>
    <TTGlyph name="Thorn" xMin="30" yMin="-111" xMax="1836" yMax="1484">
      <contour>
        <pt x="1836" y="1461" on="1"/>
        <pt x="1747" y="1395" on="0"/>
        <pt x="1596" y="1199" on="0"/>
        <pt x="1524" y="1071" on="1"/>
        <pt x="1593" y="1034" on="0"/>
        <pt x="1686" y="940" on="0"/>
        <pt x="1743" y="841" on="0"/>
        <pt x="1767" y="743" on="0"/>
        <pt x="1767" y="703" on="1"/>
        <pt x="1767" y="605" on="0"/>
        <pt x="1693" y="460" on="0"/>
        <pt x="1572" y="364" on="0"/>
        <pt x="1415" y="317" on="0"/>
        <pt x="1331" y="317" on="1"/>
        <pt x="1238" y="317" on="0"/>
        <pt x="1148" y="338" on="1"/>
        <pt x="1088" y="245" on="0"/>
        <pt x="947" y="81" on="0"/>
        <pt x="780" y="-41" on="0"/>
        <pt x="585" y="-111" on="0"/>
        <pt x="471" y="-111" on="1"/>
        <pt x="372" y="-111" on="0"/>
        <pt x="209" y="-53" on="0"/>
        <pt x="93" y="55" on="0"/>
        <pt x="30" y="210" on="0"/>
        <pt x="30" y="307" on="1"/>
        <pt x="30" y="428" on="0"/>
        <pt x="106" y="649" on="0"/>
        <pt x="246" y="838" on="0"/>
        <pt x="442" y="992" on="0"/>
        <pt x="683" y="1101" on="0"/>
        <pt x="962" y="1160" on="0"/>
        <pt x="1114" y="1160" on="1"/>
        <pt x="1211" y="1160" on="0"/>
        <pt x="1370" y="1134" on="0"/>
        <pt x="1434" y="1111" on="1"/>
        <pt x="1512" y="1234" on="0"/>
        <pt x="1697" y="1425" on="0"/>
        <pt x="1820" y="1484" on="1"/>
      </contour>
      <contour>
        <pt x="1201" y="670" on="1"/>
        <pt x="1254" y="779" on="0"/>
        <pt x="1354" y="977" on="0"/>
        <pt x="1407" y="1066" on="1"/>
        <pt x="1348" y="1084" on="0"/>
        <pt x="1214" y="1101" on="0"/>
        <pt x="1140" y="1101" on="1"/>
        <pt x="979" y="1101" on="0"/>
        <pt x="701" y="1026" on="0"/>
        <pt x="472" y="898" on="0"/>
        <pt x="293" y="729" on="0"/>
        <pt x="171" y="543" on="0"/>
        <pt x="107" y="351" on="0"/>
        <pt x="107" y="263" on="1"/>
        <pt x="107" y="200" on="0"/>
        <pt x="154" y="83" on="0"/>
        <pt x="244" y="-5" on="0"/>
        <pt x="373" y="-58" on="0"/>
        <pt x="455" y="-58" on="1"/>
        <pt x="552" y="-58" on="0"/>
        <pt x="715" y="1" on="0"/>
        <pt x="857" y="112" on="0"/>
        <pt x="982" y="271" on="0"/>
        <pt x="1042" y="371" on="1"/>
        <pt x="989" y="391" on="0"/>
        <pt x="891" y="444" on="0"/>
        <pt x="845" y="477" on="1"/>
        <pt x="861" y="505" on="1"/>
        <pt x="910" y="480" on="0"/>
        <pt x="1014" y="436" on="0"/>
        <pt x="1070" y="419" on="1"/>
        <pt x="1102" y="476" on="0"/>
        <pt x="1167" y="601" on="0"/>
      </contour>
      <contour>
        <pt x="1662" y="760" on="1"/>
        <pt x="1662" y="855" on="0"/>
        <pt x="1575" y="985" on="0"/>
        <pt x="1499" y="1027" on="1"/>
        <pt x="1452" y="940" on="0"/>
        <pt x="1359" y="746" on="0"/>
        <pt x="1310" y="639" on="1"/>
        <pt x="1281" y="576" on="0"/>
        <pt x="1218" y="453" on="0"/>
        <pt x="1182" y="393" on="1"/>
        <pt x="1234" y="384" on="0"/>
        <pt x="1289" y="384" on="1"/>
        <pt x="1365" y="384" on="0"/>
        <pt x="1500" y="438" on="0"/>
        <pt x="1602" y="537" on="0"/>
        <pt x="1662" y="675" on="0"/>
      </contour>
    </TTGlyph>
    <TTGlyph name="U" xMin="60" yMin="-159" xMax="2411" yMax="1372">
      <contour>
        <pt x="2411" y="345" on="1"/>
        <pt x="2388" y="307" on="0"/>
        <pt x="2326" y="216" on="0"/>
        <pt x="2250" y="122" on="0"/>
        <pt x="2161" y="34" on="0"/>
        <pt x="2061" y="-34" on="0"/>
        <pt x="1953" y="-75" on="0"/>
        <pt x="1895" y="-75" on="1"/>
        <pt x="1843" y="-75" on="0"/>
        <pt x="1767" y="-42" on="0"/>
        <pt x="1717" y="13" on="0"/>
        <pt x="1693" y="85" on="0"/>
        <pt x="1693" y="125" on="1"/>
        <pt x="1693" y="182" on="0"/>
        <pt x="1711" y="250" on="1"/>
        <pt x="1623" y="146" on="0"/>
        <pt x="1465" y="-8" on="0"/>
        <pt x="1310" y="-109" on="0"/>
        <pt x="1151" y="-159" on="0"/>
        <pt x="1061" y="-159" on="1"/>
        <pt x="1005" y="-159" on="0"/>
        <pt x="908" y="-129" on="0"/>
        <pt x="836" y="-70" on="0"/>
        <pt x="794" y="18" on="0"/>
        <pt x="794" y="77" on="1"/>
        <pt x="794" y="151" on="0"/>
        <pt x="864" y="304" on="0"/>
        <pt x="968" y="457" on="0"/>
        <pt x="1091" y="611" on="0"/>
        <pt x="1195" y="763" on="0"/>
        <pt x="1265" y="913" on="0"/>
        <pt x="1265" y="986" on="1"/>
        <pt x="1265" y="1050" on="0"/>
        <pt x="1212" y="1171" on="0"/>
        <pt x="1098" y="1263" on="0"/>
        <pt x="920" y="1319" on="0"/>
        <pt x="795" y="1319" on="1"/>
        <pt x="690" y="1319" on="0"/>
        <pt x="516" y="1279" on="0"/>
        <pt x="378" y="1209" on="0"/>
        <pt x="276" y="1114" on="0"/>
        <pt x="208" y="1006" on="0"/>
        <pt x="175" y="888" on="0"/>
        <pt x="175" y="830" on="1"/>
        <pt x="175" y="753" on="0"/>
        <pt x="231" y="647" on="0"/>
        <pt x="320" y="582" on="0"/>
        <pt x="432" y="553" on="0"/>
        <pt x="488" y="553" on="1"/>
        <pt x="548" y="553" on="0"/>
        <pt x="656" y="581" on="0"/>
        <pt x="737" y="615" on="0"/>
        <pt x="785" y="643" on="0"/>
        <pt x="786" y="644" on="1"/>
        <pt x="812" y="606" on="1"/>
        <pt x="733" y="543" on="0"/>
        <pt x="536" y="473" on="0"/>
        <pt x="438" y="473" on="1"/>
        <pt x="367" y="473" on="0"/>
        <pt x="231" y="514" on="0"/>
        <pt x="125" y="600" on="0"/>
        <pt x="60" y="735" on="0"/>
        <pt x="60" y="828" on="1"/>
        <pt x="60" y="935" on="0"/>
        <pt x="165" y="1132" on="0"/>
        <pt x="357" y="1282" on="0"/>
        <pt x="629" y="1372" on="0"/>
        <pt x="796" y="1372" on="1"/>
        <pt x="913" y="1372" on="0"/>
        <pt x="1114" y="1314" on="0"/>
        <pt x="1261" y="1205" on="0"/>
        <pt x="1345" y="1051" on="0"/>
        <pt x="1346" y="955" on="1"/>
        <pt x="1347" y="868" on="0"/>
        <pt x="1279" y="698" on="0"/>
        <pt x="1176" y="534" on="0"/>
        <pt x="1056" y="380" on="0"/>
        <pt x="953" y="239" on="0"/>
        <pt x="884" y="114" on="0"/>
        <pt x="884" y="61" on="1"/>
        <pt x="884" y="30" on="0"/>
        <pt x="907" y="-29" on="0"/>
        <pt x="957" y="-74" on="0"/>
        <pt x="1032" y="-102" on="0"/>
        <pt x="1085" y="-102" on="1"/>
        <pt x="1201" y="-102" on="0"/>
        <pt x="1411" y="18" on="0"/>
        <pt x="1611" y="225" on="0"/>
        <pt x="1806" y="502" on="0"/>
        <pt x="2009" y="817" on="0"/>
        <pt x="2227" y="1153" on="0"/>
        <pt x="2349" y="1315" on="1"/>
        <pt x="2394" y="1290" on="1"/>
        <pt x="2336" y="1181" on="0"/>
        <pt x="2199" y="940" on="0"/>
        <pt x="2062" y="700" on="0"/>
        <pt x="1934" y="471" on="0"/>
        <pt x="1835" y="277" on="0"/>
        <pt x="1776" y="128" on="0"/>
        <pt x="1776" y="88" on="1"/>
        <pt x="1776" y="32" on="0"/>
        <pt x="1845" y="-23" on="0"/>
        <pt x="1893" y="-23" on="1"/>
        <pt x="1943" y="-23" on="0"/>
        <pt x="2038" y="15" on="0"/>
        <pt x="2128" y="78" on="0"/>
        <pt x="2210" y="159" on="0"/>
        <pt x="2284" y="247" on="0"/>
        <pt x="2348" y="335" on="0"/>
        <pt x="2374" y="373" on="1"/>
      </contour>
    </TTGlyph>
    <TTGlyph name="Uacute" xMin="60" yMin="-159" xMax="2411" yMax="1583">
      <component glyphName="U" x="0" y="0" flags="0x204"/>
      <component glyphName="acute" x="1492" y="533" flags="0x4"/>
    </TTGlyph>
    <TTGlyph name="Ubreve" xMin="60" yMin="-159" xMax="2411" yMax="1592">
      <component glyphName="U" x="0" y="0" flags="0x204"/>
      <component glyphName="breve" x="1486" y="533" flags="0x4"/>
    </TTGlyph>
    <TTGlyph name="Ucircumflex" xMin="60" yMin="-159" xMax="2411" yMax="1583">
      <component glyphName="U" x="0" y="0" flags="0x204"/>
      <component glyphName="circumflex" x="1492" y="533" flags="0x4"/>
    </TTGlyph>
    <TTGlyph name="Udieresis" xMin="60" yMin="-159" xMax="2411" yMax="1557">
      <component glyphName="U" x="0" y="0" flags="0x204"/>
      <component glyphName="dieresis" x="1493" y="533" flags="0x4"/>
    </TTGlyph>
    <TTGlyph name="Ugrave" xMin="60" yMin="-159" xMax="2411" yMax="1583">
      <component glyphName="U" x="0" y="0" flags="0x204"/>
      <component glyphName="grave" x="1492" y="533" flags="0x4"/>
    </TTGlyph>
    <TTGlyph name="Uhungarumlaut" xMin="60" yMin="-159" xMax="2411" yMax="1583">
      <component glyphName="U" x="0" y="0" flags="0x204"/>
      <component glyphName="hungarumlaut" x="1562" y="533" flags="0x4"/>
    </TTGlyph>
</ttFont>
